%TF.GenerationSoftware,KiCad,Pcbnew,7.0.5*%
%TF.CreationDate,2023-06-12T20:17:58-07:00*%
%TF.ProjectId,kicad_tutorial,6b696361-645f-4747-9574-6f7269616c2e,rev?*%
%TF.SameCoordinates,Original*%
%TF.FileFunction,Copper,L4,Bot*%
%TF.FilePolarity,Positive*%
%FSLAX46Y46*%
G04 Gerber Fmt 4.6, Leading zero omitted, Abs format (unit mm)*
G04 Created by KiCad (PCBNEW 7.0.5) date 2023-06-12 20:17:58*
%MOMM*%
%LPD*%
G01*
G04 APERTURE LIST*
G04 Aperture macros list*
%AMRoundRect*
0 Rectangle with rounded corners*
0 $1 Rounding radius*
0 $2 $3 $4 $5 $6 $7 $8 $9 X,Y pos of 4 corners*
0 Add a 4 corners polygon primitive as box body*
4,1,4,$2,$3,$4,$5,$6,$7,$8,$9,$2,$3,0*
0 Add four circle primitives for the rounded corners*
1,1,$1+$1,$2,$3*
1,1,$1+$1,$4,$5*
1,1,$1+$1,$6,$7*
1,1,$1+$1,$8,$9*
0 Add four rect primitives between the rounded corners*
20,1,$1+$1,$2,$3,$4,$5,0*
20,1,$1+$1,$4,$5,$6,$7,0*
20,1,$1+$1,$6,$7,$8,$9,0*
20,1,$1+$1,$8,$9,$2,$3,0*%
G04 Aperture macros list end*
%TA.AperFunction,ComponentPad*%
%ADD10RoundRect,0.200000X-0.200000X-0.450000X0.200000X-0.450000X0.200000X0.450000X-0.200000X0.450000X0*%
%TD*%
%TA.AperFunction,ComponentPad*%
%ADD11O,0.800000X1.300000*%
%TD*%
%TA.AperFunction,ComponentPad*%
%ADD12C,0.900000*%
%TD*%
%TA.AperFunction,ComponentPad*%
%ADD13C,8.600000*%
%TD*%
%TA.AperFunction,ComponentPad*%
%ADD14RoundRect,0.200000X0.200000X0.450000X-0.200000X0.450000X-0.200000X-0.450000X0.200000X-0.450000X0*%
%TD*%
%TA.AperFunction,ComponentPad*%
%ADD15R,2.400000X2.400000*%
%TD*%
%TA.AperFunction,ComponentPad*%
%ADD16C,2.400000*%
%TD*%
%TA.AperFunction,ComponentPad*%
%ADD17O,1.900000X1.050000*%
%TD*%
%TA.AperFunction,ViaPad*%
%ADD18C,0.800000*%
%TD*%
%TA.AperFunction,Conductor*%
%ADD19C,0.300000*%
%TD*%
G04 APERTURE END LIST*
D10*
%TO.P,J4,1,Pin_1*%
%TO.N,+3.3V*%
X137125000Y-119050000D03*
D11*
%TO.P,J4,2,Pin_2*%
%TO.N,UART3_TX*%
X138375000Y-119050000D03*
%TO.P,J4,3,Pin_3*%
%TO.N,UART3_RX*%
X139625000Y-119050000D03*
%TO.P,J4,4,Pin_4*%
%TO.N,GND*%
X140875000Y-119050000D03*
%TD*%
D12*
%TO.P,H3,1,1*%
%TO.N,GND*%
X122525000Y-119500000D03*
X123469581Y-117219581D03*
X123469581Y-121780419D03*
X125750000Y-116275000D03*
D13*
X125750000Y-119500000D03*
D12*
X125750000Y-122725000D03*
X128030419Y-117219581D03*
X128030419Y-121780419D03*
X128975000Y-119500000D03*
%TD*%
D14*
%TO.P,J3,1,Pin_1*%
%TO.N,+3.3V*%
X140875000Y-79950000D03*
D11*
%TO.P,J3,2,Pin_2*%
%TO.N,I2C1_SCL*%
X139625000Y-79950000D03*
%TO.P,J3,3,Pin_3*%
%TO.N,I2C1_SDA*%
X138375000Y-79950000D03*
%TO.P,J3,4,Pin_4*%
%TO.N,GND*%
X137125000Y-79950000D03*
%TD*%
D12*
%TO.P,H4,1,1*%
%TO.N,GND*%
X122525000Y-79500000D03*
X123469581Y-77219581D03*
X123469581Y-81780419D03*
X125750000Y-76275000D03*
D13*
X125750000Y-79500000D03*
D12*
X125750000Y-82725000D03*
X128030419Y-77219581D03*
X128030419Y-81780419D03*
X128975000Y-79500000D03*
%TD*%
%TO.P,H1,1,1*%
%TO.N,GND*%
X167525000Y-79500000D03*
X168469581Y-77219581D03*
X168469581Y-81780419D03*
X170750000Y-76275000D03*
D13*
X170750000Y-79500000D03*
D12*
X170750000Y-82725000D03*
X173030419Y-77219581D03*
X173030419Y-81780419D03*
X173975000Y-79500000D03*
%TD*%
%TO.P,H2,1,1*%
%TO.N,GND*%
X167525000Y-119500000D03*
X168469581Y-117219581D03*
X168469581Y-121780419D03*
X170750000Y-116275000D03*
D13*
X170750000Y-119500000D03*
D12*
X170750000Y-122725000D03*
X173030419Y-117219581D03*
X173030419Y-121780419D03*
X173975000Y-119500000D03*
%TD*%
D15*
%TO.P,J1,1,Pin_1*%
%TO.N,+12V*%
X169050000Y-106750000D03*
D16*
%TO.P,J1,2,Pin_2*%
%TO.N,GND*%
X169050000Y-103250000D03*
%TD*%
D17*
%TO.P,J5,6,Shield*%
%TO.N,unconnected-(J5-Shield-Pad6)*%
X173950000Y-93575000D03*
X173950000Y-86425000D03*
%TD*%
D18*
%TO.N,GND*%
X146750000Y-93500000D03*
X147750000Y-93750000D03*
X165500000Y-109000000D03*
X163500000Y-102000000D03*
X169250000Y-88250000D03*
X155000000Y-120250000D03*
X159500000Y-79500000D03*
X131000000Y-100500000D03*
X154000000Y-75750000D03*
X145250000Y-108500000D03*
X162000000Y-106750000D03*
X130000000Y-105250000D03*
X167500000Y-88500000D03*
X166250000Y-111500000D03*
X125260000Y-92250000D03*
X157000000Y-120250000D03*
X131250000Y-92250000D03*
X157000000Y-117000000D03*
X129500000Y-94250000D03*
X157250000Y-107000000D03*
X135500000Y-107500000D03*
X165000000Y-102000000D03*
X164500000Y-108000000D03*
X164000000Y-106750000D03*
X160000000Y-111020400D03*
X160000000Y-113500000D03*
X169250000Y-87250000D03*
X137500000Y-92000000D03*
X170000000Y-87750000D03*
X127750000Y-101000000D03*
X155000000Y-117000000D03*
X132250000Y-100500000D03*
X170000000Y-88750000D03*
X132750000Y-95000000D03*
X146500000Y-106000000D03*
X150250000Y-75750000D03*
X167250000Y-112500000D03*
X152750000Y-75750000D03*
X157250000Y-105500000D03*
X126750000Y-99250000D03*
X131190000Y-97000000D03*
%TO.N,+3.3V*%
X152000000Y-115500000D03*
X141000000Y-81500000D03*
X133750000Y-91250000D03*
X154000000Y-115500000D03*
X151250000Y-114000000D03*
X152000000Y-118750000D03*
X132250000Y-96750000D03*
X154750000Y-114000000D03*
X154750000Y-112250000D03*
X146750000Y-95250000D03*
X138000000Y-107500000D03*
X125260000Y-87750000D03*
X128750000Y-102500000D03*
X156250000Y-77500000D03*
X144750000Y-104750000D03*
X135750000Y-91250000D03*
X137250000Y-89750000D03*
X161750000Y-114000000D03*
X151250000Y-112250000D03*
X128750000Y-104250000D03*
X159500000Y-77250000D03*
X162750000Y-115000000D03*
X154000000Y-118750000D03*
X140750000Y-89750000D03*
%TO.N,NRST*%
X142250000Y-90000000D03*
X142250000Y-96000000D03*
%TD*%
D19*
%TO.N,NRST*%
X142250000Y-96000000D02*
X142250000Y-90000000D01*
%TD*%
M02*
