%TF.GenerationSoftware,KiCad,Pcbnew,7.0.5*%
%TF.CreationDate,2023-06-12T20:17:58-07:00*%
%TF.ProjectId,kicad_tutorial,6b696361-645f-4747-9574-6f7269616c2e,rev?*%
%TF.SameCoordinates,Original*%
%TF.FileFunction,Copper,L3,Inr*%
%TF.FilePolarity,Positive*%
%FSLAX46Y46*%
G04 Gerber Fmt 4.6, Leading zero omitted, Abs format (unit mm)*
G04 Created by KiCad (PCBNEW 7.0.5) date 2023-06-12 20:17:58*
%MOMM*%
%LPD*%
G01*
G04 APERTURE LIST*
G04 Aperture macros list*
%AMRoundRect*
0 Rectangle with rounded corners*
0 $1 Rounding radius*
0 $2 $3 $4 $5 $6 $7 $8 $9 X,Y pos of 4 corners*
0 Add a 4 corners polygon primitive as box body*
4,1,4,$2,$3,$4,$5,$6,$7,$8,$9,$2,$3,0*
0 Add four circle primitives for the rounded corners*
1,1,$1+$1,$2,$3*
1,1,$1+$1,$4,$5*
1,1,$1+$1,$6,$7*
1,1,$1+$1,$8,$9*
0 Add four rect primitives between the rounded corners*
20,1,$1+$1,$2,$3,$4,$5,0*
20,1,$1+$1,$4,$5,$6,$7,0*
20,1,$1+$1,$6,$7,$8,$9,0*
20,1,$1+$1,$8,$9,$2,$3,0*%
G04 Aperture macros list end*
%TA.AperFunction,ComponentPad*%
%ADD10RoundRect,0.200000X-0.200000X-0.450000X0.200000X-0.450000X0.200000X0.450000X-0.200000X0.450000X0*%
%TD*%
%TA.AperFunction,ComponentPad*%
%ADD11O,0.800000X1.300000*%
%TD*%
%TA.AperFunction,ComponentPad*%
%ADD12C,0.900000*%
%TD*%
%TA.AperFunction,ComponentPad*%
%ADD13C,8.600000*%
%TD*%
%TA.AperFunction,ComponentPad*%
%ADD14RoundRect,0.200000X0.200000X0.450000X-0.200000X0.450000X-0.200000X-0.450000X0.200000X-0.450000X0*%
%TD*%
%TA.AperFunction,ComponentPad*%
%ADD15R,2.400000X2.400000*%
%TD*%
%TA.AperFunction,ComponentPad*%
%ADD16C,2.400000*%
%TD*%
%TA.AperFunction,ComponentPad*%
%ADD17O,1.900000X1.050000*%
%TD*%
%TA.AperFunction,ViaPad*%
%ADD18C,0.800000*%
%TD*%
G04 APERTURE END LIST*
D10*
%TO.N,+3.3V*%
%TO.C,J4*%
X137125000Y-119050000D03*
D11*
%TO.N,UART3_TX*%
X138375000Y-119050000D03*
%TO.N,UART3_RX*%
X139625000Y-119050000D03*
%TO.N,GND*%
X140875000Y-119050000D03*
%TD*%
D12*
%TO.N,GND*%
%TO.C,H3*%
X122525000Y-119500000D03*
X123469581Y-117219581D03*
X123469581Y-121780419D03*
X125750000Y-116275000D03*
D13*
X125750000Y-119500000D03*
D12*
X125750000Y-122725000D03*
X128030419Y-117219581D03*
X128030419Y-121780419D03*
X128975000Y-119500000D03*
%TD*%
D14*
%TO.N,+3.3V*%
%TO.C,J3*%
X140875000Y-79950000D03*
D11*
%TO.N,I2C1_SCL*%
X139625000Y-79950000D03*
%TO.N,I2C1_SDA*%
X138375000Y-79950000D03*
%TO.N,GND*%
X137125000Y-79950000D03*
%TD*%
D12*
%TO.N,GND*%
%TO.C,H4*%
X122525000Y-79500000D03*
X123469581Y-77219581D03*
X123469581Y-81780419D03*
X125750000Y-76275000D03*
D13*
X125750000Y-79500000D03*
D12*
X125750000Y-82725000D03*
X128030419Y-77219581D03*
X128030419Y-81780419D03*
X128975000Y-79500000D03*
%TD*%
%TO.N,GND*%
%TO.C,H1*%
X167525000Y-79500000D03*
X168469581Y-77219581D03*
X168469581Y-81780419D03*
X170750000Y-76275000D03*
D13*
X170750000Y-79500000D03*
D12*
X170750000Y-82725000D03*
X173030419Y-77219581D03*
X173030419Y-81780419D03*
X173975000Y-79500000D03*
%TD*%
%TO.N,GND*%
%TO.C,H2*%
X167525000Y-119500000D03*
X168469581Y-117219581D03*
X168469581Y-121780419D03*
X170750000Y-116275000D03*
D13*
X170750000Y-119500000D03*
D12*
X170750000Y-122725000D03*
X173030419Y-117219581D03*
X173030419Y-121780419D03*
X173975000Y-119500000D03*
%TD*%
D15*
%TO.N,+12V*%
%TO.C,J1*%
X169050000Y-106750000D03*
D16*
%TO.N,GND*%
X169050000Y-103250000D03*
%TD*%
D17*
%TO.N,unconnected-(J5-Shield-Pad6)*%
%TO.C,J5*%
X173950000Y-93575000D03*
X173950000Y-86425000D03*
%TD*%
D18*
%TO.N,GND*%
X146750000Y-93500000D03*
X147750000Y-93750000D03*
X165500000Y-109000000D03*
X163500000Y-102000000D03*
X169250000Y-88250000D03*
X155000000Y-120250000D03*
X159500000Y-79500000D03*
X131000000Y-100500000D03*
X154000000Y-75750000D03*
X145250000Y-108500000D03*
X162000000Y-106750000D03*
X130000000Y-105250000D03*
X167500000Y-88500000D03*
X166250000Y-111500000D03*
X125260000Y-92250000D03*
X157000000Y-120250000D03*
X131250000Y-92250000D03*
X157000000Y-117000000D03*
X129500000Y-94250000D03*
X157250000Y-107000000D03*
X135500000Y-107500000D03*
X165000000Y-102000000D03*
X164500000Y-108000000D03*
X164000000Y-106750000D03*
X160000000Y-111020400D03*
X160000000Y-113500000D03*
X169250000Y-87250000D03*
X137500000Y-92000000D03*
X170000000Y-87750000D03*
X127750000Y-101000000D03*
X155000000Y-117000000D03*
X132250000Y-100500000D03*
X170000000Y-88750000D03*
X132750000Y-95000000D03*
X146500000Y-106000000D03*
X150250000Y-75750000D03*
X167250000Y-112500000D03*
X152750000Y-75750000D03*
X157250000Y-105500000D03*
X126750000Y-99250000D03*
X131190000Y-97000000D03*
%TO.N,+3.3V*%
X152000000Y-115500000D03*
X141000000Y-81500000D03*
X133750000Y-91250000D03*
X154000000Y-115500000D03*
X151250000Y-114000000D03*
X152000000Y-118750000D03*
X132250000Y-96750000D03*
X154750000Y-114000000D03*
X154750000Y-112250000D03*
X146750000Y-95250000D03*
X138000000Y-107500000D03*
X125260000Y-87750000D03*
X128750000Y-102500000D03*
X156250000Y-77500000D03*
X144750000Y-104750000D03*
X135750000Y-91250000D03*
X137250000Y-89750000D03*
X161750000Y-114000000D03*
X151250000Y-112250000D03*
X128750000Y-104250000D03*
X159500000Y-77250000D03*
X162750000Y-115000000D03*
X154000000Y-118750000D03*
X140750000Y-89750000D03*
%TO.N,NRST*%
X142250000Y-90000000D03*
X142250000Y-96000000D03*
%TD*%
%TA.AperFunction,Conductor*%
%TO.N,+3.3V*%
G36*
X170751279Y-74000552D02*
G01*
X170967428Y-74009493D01*
X170988030Y-74010392D01*
X171208385Y-74020013D01*
X171213320Y-74020427D01*
X171443212Y-74049083D01*
X171671925Y-74079194D01*
X171676490Y-74079972D01*
X171905404Y-74127970D01*
X172098797Y-74170845D01*
X172128677Y-74177470D01*
X172132939Y-74178575D01*
X172358024Y-74245586D01*
X172575459Y-74314144D01*
X172579315Y-74315502D01*
X172798122Y-74400881D01*
X172799145Y-74401293D01*
X173009004Y-74488219D01*
X173012437Y-74489768D01*
X173223780Y-74593087D01*
X173224903Y-74593653D01*
X173408775Y-74689371D01*
X173426130Y-74698406D01*
X173429239Y-74700139D01*
X173493030Y-74738150D01*
X173631362Y-74820578D01*
X173632842Y-74821490D01*
X173738584Y-74888855D01*
X173823955Y-74943243D01*
X173826669Y-74945074D01*
X174018180Y-75081810D01*
X174019897Y-75083081D01*
X174199600Y-75220971D01*
X174201892Y-75222822D01*
X174361107Y-75357670D01*
X174381476Y-75374921D01*
X174383292Y-75376521D01*
X174550252Y-75529511D01*
X174552183Y-75531359D01*
X174718638Y-75697814D01*
X174720487Y-75699746D01*
X174873477Y-75866706D01*
X174875077Y-75868522D01*
X175027167Y-76048094D01*
X175029045Y-76050421D01*
X175166917Y-76230101D01*
X175168188Y-76231818D01*
X175304924Y-76423329D01*
X175306755Y-76426043D01*
X175375627Y-76534148D01*
X175428486Y-76617120D01*
X175429439Y-76618667D01*
X175549859Y-76820759D01*
X175551592Y-76823868D01*
X175598360Y-76913706D01*
X175656313Y-77025034D01*
X175656946Y-77026288D01*
X175684248Y-77082134D01*
X175760220Y-77237539D01*
X175761792Y-77241024D01*
X175824106Y-77391462D01*
X175848675Y-77450778D01*
X175849153Y-77451967D01*
X175934487Y-77670659D01*
X175935859Y-77674553D01*
X176004434Y-77892043D01*
X176071420Y-78117049D01*
X176072528Y-78121321D01*
X176122042Y-78344658D01*
X176170022Y-78573488D01*
X176170812Y-78578120D01*
X176200908Y-78806728D01*
X176229569Y-79036662D01*
X176229986Y-79041629D01*
X176240511Y-79282687D01*
X176249447Y-79498718D01*
X176249500Y-79501280D01*
X176249500Y-119498719D01*
X176249447Y-119501281D01*
X176240511Y-119717312D01*
X176229986Y-119958369D01*
X176229569Y-119963336D01*
X176200908Y-120193270D01*
X176170812Y-120421878D01*
X176170022Y-120426510D01*
X176122042Y-120655340D01*
X176072528Y-120878677D01*
X176071420Y-120882949D01*
X176004434Y-121107955D01*
X175935859Y-121325445D01*
X175934487Y-121329339D01*
X175849153Y-121548031D01*
X175848675Y-121549220D01*
X175761801Y-121758955D01*
X175760220Y-121762459D01*
X175656973Y-121973657D01*
X175656267Y-121975056D01*
X175551592Y-122176130D01*
X175549859Y-122179239D01*
X175429439Y-122381331D01*
X175428468Y-122382907D01*
X175306755Y-122573955D01*
X175304924Y-122576669D01*
X175168188Y-122768180D01*
X175166917Y-122769897D01*
X175029045Y-122949577D01*
X175027167Y-122951904D01*
X174875077Y-123131476D01*
X174873477Y-123133292D01*
X174720487Y-123300252D01*
X174718616Y-123302207D01*
X174552207Y-123468616D01*
X174550252Y-123470487D01*
X174383292Y-123623477D01*
X174381476Y-123625077D01*
X174201904Y-123777167D01*
X174199577Y-123779045D01*
X174019897Y-123916917D01*
X174018180Y-123918188D01*
X173826669Y-124054924D01*
X173823955Y-124056755D01*
X173632907Y-124178468D01*
X173631331Y-124179439D01*
X173429239Y-124299859D01*
X173426130Y-124301592D01*
X173257589Y-124389330D01*
X173225028Y-124406280D01*
X173223657Y-124406973D01*
X173012459Y-124510220D01*
X173008955Y-124511801D01*
X172799220Y-124598675D01*
X172798031Y-124599153D01*
X172579339Y-124684487D01*
X172575445Y-124685859D01*
X172357955Y-124754434D01*
X172132949Y-124821420D01*
X172128677Y-124822528D01*
X171905340Y-124872042D01*
X171676510Y-124920022D01*
X171671878Y-124920812D01*
X171443270Y-124950908D01*
X171213336Y-124979569D01*
X171208369Y-124979986D01*
X170967422Y-124990506D01*
X170755874Y-124999257D01*
X170751280Y-124999447D01*
X170748720Y-124999500D01*
X125751280Y-124999500D01*
X125748719Y-124999447D01*
X125743779Y-124999242D01*
X125532576Y-124990506D01*
X125291629Y-124979986D01*
X125286662Y-124979569D01*
X125056728Y-124950908D01*
X124865637Y-124925751D01*
X124828116Y-124920811D01*
X124823488Y-124920022D01*
X124594658Y-124872042D01*
X124371321Y-124822528D01*
X124367049Y-124821420D01*
X124142043Y-124754434D01*
X123924553Y-124685859D01*
X123920659Y-124684487D01*
X123701967Y-124599153D01*
X123700778Y-124598675D01*
X123641462Y-124574106D01*
X123491024Y-124511792D01*
X123487539Y-124510220D01*
X123444847Y-124489349D01*
X123276288Y-124406946D01*
X123275034Y-124406313D01*
X123163706Y-124348360D01*
X123073868Y-124301592D01*
X123070759Y-124299859D01*
X122868667Y-124179439D01*
X122867120Y-124178486D01*
X122793807Y-124131780D01*
X122676043Y-124056755D01*
X122673329Y-124054924D01*
X122481818Y-123918188D01*
X122480101Y-123916917D01*
X122368876Y-123831572D01*
X122300409Y-123779035D01*
X122298094Y-123777167D01*
X122118522Y-123625077D01*
X122116706Y-123623477D01*
X121949746Y-123470487D01*
X121947814Y-123468638D01*
X121781359Y-123302183D01*
X121779511Y-123300252D01*
X121626521Y-123133292D01*
X121624921Y-123131476D01*
X121562698Y-123058009D01*
X121472822Y-122951892D01*
X121470971Y-122949600D01*
X121333081Y-122769897D01*
X121331810Y-122768180D01*
X121195074Y-122576669D01*
X121193243Y-122573955D01*
X121172294Y-122541072D01*
X121071490Y-122382842D01*
X121070578Y-122381362D01*
X120950139Y-122179239D01*
X120948406Y-122176130D01*
X120939371Y-122158775D01*
X120843653Y-121974903D01*
X120843087Y-121973780D01*
X120739768Y-121762437D01*
X120738219Y-121759004D01*
X120651293Y-121549145D01*
X120650881Y-121548122D01*
X120565502Y-121329315D01*
X120564144Y-121325459D01*
X120495586Y-121108024D01*
X120428575Y-120882939D01*
X120427470Y-120878677D01*
X120405237Y-120778391D01*
X120377957Y-120655340D01*
X120329972Y-120426490D01*
X120329194Y-120421925D01*
X120299083Y-120193212D01*
X120270427Y-119963320D01*
X120270013Y-119958385D01*
X120259488Y-119717312D01*
X120255757Y-119627107D01*
X120250550Y-119501232D01*
X120250525Y-119500003D01*
X120944661Y-119500003D01*
X120964005Y-119930737D01*
X120964005Y-119930745D01*
X120964006Y-119930747D01*
X120990131Y-120123607D01*
X121021885Y-120358027D01*
X121117830Y-120778391D01*
X121251073Y-121188472D01*
X121251076Y-121188480D01*
X121420533Y-121584947D01*
X121420537Y-121584955D01*
X121420539Y-121584958D01*
X121624863Y-121964655D01*
X121624867Y-121964661D01*
X121624867Y-121964662D01*
X121862394Y-122324501D01*
X121862404Y-122324514D01*
X122131225Y-122661607D01*
X122131235Y-122661618D01*
X122131236Y-122661619D01*
X122429210Y-122973274D01*
X122753920Y-123256965D01*
X122753930Y-123256972D01*
X122753931Y-123256973D01*
X123045232Y-123468616D01*
X123102753Y-123510407D01*
X123472900Y-123731560D01*
X123472903Y-123731561D01*
X123472904Y-123731562D01*
X123472906Y-123731563D01*
X123861372Y-123918639D01*
X123861386Y-123918645D01*
X124265055Y-124070144D01*
X124265059Y-124070145D01*
X124265069Y-124070149D01*
X124680711Y-124184859D01*
X125104964Y-124261850D01*
X125534409Y-124300500D01*
X125534416Y-124300500D01*
X125965584Y-124300500D01*
X125965591Y-124300500D01*
X126395036Y-124261850D01*
X126819289Y-124184859D01*
X127234931Y-124070149D01*
X127638619Y-123918643D01*
X128027100Y-123731560D01*
X128397247Y-123510407D01*
X128746080Y-123256965D01*
X129070790Y-122973274D01*
X129368764Y-122661619D01*
X129438674Y-122573955D01*
X129505188Y-122490547D01*
X129637601Y-122324507D01*
X129875137Y-121964655D01*
X130079461Y-121584958D01*
X130095245Y-121548031D01*
X130123005Y-121483079D01*
X130248926Y-121188475D01*
X130382168Y-120778397D01*
X130478115Y-120358026D01*
X130492748Y-120250000D01*
X154094540Y-120250000D01*
X154114326Y-120438256D01*
X154114327Y-120438259D01*
X154172818Y-120618277D01*
X154172821Y-120618284D01*
X154267467Y-120782216D01*
X154354321Y-120878677D01*
X154394129Y-120922888D01*
X154547265Y-121034148D01*
X154547270Y-121034151D01*
X154720192Y-121111142D01*
X154720197Y-121111144D01*
X154905354Y-121150500D01*
X154905355Y-121150500D01*
X155094644Y-121150500D01*
X155094646Y-121150500D01*
X155279803Y-121111144D01*
X155452730Y-121034151D01*
X155605871Y-120922888D01*
X155732533Y-120782216D01*
X155827179Y-120618284D01*
X155882068Y-120449351D01*
X155921506Y-120391675D01*
X155985865Y-120364477D01*
X156054711Y-120376392D01*
X156106187Y-120423636D01*
X156117931Y-120449351D01*
X156172818Y-120618277D01*
X156172821Y-120618284D01*
X156267467Y-120782216D01*
X156354321Y-120878677D01*
X156394129Y-120922888D01*
X156547265Y-121034148D01*
X156547270Y-121034151D01*
X156720192Y-121111142D01*
X156720197Y-121111144D01*
X156905354Y-121150500D01*
X156905355Y-121150500D01*
X157094644Y-121150500D01*
X157094646Y-121150500D01*
X157279803Y-121111144D01*
X157452730Y-121034151D01*
X157605871Y-120922888D01*
X157732533Y-120782216D01*
X157827179Y-120618284D01*
X157885674Y-120438256D01*
X157905460Y-120250000D01*
X157885674Y-120061744D01*
X157827179Y-119881716D01*
X157732533Y-119717784D01*
X157605871Y-119577112D01*
X157577614Y-119556582D01*
X157499740Y-119500003D01*
X165944660Y-119500003D01*
X165964005Y-119930737D01*
X165964005Y-119930745D01*
X165964006Y-119930747D01*
X165990131Y-120123607D01*
X166021885Y-120358027D01*
X166117830Y-120778391D01*
X166251073Y-121188472D01*
X166251076Y-121188480D01*
X166420533Y-121584947D01*
X166420537Y-121584955D01*
X166420539Y-121584958D01*
X166624863Y-121964655D01*
X166624867Y-121964661D01*
X166624867Y-121964662D01*
X166862394Y-122324501D01*
X166862404Y-122324514D01*
X167131225Y-122661607D01*
X167131235Y-122661618D01*
X167131236Y-122661619D01*
X167429210Y-122973274D01*
X167753920Y-123256965D01*
X167753930Y-123256972D01*
X167753931Y-123256973D01*
X168045232Y-123468616D01*
X168102753Y-123510407D01*
X168472900Y-123731560D01*
X168472903Y-123731561D01*
X168472904Y-123731562D01*
X168472906Y-123731563D01*
X168861372Y-123918639D01*
X168861386Y-123918645D01*
X169265055Y-124070144D01*
X169265059Y-124070145D01*
X169265069Y-124070149D01*
X169680711Y-124184859D01*
X170104964Y-124261850D01*
X170534409Y-124300500D01*
X170534416Y-124300500D01*
X170965584Y-124300500D01*
X170965591Y-124300500D01*
X171395036Y-124261850D01*
X171819289Y-124184859D01*
X172234931Y-124070149D01*
X172638619Y-123918643D01*
X173027100Y-123731560D01*
X173397247Y-123510407D01*
X173746080Y-123256965D01*
X174070790Y-122973274D01*
X174368764Y-122661619D01*
X174438674Y-122573955D01*
X174505188Y-122490547D01*
X174637601Y-122324507D01*
X174875137Y-121964655D01*
X175079461Y-121584958D01*
X175095245Y-121548031D01*
X175123005Y-121483079D01*
X175248926Y-121188475D01*
X175382168Y-120778397D01*
X175478115Y-120358026D01*
X175535994Y-119930747D01*
X175555230Y-119502427D01*
X175555339Y-119500003D01*
X175555339Y-119499996D01*
X175546357Y-119300000D01*
X175535994Y-119069253D01*
X175478115Y-118641974D01*
X175382168Y-118221603D01*
X175248926Y-117811525D01*
X175129543Y-117532214D01*
X175079466Y-117415052D01*
X175079462Y-117415044D01*
X175054299Y-117368284D01*
X174875137Y-117035345D01*
X174758287Y-116858324D01*
X174637605Y-116675498D01*
X174637595Y-116675485D01*
X174368774Y-116338392D01*
X174368762Y-116338379D01*
X174070794Y-116026730D01*
X174070793Y-116026729D01*
X174070790Y-116026726D01*
X173746080Y-115743035D01*
X173746068Y-115743026D01*
X173397256Y-115489599D01*
X173397251Y-115489596D01*
X173397247Y-115489593D01*
X173027100Y-115268440D01*
X173027095Y-115268437D01*
X173027093Y-115268436D01*
X172638627Y-115081360D01*
X172638613Y-115081354D01*
X172234944Y-114929855D01*
X172234919Y-114929847D01*
X171819295Y-114815142D01*
X171395043Y-114738151D01*
X171395040Y-114738150D01*
X171395036Y-114738150D01*
X170965591Y-114699500D01*
X170534409Y-114699500D01*
X170104964Y-114738150D01*
X170104960Y-114738150D01*
X170104956Y-114738151D01*
X169680704Y-114815142D01*
X169265080Y-114929847D01*
X169265055Y-114929855D01*
X168861386Y-115081354D01*
X168861372Y-115081360D01*
X168472906Y-115268436D01*
X168472904Y-115268437D01*
X168102743Y-115489599D01*
X167753931Y-115743026D01*
X167753914Y-115743039D01*
X167429210Y-116026726D01*
X167429205Y-116026730D01*
X167131237Y-116338379D01*
X167131225Y-116338392D01*
X166862404Y-116675485D01*
X166862394Y-116675498D01*
X166624867Y-117035337D01*
X166624867Y-117035338D01*
X166420537Y-117415044D01*
X166420533Y-117415052D01*
X166251076Y-117811519D01*
X166251073Y-117811527D01*
X166117830Y-118221608D01*
X166021885Y-118641972D01*
X165964006Y-119069253D01*
X165964005Y-119069262D01*
X165944660Y-119499996D01*
X165944660Y-119500003D01*
X157499740Y-119500003D01*
X157452734Y-119465851D01*
X157452729Y-119465848D01*
X157279807Y-119388857D01*
X157279802Y-119388855D01*
X157134000Y-119357865D01*
X157094646Y-119349500D01*
X156905354Y-119349500D01*
X156872897Y-119356398D01*
X156720197Y-119388855D01*
X156720192Y-119388857D01*
X156547270Y-119465848D01*
X156547265Y-119465851D01*
X156394129Y-119577111D01*
X156267466Y-119717785D01*
X156172821Y-119881715D01*
X156172818Y-119881722D01*
X156117931Y-120050648D01*
X156078493Y-120108324D01*
X156014135Y-120135522D01*
X155945288Y-120123607D01*
X155893813Y-120076363D01*
X155882069Y-120050648D01*
X155827181Y-119881722D01*
X155827180Y-119881721D01*
X155827179Y-119881716D01*
X155732533Y-119717784D01*
X155605871Y-119577112D01*
X155577614Y-119556582D01*
X155452734Y-119465851D01*
X155452729Y-119465848D01*
X155279807Y-119388857D01*
X155279802Y-119388855D01*
X155134000Y-119357865D01*
X155094646Y-119349500D01*
X154905354Y-119349500D01*
X154872897Y-119356398D01*
X154720197Y-119388855D01*
X154720192Y-119388857D01*
X154547270Y-119465848D01*
X154547265Y-119465851D01*
X154394129Y-119577111D01*
X154267466Y-119717785D01*
X154172821Y-119881715D01*
X154172818Y-119881722D01*
X154143197Y-119972888D01*
X154114326Y-120061744D01*
X154094540Y-120250000D01*
X130492748Y-120250000D01*
X130535994Y-119930747D01*
X130555230Y-119502427D01*
X130555339Y-119500003D01*
X130555339Y-119499996D01*
X130551971Y-119425000D01*
X136225001Y-119425000D01*
X136225001Y-119556582D01*
X136231408Y-119627102D01*
X136231409Y-119627107D01*
X136281981Y-119789396D01*
X136369927Y-119934877D01*
X136490122Y-120055072D01*
X136635604Y-120143019D01*
X136635603Y-120143019D01*
X136749999Y-120178666D01*
X136750000Y-120178666D01*
X136750000Y-119425000D01*
X136225001Y-119425000D01*
X130551971Y-119425000D01*
X130548476Y-119347192D01*
X137474500Y-119347192D01*
X137489326Y-119488256D01*
X137493931Y-119502430D01*
X137500000Y-119540746D01*
X137500000Y-120178666D01*
X137614395Y-120143019D01*
X137756228Y-120057278D01*
X137823782Y-120039442D01*
X137890256Y-120060959D01*
X137893263Y-120063077D01*
X137922265Y-120084148D01*
X137922270Y-120084151D01*
X138095192Y-120161142D01*
X138095197Y-120161144D01*
X138280354Y-120200500D01*
X138280355Y-120200500D01*
X138469644Y-120200500D01*
X138469646Y-120200500D01*
X138654803Y-120161144D01*
X138827730Y-120084151D01*
X138927114Y-120011944D01*
X138992921Y-119988464D01*
X139060975Y-120004289D01*
X139072885Y-120011944D01*
X139172265Y-120084148D01*
X139172270Y-120084151D01*
X139345192Y-120161142D01*
X139345197Y-120161144D01*
X139530354Y-120200500D01*
X139530355Y-120200500D01*
X139719644Y-120200500D01*
X139719646Y-120200500D01*
X139904803Y-120161144D01*
X140077730Y-120084151D01*
X140177114Y-120011944D01*
X140242921Y-119988464D01*
X140310975Y-120004289D01*
X140322885Y-120011944D01*
X140422265Y-120084148D01*
X140422270Y-120084151D01*
X140595192Y-120161142D01*
X140595197Y-120161144D01*
X140780354Y-120200500D01*
X140780355Y-120200500D01*
X140969644Y-120200500D01*
X140969646Y-120200500D01*
X141154803Y-120161144D01*
X141327730Y-120084151D01*
X141480871Y-119972888D01*
X141607533Y-119832216D01*
X141702179Y-119668284D01*
X141760674Y-119488256D01*
X141775500Y-119347192D01*
X141775500Y-118752808D01*
X141760674Y-118611744D01*
X141702179Y-118431716D01*
X141607533Y-118267784D01*
X141480871Y-118127112D01*
X141480870Y-118127111D01*
X141327734Y-118015851D01*
X141327729Y-118015848D01*
X141154807Y-117938857D01*
X141154802Y-117938855D01*
X141009001Y-117907865D01*
X140969646Y-117899500D01*
X140780354Y-117899500D01*
X140747897Y-117906398D01*
X140595197Y-117938855D01*
X140595192Y-117938857D01*
X140422271Y-118015848D01*
X140322885Y-118088056D01*
X140257078Y-118111535D01*
X140189025Y-118095709D01*
X140177115Y-118088056D01*
X140139052Y-118060402D01*
X140077730Y-118015849D01*
X140077728Y-118015848D01*
X140077729Y-118015848D01*
X139904807Y-117938857D01*
X139904802Y-117938855D01*
X139759001Y-117907865D01*
X139719646Y-117899500D01*
X139530354Y-117899500D01*
X139497897Y-117906398D01*
X139345197Y-117938855D01*
X139345192Y-117938857D01*
X139172270Y-118015848D01*
X139172266Y-118015850D01*
X139072883Y-118088056D01*
X139007077Y-118111535D01*
X138939023Y-118095709D01*
X138927114Y-118088055D01*
X138827734Y-118015851D01*
X138827729Y-118015848D01*
X138654807Y-117938857D01*
X138654802Y-117938855D01*
X138509000Y-117907865D01*
X138469646Y-117899500D01*
X138280354Y-117899500D01*
X138247897Y-117906398D01*
X138095197Y-117938855D01*
X138095192Y-117938857D01*
X137922272Y-118015848D01*
X137922270Y-118015849D01*
X137912654Y-118022835D01*
X137893260Y-118036925D01*
X137827452Y-118060402D01*
X137759399Y-118044574D01*
X137756228Y-118042721D01*
X137614396Y-117956981D01*
X137614394Y-117956980D01*
X137500000Y-117921332D01*
X137500000Y-118559253D01*
X137493930Y-118597571D01*
X137489326Y-118611744D01*
X137474500Y-118752808D01*
X137474500Y-119347192D01*
X130548476Y-119347192D01*
X130546357Y-119300000D01*
X130535994Y-119069253D01*
X130533386Y-119050000D01*
X136870102Y-119050000D01*
X136889505Y-119147545D01*
X136944760Y-119230240D01*
X137027455Y-119285495D01*
X137100376Y-119300000D01*
X137149624Y-119300000D01*
X137222545Y-119285495D01*
X137305240Y-119230240D01*
X137360495Y-119147545D01*
X137379898Y-119050000D01*
X137360495Y-118952455D01*
X137305240Y-118869760D01*
X137222545Y-118814505D01*
X137149624Y-118800000D01*
X137100376Y-118800000D01*
X137027455Y-118814505D01*
X136944760Y-118869760D01*
X136889505Y-118952455D01*
X136870102Y-119050000D01*
X130533386Y-119050000D01*
X130482589Y-118675000D01*
X136225000Y-118675000D01*
X136750000Y-118675000D01*
X136750000Y-117921333D01*
X136749999Y-117921332D01*
X136635605Y-117956980D01*
X136635603Y-117956981D01*
X136490122Y-118044927D01*
X136369927Y-118165122D01*
X136281980Y-118310604D01*
X136231409Y-118472893D01*
X136225000Y-118543427D01*
X136225000Y-118675000D01*
X130482589Y-118675000D01*
X130478115Y-118641974D01*
X130382168Y-118221603D01*
X130248926Y-117811525D01*
X130129543Y-117532214D01*
X130079466Y-117415052D01*
X130079462Y-117415044D01*
X130054299Y-117368284D01*
X129875137Y-117035345D01*
X129851806Y-117000000D01*
X154094540Y-117000000D01*
X154114326Y-117188256D01*
X154114327Y-117188259D01*
X154172818Y-117368277D01*
X154172821Y-117368284D01*
X154267467Y-117532216D01*
X154394128Y-117672887D01*
X154394129Y-117672888D01*
X154547265Y-117784148D01*
X154547270Y-117784151D01*
X154720192Y-117861142D01*
X154720197Y-117861144D01*
X154905354Y-117900500D01*
X154905355Y-117900500D01*
X155094644Y-117900500D01*
X155094646Y-117900500D01*
X155279803Y-117861144D01*
X155452730Y-117784151D01*
X155605871Y-117672888D01*
X155732533Y-117532216D01*
X155827179Y-117368284D01*
X155882068Y-117199351D01*
X155921506Y-117141675D01*
X155985865Y-117114477D01*
X156054711Y-117126392D01*
X156106187Y-117173636D01*
X156117931Y-117199351D01*
X156172818Y-117368277D01*
X156172821Y-117368284D01*
X156267467Y-117532216D01*
X156394128Y-117672887D01*
X156394129Y-117672888D01*
X156547265Y-117784148D01*
X156547270Y-117784151D01*
X156720192Y-117861142D01*
X156720197Y-117861144D01*
X156905354Y-117900500D01*
X156905355Y-117900500D01*
X157094644Y-117900500D01*
X157094646Y-117900500D01*
X157279803Y-117861144D01*
X157452730Y-117784151D01*
X157605871Y-117672888D01*
X157732533Y-117532216D01*
X157827179Y-117368284D01*
X157885674Y-117188256D01*
X157905460Y-117000000D01*
X157885674Y-116811744D01*
X157827179Y-116631716D01*
X157732533Y-116467784D01*
X157605871Y-116327112D01*
X157605870Y-116327111D01*
X157452734Y-116215851D01*
X157452729Y-116215848D01*
X157279807Y-116138857D01*
X157279802Y-116138855D01*
X157134001Y-116107865D01*
X157094646Y-116099500D01*
X156905354Y-116099500D01*
X156872897Y-116106398D01*
X156720197Y-116138855D01*
X156720192Y-116138857D01*
X156547270Y-116215848D01*
X156547265Y-116215851D01*
X156394129Y-116327111D01*
X156267466Y-116467785D01*
X156172821Y-116631715D01*
X156172818Y-116631722D01*
X156117931Y-116800648D01*
X156078493Y-116858324D01*
X156014135Y-116885522D01*
X155945288Y-116873607D01*
X155893813Y-116826363D01*
X155882069Y-116800648D01*
X155827181Y-116631722D01*
X155827180Y-116631721D01*
X155827179Y-116631716D01*
X155732533Y-116467784D01*
X155605871Y-116327112D01*
X155605870Y-116327111D01*
X155452734Y-116215851D01*
X155452729Y-116215848D01*
X155279807Y-116138857D01*
X155279802Y-116138855D01*
X155134000Y-116107865D01*
X155094646Y-116099500D01*
X154905354Y-116099500D01*
X154872897Y-116106398D01*
X154720197Y-116138855D01*
X154720192Y-116138857D01*
X154547270Y-116215848D01*
X154547265Y-116215851D01*
X154394129Y-116327111D01*
X154267466Y-116467785D01*
X154172821Y-116631715D01*
X154172818Y-116631722D01*
X154117931Y-116800648D01*
X154114326Y-116811744D01*
X154094540Y-117000000D01*
X129851806Y-117000000D01*
X129758287Y-116858324D01*
X129637605Y-116675498D01*
X129637595Y-116675485D01*
X129368774Y-116338392D01*
X129368762Y-116338379D01*
X129070794Y-116026730D01*
X129070793Y-116026729D01*
X129070790Y-116026726D01*
X128746080Y-115743035D01*
X128746068Y-115743026D01*
X128397256Y-115489599D01*
X128397251Y-115489596D01*
X128397247Y-115489593D01*
X128027100Y-115268440D01*
X128027095Y-115268437D01*
X128027093Y-115268436D01*
X127638627Y-115081360D01*
X127638613Y-115081354D01*
X127234944Y-114929855D01*
X127234919Y-114929847D01*
X126819295Y-114815142D01*
X126395043Y-114738151D01*
X126395040Y-114738150D01*
X126395036Y-114738150D01*
X125965591Y-114699500D01*
X125534409Y-114699500D01*
X125104964Y-114738150D01*
X125104960Y-114738150D01*
X125104956Y-114738151D01*
X124680704Y-114815142D01*
X124265080Y-114929847D01*
X124265055Y-114929855D01*
X123861386Y-115081354D01*
X123861372Y-115081360D01*
X123472906Y-115268436D01*
X123472904Y-115268437D01*
X123102743Y-115489599D01*
X122753931Y-115743026D01*
X122753914Y-115743039D01*
X122429210Y-116026726D01*
X122429205Y-116026730D01*
X122131237Y-116338379D01*
X122131225Y-116338392D01*
X121862404Y-116675485D01*
X121862394Y-116675498D01*
X121624867Y-117035337D01*
X121624867Y-117035338D01*
X121420537Y-117415044D01*
X121420533Y-117415052D01*
X121251076Y-117811519D01*
X121251073Y-117811527D01*
X121117830Y-118221608D01*
X121021885Y-118641972D01*
X120964006Y-119069253D01*
X120964005Y-119069262D01*
X120944661Y-119499996D01*
X120944661Y-119500003D01*
X120250525Y-119500003D01*
X120250500Y-119498768D01*
X120250500Y-113500000D01*
X159094540Y-113500000D01*
X159114326Y-113688256D01*
X159114327Y-113688259D01*
X159172818Y-113868277D01*
X159172821Y-113868284D01*
X159267467Y-114032216D01*
X159394129Y-114172887D01*
X159394129Y-114172888D01*
X159547265Y-114284148D01*
X159547270Y-114284151D01*
X159720192Y-114361142D01*
X159720197Y-114361144D01*
X159905354Y-114400500D01*
X159905355Y-114400500D01*
X160094644Y-114400500D01*
X160094646Y-114400500D01*
X160279803Y-114361144D01*
X160452730Y-114284151D01*
X160605871Y-114172888D01*
X160732533Y-114032216D01*
X160827179Y-113868284D01*
X160885674Y-113688256D01*
X160905460Y-113500000D01*
X160885674Y-113311744D01*
X160827179Y-113131716D01*
X160732533Y-112967784D01*
X160605871Y-112827112D01*
X160605870Y-112827111D01*
X160452734Y-112715851D01*
X160452729Y-112715848D01*
X160279807Y-112638857D01*
X160279802Y-112638855D01*
X160134001Y-112607865D01*
X160094646Y-112599500D01*
X159905354Y-112599500D01*
X159872897Y-112606398D01*
X159720197Y-112638855D01*
X159720192Y-112638857D01*
X159547270Y-112715848D01*
X159547265Y-112715851D01*
X159394129Y-112827111D01*
X159267466Y-112967785D01*
X159172821Y-113131715D01*
X159172818Y-113131722D01*
X159114327Y-113311740D01*
X159114326Y-113311744D01*
X159094540Y-113500000D01*
X120250500Y-113500000D01*
X120250500Y-111020400D01*
X159094540Y-111020400D01*
X159114326Y-111208656D01*
X159114327Y-111208659D01*
X159172818Y-111388677D01*
X159172821Y-111388684D01*
X159267467Y-111552616D01*
X159309682Y-111599500D01*
X159394129Y-111693288D01*
X159547265Y-111804548D01*
X159547270Y-111804551D01*
X159720192Y-111881542D01*
X159720197Y-111881544D01*
X159905354Y-111920900D01*
X159905355Y-111920900D01*
X160094644Y-111920900D01*
X160094646Y-111920900D01*
X160279803Y-111881544D01*
X160452730Y-111804551D01*
X160605871Y-111693288D01*
X160732533Y-111552616D01*
X160762911Y-111500000D01*
X165344540Y-111500000D01*
X165364326Y-111688256D01*
X165364327Y-111688259D01*
X165422818Y-111868277D01*
X165422821Y-111868284D01*
X165517467Y-112032216D01*
X165607063Y-112131722D01*
X165644129Y-112172888D01*
X165797265Y-112284148D01*
X165797270Y-112284151D01*
X165970192Y-112361142D01*
X165970197Y-112361144D01*
X166155354Y-112400500D01*
X166155355Y-112400500D01*
X166222432Y-112400500D01*
X166289471Y-112420185D01*
X166335226Y-112472989D01*
X166345752Y-112511535D01*
X166364326Y-112688256D01*
X166364327Y-112688259D01*
X166422818Y-112868277D01*
X166422821Y-112868284D01*
X166517467Y-113032216D01*
X166607063Y-113131722D01*
X166644129Y-113172888D01*
X166797265Y-113284148D01*
X166797270Y-113284151D01*
X166970192Y-113361142D01*
X166970197Y-113361144D01*
X167155354Y-113400500D01*
X167155355Y-113400500D01*
X167344644Y-113400500D01*
X167344646Y-113400500D01*
X167529803Y-113361144D01*
X167702730Y-113284151D01*
X167855871Y-113172888D01*
X167982533Y-113032216D01*
X168077179Y-112868284D01*
X168135674Y-112688256D01*
X168155460Y-112500000D01*
X168135674Y-112311744D01*
X168077179Y-112131716D01*
X167982533Y-111967784D01*
X167855871Y-111827112D01*
X167855870Y-111827111D01*
X167702734Y-111715851D01*
X167702729Y-111715848D01*
X167529807Y-111638857D01*
X167529802Y-111638855D01*
X167384000Y-111607865D01*
X167344646Y-111599500D01*
X167277568Y-111599500D01*
X167210529Y-111579815D01*
X167164774Y-111527011D01*
X167154247Y-111488462D01*
X167135674Y-111311744D01*
X167077179Y-111131716D01*
X166982533Y-110967784D01*
X166855871Y-110827112D01*
X166855870Y-110827111D01*
X166702734Y-110715851D01*
X166702729Y-110715848D01*
X166529807Y-110638857D01*
X166529802Y-110638855D01*
X166384000Y-110607865D01*
X166344646Y-110599500D01*
X166155354Y-110599500D01*
X166122897Y-110606398D01*
X165970197Y-110638855D01*
X165970192Y-110638857D01*
X165797270Y-110715848D01*
X165797265Y-110715851D01*
X165644129Y-110827111D01*
X165517466Y-110967785D01*
X165422821Y-111131715D01*
X165422818Y-111131722D01*
X165364327Y-111311740D01*
X165364326Y-111311744D01*
X165344540Y-111500000D01*
X160762911Y-111500000D01*
X160827179Y-111388684D01*
X160885674Y-111208656D01*
X160905460Y-111020400D01*
X160885674Y-110832144D01*
X160827179Y-110652116D01*
X160732533Y-110488184D01*
X160605871Y-110347512D01*
X160605870Y-110347511D01*
X160452734Y-110236251D01*
X160452729Y-110236248D01*
X160279807Y-110159257D01*
X160279802Y-110159255D01*
X160134000Y-110128265D01*
X160094646Y-110119900D01*
X159905354Y-110119900D01*
X159872897Y-110126798D01*
X159720197Y-110159255D01*
X159720192Y-110159257D01*
X159547270Y-110236248D01*
X159547265Y-110236251D01*
X159394129Y-110347511D01*
X159267466Y-110488185D01*
X159172821Y-110652115D01*
X159172818Y-110652122D01*
X159115961Y-110827111D01*
X159114326Y-110832144D01*
X159094540Y-111020400D01*
X120250500Y-111020400D01*
X120250500Y-108500000D01*
X144344540Y-108500000D01*
X144364326Y-108688256D01*
X144364327Y-108688259D01*
X144422818Y-108868277D01*
X144422821Y-108868284D01*
X144517467Y-109032216D01*
X144644128Y-109172887D01*
X144644129Y-109172888D01*
X144797265Y-109284148D01*
X144797270Y-109284151D01*
X144970192Y-109361142D01*
X144970197Y-109361144D01*
X145155354Y-109400500D01*
X145155355Y-109400500D01*
X145344644Y-109400500D01*
X145344646Y-109400500D01*
X145529803Y-109361144D01*
X145702730Y-109284151D01*
X145855871Y-109172888D01*
X145982533Y-109032216D01*
X146077179Y-108868284D01*
X146135674Y-108688256D01*
X146155460Y-108500000D01*
X146135674Y-108311744D01*
X146077179Y-108131716D01*
X145982533Y-107967784D01*
X145855871Y-107827112D01*
X145834719Y-107811744D01*
X145702734Y-107715851D01*
X145702729Y-107715848D01*
X145529807Y-107638857D01*
X145529802Y-107638855D01*
X145384000Y-107607865D01*
X145344646Y-107599500D01*
X145155354Y-107599500D01*
X145122897Y-107606398D01*
X144970197Y-107638855D01*
X144970192Y-107638857D01*
X144797270Y-107715848D01*
X144797265Y-107715851D01*
X144644129Y-107827111D01*
X144517466Y-107967785D01*
X144422821Y-108131715D01*
X144422818Y-108131722D01*
X144364327Y-108311740D01*
X144364326Y-108311744D01*
X144344540Y-108500000D01*
X120250500Y-108500000D01*
X120250500Y-107500000D01*
X134594540Y-107500000D01*
X134614326Y-107688256D01*
X134614327Y-107688259D01*
X134672818Y-107868277D01*
X134672821Y-107868284D01*
X134767467Y-108032216D01*
X134863487Y-108138857D01*
X134894129Y-108172888D01*
X135047265Y-108284148D01*
X135047270Y-108284151D01*
X135220192Y-108361142D01*
X135220197Y-108361144D01*
X135405354Y-108400500D01*
X135405355Y-108400500D01*
X135594644Y-108400500D01*
X135594646Y-108400500D01*
X135779803Y-108361144D01*
X135952730Y-108284151D01*
X136105871Y-108172888D01*
X136232533Y-108032216D01*
X136327179Y-107868284D01*
X136385674Y-107688256D01*
X136405460Y-107500000D01*
X136385674Y-107311744D01*
X136327179Y-107131716D01*
X136251133Y-107000000D01*
X156344540Y-107000000D01*
X156364326Y-107188256D01*
X156364327Y-107188259D01*
X156422818Y-107368277D01*
X156422821Y-107368284D01*
X156517467Y-107532216D01*
X156613487Y-107638857D01*
X156644129Y-107672888D01*
X156797265Y-107784148D01*
X156797270Y-107784151D01*
X156970192Y-107861142D01*
X156970197Y-107861144D01*
X157155354Y-107900500D01*
X157155355Y-107900500D01*
X157344644Y-107900500D01*
X157344646Y-107900500D01*
X157529803Y-107861144D01*
X157702730Y-107784151D01*
X157855871Y-107672888D01*
X157982533Y-107532216D01*
X158077179Y-107368284D01*
X158135674Y-107188256D01*
X158155460Y-107000000D01*
X158135674Y-106811744D01*
X158115612Y-106750000D01*
X161094540Y-106750000D01*
X161114326Y-106938256D01*
X161114327Y-106938259D01*
X161172818Y-107118277D01*
X161172821Y-107118284D01*
X161267467Y-107282216D01*
X161394128Y-107422888D01*
X161394129Y-107422888D01*
X161547265Y-107534148D01*
X161547270Y-107534151D01*
X161720192Y-107611142D01*
X161720197Y-107611144D01*
X161905354Y-107650500D01*
X161905355Y-107650500D01*
X162094644Y-107650500D01*
X162094646Y-107650500D01*
X162279803Y-107611144D01*
X162452730Y-107534151D01*
X162605871Y-107422888D01*
X162732533Y-107282216D01*
X162827179Y-107118284D01*
X162882068Y-106949351D01*
X162921506Y-106891675D01*
X162985865Y-106864477D01*
X163054711Y-106876392D01*
X163106187Y-106923636D01*
X163117931Y-106949351D01*
X163172818Y-107118277D01*
X163172821Y-107118284D01*
X163267467Y-107282216D01*
X163394129Y-107422888D01*
X163547265Y-107534148D01*
X163547268Y-107534150D01*
X163547269Y-107534150D01*
X163547270Y-107534151D01*
X163582650Y-107549903D01*
X163635887Y-107595151D01*
X163656209Y-107662000D01*
X163650146Y-107701500D01*
X163614327Y-107811740D01*
X163614326Y-107811744D01*
X163594540Y-108000000D01*
X163614326Y-108188256D01*
X163614327Y-108188259D01*
X163672818Y-108368277D01*
X163672821Y-108368284D01*
X163767467Y-108532216D01*
X163857063Y-108631722D01*
X163894129Y-108672888D01*
X164047265Y-108784148D01*
X164047270Y-108784151D01*
X164220192Y-108861142D01*
X164220197Y-108861144D01*
X164405354Y-108900500D01*
X164405355Y-108900500D01*
X164472432Y-108900500D01*
X164539471Y-108920185D01*
X164585226Y-108972989D01*
X164595752Y-109011535D01*
X164614326Y-109188256D01*
X164614327Y-109188259D01*
X164672818Y-109368277D01*
X164672821Y-109368284D01*
X164767467Y-109532216D01*
X164894129Y-109672888D01*
X165047265Y-109784148D01*
X165047270Y-109784151D01*
X165220192Y-109861142D01*
X165220197Y-109861144D01*
X165405354Y-109900500D01*
X165405355Y-109900500D01*
X165594644Y-109900500D01*
X165594646Y-109900500D01*
X165779803Y-109861144D01*
X165952730Y-109784151D01*
X166105871Y-109672888D01*
X166232533Y-109532216D01*
X166327179Y-109368284D01*
X166385674Y-109188256D01*
X166405460Y-109000000D01*
X166385674Y-108811744D01*
X166327179Y-108631716D01*
X166232533Y-108467784D01*
X166105871Y-108327112D01*
X166084719Y-108311744D01*
X165952734Y-108215851D01*
X165952729Y-108215848D01*
X165779807Y-108138857D01*
X165779802Y-108138855D01*
X165634000Y-108107865D01*
X165594646Y-108099500D01*
X165527568Y-108099500D01*
X165460529Y-108079815D01*
X165414774Y-108027011D01*
X165404247Y-107988462D01*
X165402074Y-107967784D01*
X165385674Y-107811744D01*
X165327179Y-107631716D01*
X165232533Y-107467784D01*
X165105871Y-107327112D01*
X165084719Y-107311744D01*
X164952734Y-107215851D01*
X164952730Y-107215849D01*
X164917346Y-107200095D01*
X164864111Y-107154846D01*
X164843790Y-107087997D01*
X164849852Y-107048503D01*
X164885674Y-106938256D01*
X164905460Y-106750000D01*
X164885674Y-106561744D01*
X164827179Y-106381716D01*
X164732533Y-106217784D01*
X164605871Y-106077112D01*
X164605870Y-106077111D01*
X164452734Y-105965851D01*
X164452729Y-105965848D01*
X164279807Y-105888857D01*
X164279802Y-105888855D01*
X164134001Y-105857865D01*
X164094646Y-105849500D01*
X163905354Y-105849500D01*
X163872897Y-105856398D01*
X163720197Y-105888855D01*
X163720192Y-105888857D01*
X163547270Y-105965848D01*
X163547265Y-105965851D01*
X163394129Y-106077111D01*
X163267466Y-106217785D01*
X163172821Y-106381715D01*
X163172818Y-106381722D01*
X163117931Y-106550648D01*
X163078493Y-106608324D01*
X163014135Y-106635522D01*
X162945288Y-106623607D01*
X162893813Y-106576363D01*
X162882069Y-106550648D01*
X162827181Y-106381722D01*
X162827180Y-106381721D01*
X162827179Y-106381716D01*
X162732533Y-106217784D01*
X162605871Y-106077112D01*
X162605870Y-106077111D01*
X162452734Y-105965851D01*
X162452729Y-105965848D01*
X162279807Y-105888857D01*
X162279802Y-105888855D01*
X162134001Y-105857865D01*
X162094646Y-105849500D01*
X161905354Y-105849500D01*
X161872897Y-105856398D01*
X161720197Y-105888855D01*
X161720192Y-105888857D01*
X161547270Y-105965848D01*
X161547265Y-105965851D01*
X161394129Y-106077111D01*
X161267466Y-106217785D01*
X161172821Y-106381715D01*
X161172818Y-106381722D01*
X161144855Y-106467785D01*
X161114326Y-106561744D01*
X161094540Y-106750000D01*
X158115612Y-106750000D01*
X158077179Y-106631716D01*
X157982533Y-106467784D01*
X157861146Y-106332970D01*
X157830917Y-106269981D01*
X157839542Y-106200646D01*
X157861147Y-106167028D01*
X157876029Y-106150500D01*
X157982533Y-106032216D01*
X158077179Y-105868284D01*
X158135674Y-105688256D01*
X158155460Y-105500000D01*
X158135674Y-105311744D01*
X158077179Y-105131716D01*
X157982533Y-104967784D01*
X157855871Y-104827112D01*
X157837521Y-104813780D01*
X157702734Y-104715851D01*
X157702729Y-104715848D01*
X157529807Y-104638857D01*
X157529802Y-104638855D01*
X157384001Y-104607865D01*
X157344646Y-104599500D01*
X157155354Y-104599500D01*
X157122897Y-104606398D01*
X156970197Y-104638855D01*
X156970192Y-104638857D01*
X156797270Y-104715848D01*
X156797265Y-104715851D01*
X156644129Y-104827111D01*
X156517466Y-104967785D01*
X156422821Y-105131715D01*
X156422818Y-105131722D01*
X156365650Y-105307669D01*
X156364326Y-105311744D01*
X156344540Y-105500000D01*
X156364326Y-105688256D01*
X156364327Y-105688259D01*
X156422818Y-105868277D01*
X156422821Y-105868284D01*
X156517467Y-106032216D01*
X156557891Y-106077111D01*
X156638851Y-106167027D01*
X156669081Y-106230019D01*
X156660456Y-106299354D01*
X156638852Y-106332970D01*
X156517466Y-106467785D01*
X156422821Y-106631715D01*
X156422818Y-106631722D01*
X156364327Y-106811740D01*
X156364326Y-106811744D01*
X156344540Y-107000000D01*
X136251133Y-107000000D01*
X136232533Y-106967784D01*
X136105871Y-106827112D01*
X136084719Y-106811744D01*
X135952734Y-106715851D01*
X135952729Y-106715848D01*
X135779807Y-106638857D01*
X135779802Y-106638855D01*
X135634001Y-106607865D01*
X135594646Y-106599500D01*
X135405354Y-106599500D01*
X135372897Y-106606398D01*
X135220197Y-106638855D01*
X135220192Y-106638857D01*
X135047270Y-106715848D01*
X135047265Y-106715851D01*
X134894129Y-106827111D01*
X134767466Y-106967785D01*
X134672821Y-107131715D01*
X134672818Y-107131722D01*
X134623921Y-107282214D01*
X134614326Y-107311744D01*
X134594540Y-107500000D01*
X120250500Y-107500000D01*
X120250500Y-105250000D01*
X129094540Y-105250000D01*
X129114326Y-105438256D01*
X129114327Y-105438259D01*
X129172818Y-105618277D01*
X129172821Y-105618284D01*
X129267467Y-105782216D01*
X129363487Y-105888857D01*
X129394129Y-105922888D01*
X129547265Y-106034148D01*
X129547270Y-106034151D01*
X129720192Y-106111142D01*
X129720197Y-106111144D01*
X129905354Y-106150500D01*
X129905355Y-106150500D01*
X130094644Y-106150500D01*
X130094646Y-106150500D01*
X130279803Y-106111144D01*
X130452730Y-106034151D01*
X130499735Y-106000000D01*
X145594540Y-106000000D01*
X145614326Y-106188256D01*
X145614327Y-106188259D01*
X145672818Y-106368277D01*
X145672821Y-106368284D01*
X145767467Y-106532216D01*
X145863487Y-106638857D01*
X145894129Y-106672888D01*
X146047265Y-106784148D01*
X146047270Y-106784151D01*
X146220192Y-106861142D01*
X146220197Y-106861144D01*
X146405354Y-106900500D01*
X146405355Y-106900500D01*
X146594644Y-106900500D01*
X146594646Y-106900500D01*
X146779803Y-106861144D01*
X146952730Y-106784151D01*
X147105871Y-106672888D01*
X147232533Y-106532216D01*
X147327179Y-106368284D01*
X147385674Y-106188256D01*
X147405460Y-106000000D01*
X147385674Y-105811744D01*
X147327179Y-105631716D01*
X147232533Y-105467784D01*
X147105871Y-105327112D01*
X147084719Y-105311744D01*
X146952734Y-105215851D01*
X146952729Y-105215848D01*
X146779807Y-105138857D01*
X146779802Y-105138855D01*
X146634000Y-105107865D01*
X146594646Y-105099500D01*
X146405354Y-105099500D01*
X146372897Y-105106398D01*
X146220197Y-105138855D01*
X146220192Y-105138857D01*
X146047270Y-105215848D01*
X146047265Y-105215851D01*
X145894129Y-105327111D01*
X145767466Y-105467785D01*
X145672821Y-105631715D01*
X145672818Y-105631722D01*
X145623921Y-105782214D01*
X145614326Y-105811744D01*
X145594540Y-106000000D01*
X130499735Y-106000000D01*
X130605871Y-105922888D01*
X130732533Y-105782216D01*
X130827179Y-105618284D01*
X130885674Y-105438256D01*
X130905460Y-105250000D01*
X130885674Y-105061744D01*
X130827179Y-104881716D01*
X130732533Y-104717784D01*
X130605871Y-104577112D01*
X130605870Y-104577111D01*
X130452734Y-104465851D01*
X130452729Y-104465848D01*
X130279807Y-104388857D01*
X130279802Y-104388855D01*
X130134001Y-104357865D01*
X130094646Y-104349500D01*
X129905354Y-104349500D01*
X129872897Y-104356398D01*
X129720197Y-104388855D01*
X129720192Y-104388857D01*
X129547270Y-104465848D01*
X129547265Y-104465851D01*
X129394129Y-104577111D01*
X129267466Y-104717785D01*
X129172821Y-104881715D01*
X129172818Y-104881722D01*
X129118304Y-105049500D01*
X129114326Y-105061744D01*
X129094540Y-105250000D01*
X120250500Y-105250000D01*
X120250500Y-103250004D01*
X167344732Y-103250004D01*
X167363777Y-103504154D01*
X167363778Y-103504157D01*
X167420492Y-103752637D01*
X167513607Y-103989888D01*
X167641041Y-104210612D01*
X167799950Y-104409877D01*
X167986783Y-104583232D01*
X168197366Y-104726805D01*
X168197371Y-104726807D01*
X168197372Y-104726808D01*
X168197373Y-104726809D01*
X168322126Y-104786886D01*
X168377972Y-104813780D01*
X168429832Y-104860602D01*
X168448145Y-104928029D01*
X168427097Y-104994653D01*
X168373371Y-105039321D01*
X168324171Y-105049500D01*
X167802129Y-105049500D01*
X167802123Y-105049501D01*
X167742516Y-105055908D01*
X167607671Y-105106202D01*
X167607664Y-105106206D01*
X167492455Y-105192452D01*
X167492452Y-105192455D01*
X167406206Y-105307664D01*
X167406202Y-105307671D01*
X167355908Y-105442517D01*
X167349501Y-105502116D01*
X167349501Y-105502123D01*
X167349500Y-105502135D01*
X167349500Y-107997870D01*
X167349501Y-107997876D01*
X167355908Y-108057483D01*
X167406202Y-108192328D01*
X167406206Y-108192335D01*
X167492452Y-108307544D01*
X167492455Y-108307547D01*
X167607664Y-108393793D01*
X167607671Y-108393797D01*
X167742517Y-108444091D01*
X167742516Y-108444091D01*
X167749444Y-108444835D01*
X167802127Y-108450500D01*
X170297872Y-108450499D01*
X170357483Y-108444091D01*
X170492331Y-108393796D01*
X170607546Y-108307546D01*
X170693796Y-108192331D01*
X170744091Y-108057483D01*
X170750500Y-107997873D01*
X170750499Y-105502128D01*
X170744091Y-105442517D01*
X170701047Y-105327111D01*
X170693797Y-105307671D01*
X170693793Y-105307664D01*
X170607547Y-105192455D01*
X170607544Y-105192452D01*
X170492335Y-105106206D01*
X170492328Y-105106202D01*
X170357482Y-105055908D01*
X170357483Y-105055908D01*
X170297883Y-105049501D01*
X170297881Y-105049500D01*
X170297873Y-105049500D01*
X170297865Y-105049500D01*
X169775829Y-105049500D01*
X169708790Y-105029815D01*
X169663035Y-104977011D01*
X169653091Y-104907853D01*
X169682116Y-104844297D01*
X169722027Y-104813780D01*
X169902634Y-104726805D01*
X170113217Y-104583232D01*
X170300050Y-104409877D01*
X170458959Y-104210612D01*
X170586393Y-103989888D01*
X170679508Y-103752637D01*
X170736222Y-103504157D01*
X170755268Y-103250000D01*
X170736222Y-102995843D01*
X170679508Y-102747363D01*
X170586393Y-102510112D01*
X170458959Y-102289388D01*
X170300050Y-102090123D01*
X170113217Y-101916768D01*
X169902634Y-101773195D01*
X169902630Y-101773193D01*
X169902627Y-101773191D01*
X169902626Y-101773190D01*
X169673006Y-101662612D01*
X169673008Y-101662612D01*
X169429466Y-101587489D01*
X169429462Y-101587488D01*
X169429458Y-101587487D01*
X169308231Y-101569214D01*
X169177440Y-101549500D01*
X169177435Y-101549500D01*
X168922565Y-101549500D01*
X168922559Y-101549500D01*
X168765609Y-101573157D01*
X168670542Y-101587487D01*
X168670538Y-101587488D01*
X168670539Y-101587488D01*
X168670533Y-101587489D01*
X168426992Y-101662612D01*
X168197373Y-101773190D01*
X168197372Y-101773191D01*
X168197366Y-101773194D01*
X168197366Y-101773195D01*
X168172639Y-101790053D01*
X167986782Y-101916768D01*
X167799952Y-102090121D01*
X167799950Y-102090123D01*
X167641041Y-102289388D01*
X167513608Y-102510109D01*
X167420492Y-102747362D01*
X167420490Y-102747369D01*
X167363777Y-102995845D01*
X167344732Y-103249995D01*
X167344732Y-103250004D01*
X120250500Y-103250004D01*
X120250500Y-102000000D01*
X162594540Y-102000000D01*
X162614326Y-102188256D01*
X162614327Y-102188259D01*
X162672818Y-102368277D01*
X162672821Y-102368284D01*
X162767467Y-102532216D01*
X162894128Y-102672888D01*
X162894129Y-102672888D01*
X163047265Y-102784148D01*
X163047270Y-102784151D01*
X163220192Y-102861142D01*
X163220197Y-102861144D01*
X163405354Y-102900500D01*
X163405355Y-102900500D01*
X163594644Y-102900500D01*
X163594646Y-102900500D01*
X163779803Y-102861144D01*
X163952730Y-102784151D01*
X164105871Y-102672888D01*
X164157851Y-102615158D01*
X164217336Y-102578510D01*
X164287193Y-102579840D01*
X164342148Y-102615158D01*
X164394129Y-102672888D01*
X164547265Y-102784148D01*
X164547270Y-102784151D01*
X164720192Y-102861142D01*
X164720197Y-102861144D01*
X164905354Y-102900500D01*
X164905355Y-102900500D01*
X165094644Y-102900500D01*
X165094646Y-102900500D01*
X165279803Y-102861144D01*
X165452730Y-102784151D01*
X165605871Y-102672888D01*
X165732533Y-102532216D01*
X165827179Y-102368284D01*
X165885674Y-102188256D01*
X165905460Y-102000000D01*
X165885674Y-101811744D01*
X165827179Y-101631716D01*
X165732533Y-101467784D01*
X165605871Y-101327112D01*
X165605867Y-101327109D01*
X165452734Y-101215851D01*
X165452729Y-101215848D01*
X165279807Y-101138857D01*
X165279802Y-101138855D01*
X165134000Y-101107865D01*
X165094646Y-101099500D01*
X164905354Y-101099500D01*
X164872897Y-101106398D01*
X164720197Y-101138855D01*
X164720192Y-101138857D01*
X164547270Y-101215848D01*
X164547265Y-101215851D01*
X164394132Y-101327109D01*
X164394129Y-101327111D01*
X164394129Y-101327112D01*
X164342148Y-101384841D01*
X164282663Y-101421489D01*
X164212806Y-101420158D01*
X164157851Y-101384841D01*
X164105871Y-101327112D01*
X164105867Y-101327109D01*
X163952734Y-101215851D01*
X163952729Y-101215848D01*
X163779807Y-101138857D01*
X163779802Y-101138855D01*
X163634001Y-101107865D01*
X163594646Y-101099500D01*
X163405354Y-101099500D01*
X163372897Y-101106398D01*
X163220197Y-101138855D01*
X163220192Y-101138857D01*
X163047270Y-101215848D01*
X163047265Y-101215851D01*
X162894129Y-101327111D01*
X162767466Y-101467785D01*
X162672821Y-101631715D01*
X162672818Y-101631722D01*
X162614327Y-101811740D01*
X162614326Y-101811744D01*
X162594540Y-102000000D01*
X120250500Y-102000000D01*
X120250500Y-99250000D01*
X125844540Y-99250000D01*
X125864326Y-99438256D01*
X125864327Y-99438259D01*
X125922818Y-99618277D01*
X125922821Y-99618284D01*
X126017467Y-99782216D01*
X126057891Y-99827111D01*
X126144129Y-99922888D01*
X126297265Y-100034148D01*
X126297270Y-100034151D01*
X126470192Y-100111142D01*
X126470197Y-100111144D01*
X126655354Y-100150500D01*
X126655355Y-100150500D01*
X126844644Y-100150500D01*
X126844646Y-100150500D01*
X126972723Y-100123276D01*
X127036160Y-100109793D01*
X127036408Y-100110964D01*
X127099612Y-100109158D01*
X127159445Y-100145238D01*
X127190274Y-100207939D01*
X127182310Y-100277353D01*
X127147519Y-100321166D01*
X127148958Y-100322764D01*
X127144129Y-100327111D01*
X127017466Y-100467785D01*
X126922821Y-100631715D01*
X126922818Y-100631722D01*
X126864327Y-100811740D01*
X126864326Y-100811744D01*
X126844540Y-101000000D01*
X126864326Y-101188256D01*
X126864327Y-101188259D01*
X126922818Y-101368277D01*
X126922821Y-101368284D01*
X127017467Y-101532216D01*
X127107063Y-101631722D01*
X127144129Y-101672888D01*
X127297265Y-101784148D01*
X127297270Y-101784151D01*
X127470192Y-101861142D01*
X127470197Y-101861144D01*
X127655354Y-101900500D01*
X127655355Y-101900500D01*
X127844644Y-101900500D01*
X127844646Y-101900500D01*
X128029803Y-101861144D01*
X128202730Y-101784151D01*
X128355871Y-101672888D01*
X128482533Y-101532216D01*
X128577179Y-101368284D01*
X128635674Y-101188256D01*
X128655460Y-101000000D01*
X128635674Y-100811744D01*
X128577179Y-100631716D01*
X128501133Y-100500000D01*
X130094540Y-100500000D01*
X130114326Y-100688256D01*
X130114327Y-100688259D01*
X130172818Y-100868277D01*
X130172821Y-100868284D01*
X130267467Y-101032216D01*
X130363487Y-101138857D01*
X130394129Y-101172888D01*
X130547265Y-101284148D01*
X130547270Y-101284151D01*
X130720192Y-101361142D01*
X130720197Y-101361144D01*
X130905354Y-101400500D01*
X130905355Y-101400500D01*
X131094644Y-101400500D01*
X131094646Y-101400500D01*
X131279803Y-101361144D01*
X131452730Y-101284151D01*
X131552116Y-101211942D01*
X131617919Y-101188464D01*
X131685973Y-101204289D01*
X131697884Y-101211944D01*
X131797265Y-101284148D01*
X131797270Y-101284151D01*
X131970192Y-101361142D01*
X131970197Y-101361144D01*
X132155354Y-101400500D01*
X132155355Y-101400500D01*
X132344644Y-101400500D01*
X132344646Y-101400500D01*
X132529803Y-101361144D01*
X132702730Y-101284151D01*
X132855871Y-101172888D01*
X132982533Y-101032216D01*
X133077179Y-100868284D01*
X133135674Y-100688256D01*
X133155460Y-100500000D01*
X133135674Y-100311744D01*
X133077179Y-100131716D01*
X132982533Y-99967784D01*
X132855871Y-99827112D01*
X132855870Y-99827111D01*
X132702734Y-99715851D01*
X132702729Y-99715848D01*
X132529807Y-99638857D01*
X132529802Y-99638855D01*
X132384000Y-99607865D01*
X132344646Y-99599500D01*
X132155354Y-99599500D01*
X132122897Y-99606398D01*
X131970197Y-99638855D01*
X131970192Y-99638857D01*
X131797270Y-99715848D01*
X131797266Y-99715850D01*
X131697883Y-99788056D01*
X131632077Y-99811535D01*
X131564023Y-99795709D01*
X131552114Y-99788055D01*
X131452734Y-99715851D01*
X131452729Y-99715848D01*
X131279807Y-99638857D01*
X131279802Y-99638855D01*
X131134000Y-99607865D01*
X131094646Y-99599500D01*
X130905354Y-99599500D01*
X130872897Y-99606398D01*
X130720197Y-99638855D01*
X130720192Y-99638857D01*
X130547270Y-99715848D01*
X130547265Y-99715851D01*
X130394129Y-99827111D01*
X130267466Y-99967785D01*
X130172821Y-100131715D01*
X130172818Y-100131722D01*
X130125500Y-100277353D01*
X130114326Y-100311744D01*
X130094540Y-100500000D01*
X128501133Y-100500000D01*
X128482533Y-100467784D01*
X128355871Y-100327112D01*
X128355870Y-100327111D01*
X128202734Y-100215851D01*
X128202729Y-100215848D01*
X128029807Y-100138857D01*
X128029802Y-100138855D01*
X127884001Y-100107865D01*
X127844646Y-100099500D01*
X127655354Y-100099500D01*
X127600573Y-100111144D01*
X127463840Y-100140207D01*
X127463591Y-100139039D01*
X127400364Y-100140834D01*
X127340538Y-100104743D01*
X127309721Y-100042036D01*
X127317699Y-99972623D01*
X127352488Y-99928842D01*
X127351042Y-99927236D01*
X127355865Y-99922891D01*
X127355871Y-99922888D01*
X127482533Y-99782216D01*
X127577179Y-99618284D01*
X127635674Y-99438256D01*
X127655460Y-99250000D01*
X127635674Y-99061744D01*
X127577179Y-98881716D01*
X127482533Y-98717784D01*
X127355871Y-98577112D01*
X127355870Y-98577111D01*
X127202734Y-98465851D01*
X127202729Y-98465848D01*
X127029807Y-98388857D01*
X127029802Y-98388855D01*
X126884001Y-98357865D01*
X126844646Y-98349500D01*
X126655354Y-98349500D01*
X126622897Y-98356398D01*
X126470197Y-98388855D01*
X126470192Y-98388857D01*
X126297270Y-98465848D01*
X126297265Y-98465851D01*
X126144129Y-98577111D01*
X126017466Y-98717785D01*
X125922821Y-98881715D01*
X125922818Y-98881722D01*
X125864327Y-99061740D01*
X125864326Y-99061744D01*
X125844540Y-99250000D01*
X120250500Y-99250000D01*
X120250500Y-97000000D01*
X130284540Y-97000000D01*
X130304326Y-97188256D01*
X130304327Y-97188259D01*
X130362818Y-97368277D01*
X130362821Y-97368284D01*
X130457467Y-97532216D01*
X130584128Y-97672887D01*
X130584129Y-97672888D01*
X130737265Y-97784148D01*
X130737270Y-97784151D01*
X130910192Y-97861142D01*
X130910197Y-97861144D01*
X131095354Y-97900500D01*
X131095355Y-97900500D01*
X131284644Y-97900500D01*
X131284646Y-97900500D01*
X131469803Y-97861144D01*
X131642730Y-97784151D01*
X131795871Y-97672888D01*
X131922533Y-97532216D01*
X132017179Y-97368284D01*
X132075674Y-97188256D01*
X132095460Y-97000000D01*
X132075674Y-96811744D01*
X132017179Y-96631716D01*
X131922533Y-96467784D01*
X131795871Y-96327112D01*
X131795870Y-96327111D01*
X131642734Y-96215851D01*
X131642729Y-96215848D01*
X131469807Y-96138857D01*
X131469802Y-96138855D01*
X131324000Y-96107865D01*
X131284646Y-96099500D01*
X131095354Y-96099500D01*
X131062897Y-96106398D01*
X130910197Y-96138855D01*
X130910192Y-96138857D01*
X130737270Y-96215848D01*
X130737265Y-96215851D01*
X130584129Y-96327111D01*
X130457466Y-96467785D01*
X130362821Y-96631715D01*
X130362818Y-96631722D01*
X130304327Y-96811740D01*
X130304326Y-96811744D01*
X130284540Y-97000000D01*
X120250500Y-97000000D01*
X120250500Y-96000000D01*
X141344540Y-96000000D01*
X141364326Y-96188256D01*
X141364327Y-96188259D01*
X141422818Y-96368277D01*
X141422821Y-96368284D01*
X141517467Y-96532216D01*
X141607063Y-96631722D01*
X141644129Y-96672888D01*
X141797265Y-96784148D01*
X141797270Y-96784151D01*
X141970192Y-96861142D01*
X141970197Y-96861144D01*
X142155354Y-96900500D01*
X142155355Y-96900500D01*
X142344644Y-96900500D01*
X142344646Y-96900500D01*
X142529803Y-96861144D01*
X142702730Y-96784151D01*
X142855871Y-96672888D01*
X142982533Y-96532216D01*
X143077179Y-96368284D01*
X143135674Y-96188256D01*
X143155460Y-96000000D01*
X143135674Y-95811744D01*
X143077179Y-95631716D01*
X142982533Y-95467784D01*
X142855871Y-95327112D01*
X142855870Y-95327111D01*
X142702734Y-95215851D01*
X142702729Y-95215848D01*
X142529807Y-95138857D01*
X142529802Y-95138855D01*
X142384000Y-95107865D01*
X142344646Y-95099500D01*
X142155354Y-95099500D01*
X142122897Y-95106398D01*
X141970197Y-95138855D01*
X141970192Y-95138857D01*
X141797270Y-95215848D01*
X141797265Y-95215851D01*
X141644129Y-95327111D01*
X141517466Y-95467785D01*
X141422821Y-95631715D01*
X141422818Y-95631722D01*
X141364327Y-95811740D01*
X141364326Y-95811744D01*
X141344540Y-96000000D01*
X120250500Y-96000000D01*
X120250500Y-94250000D01*
X128594540Y-94250000D01*
X128614326Y-94438256D01*
X128614327Y-94438259D01*
X128672818Y-94618277D01*
X128672821Y-94618284D01*
X128767467Y-94782216D01*
X128894129Y-94922888D01*
X129047265Y-95034148D01*
X129047270Y-95034151D01*
X129220192Y-95111142D01*
X129220197Y-95111144D01*
X129405354Y-95150500D01*
X129405355Y-95150500D01*
X129594644Y-95150500D01*
X129594646Y-95150500D01*
X129779803Y-95111144D01*
X129952730Y-95034151D01*
X129999735Y-95000000D01*
X131844540Y-95000000D01*
X131864326Y-95188256D01*
X131864327Y-95188259D01*
X131922818Y-95368277D01*
X131922821Y-95368284D01*
X132017467Y-95532216D01*
X132107063Y-95631722D01*
X132144129Y-95672888D01*
X132297265Y-95784148D01*
X132297270Y-95784151D01*
X132470192Y-95861142D01*
X132470197Y-95861144D01*
X132655354Y-95900500D01*
X132655355Y-95900500D01*
X132844644Y-95900500D01*
X132844646Y-95900500D01*
X133029803Y-95861144D01*
X133202730Y-95784151D01*
X133355871Y-95672888D01*
X133482533Y-95532216D01*
X133577179Y-95368284D01*
X133635674Y-95188256D01*
X133655460Y-95000000D01*
X133635674Y-94811744D01*
X133577179Y-94631716D01*
X133482533Y-94467784D01*
X133355871Y-94327112D01*
X133355870Y-94327111D01*
X133202734Y-94215851D01*
X133202729Y-94215848D01*
X133029807Y-94138857D01*
X133029802Y-94138855D01*
X132884001Y-94107865D01*
X132844646Y-94099500D01*
X132655354Y-94099500D01*
X132622897Y-94106398D01*
X132470197Y-94138855D01*
X132470192Y-94138857D01*
X132297270Y-94215848D01*
X132297265Y-94215851D01*
X132144129Y-94327111D01*
X132017466Y-94467785D01*
X131922821Y-94631715D01*
X131922818Y-94631722D01*
X131873921Y-94782214D01*
X131864326Y-94811744D01*
X131844540Y-95000000D01*
X129999735Y-95000000D01*
X130105871Y-94922888D01*
X130232533Y-94782216D01*
X130327179Y-94618284D01*
X130385674Y-94438256D01*
X130405460Y-94250000D01*
X130385674Y-94061744D01*
X130327179Y-93881716D01*
X130232533Y-93717784D01*
X130105871Y-93577112D01*
X130084719Y-93561744D01*
X129999736Y-93500000D01*
X145844540Y-93500000D01*
X145864326Y-93688256D01*
X145864327Y-93688259D01*
X145922818Y-93868277D01*
X145922821Y-93868284D01*
X146017467Y-94032216D01*
X146113487Y-94138857D01*
X146144129Y-94172888D01*
X146297265Y-94284148D01*
X146297270Y-94284151D01*
X146470192Y-94361142D01*
X146470197Y-94361144D01*
X146655354Y-94400500D01*
X146655355Y-94400500D01*
X146844644Y-94400500D01*
X146844646Y-94400500D01*
X147009073Y-94365550D01*
X147078739Y-94370866D01*
X147127002Y-94403867D01*
X147144127Y-94422886D01*
X147144130Y-94422889D01*
X147297265Y-94534148D01*
X147297270Y-94534151D01*
X147470192Y-94611142D01*
X147470197Y-94611144D01*
X147655354Y-94650500D01*
X147655355Y-94650500D01*
X147844644Y-94650500D01*
X147844646Y-94650500D01*
X148029803Y-94611144D01*
X148202730Y-94534151D01*
X148355871Y-94422888D01*
X148482533Y-94282216D01*
X148577179Y-94118284D01*
X148635674Y-93938256D01*
X148655460Y-93750000D01*
X148637067Y-93575000D01*
X172494538Y-93575000D01*
X172514337Y-93776031D01*
X172572978Y-93969345D01*
X172668198Y-94147488D01*
X172668203Y-94147495D01*
X172796352Y-94303647D01*
X172871782Y-94365550D01*
X172952506Y-94431798D01*
X172952509Y-94431799D01*
X172952511Y-94431801D01*
X173130654Y-94527021D01*
X173130656Y-94527021D01*
X173130659Y-94527023D01*
X173323967Y-94585662D01*
X173474620Y-94600500D01*
X173474623Y-94600500D01*
X174425377Y-94600500D01*
X174425380Y-94600500D01*
X174576033Y-94585662D01*
X174769341Y-94527023D01*
X174947494Y-94431798D01*
X175103647Y-94303647D01*
X175231798Y-94147494D01*
X175327023Y-93969341D01*
X175385662Y-93776033D01*
X175405462Y-93575000D01*
X175385662Y-93373967D01*
X175327023Y-93180659D01*
X175327021Y-93180656D01*
X175327021Y-93180654D01*
X175231801Y-93002511D01*
X175231799Y-93002509D01*
X175231798Y-93002506D01*
X175192824Y-92955016D01*
X175103647Y-92846352D01*
X174947495Y-92718203D01*
X174947488Y-92718198D01*
X174769345Y-92622978D01*
X174576031Y-92564337D01*
X174465900Y-92553490D01*
X174425380Y-92549500D01*
X173474620Y-92549500D01*
X173437433Y-92553162D01*
X173323968Y-92564337D01*
X173130654Y-92622978D01*
X172952511Y-92718198D01*
X172952504Y-92718203D01*
X172796352Y-92846352D01*
X172668203Y-93002504D01*
X172668198Y-93002511D01*
X172572978Y-93180654D01*
X172514337Y-93373968D01*
X172494538Y-93575000D01*
X148637067Y-93575000D01*
X148635674Y-93561744D01*
X148577179Y-93381716D01*
X148482533Y-93217784D01*
X148355871Y-93077112D01*
X148355870Y-93077111D01*
X148202734Y-92965851D01*
X148202729Y-92965848D01*
X148029807Y-92888857D01*
X148029802Y-92888855D01*
X147884001Y-92857865D01*
X147844646Y-92849500D01*
X147655354Y-92849500D01*
X147655352Y-92849500D01*
X147490926Y-92884449D01*
X147421259Y-92879133D01*
X147372997Y-92846133D01*
X147355871Y-92827112D01*
X147355870Y-92827111D01*
X147355868Y-92827109D01*
X147202734Y-92715851D01*
X147202729Y-92715848D01*
X147029807Y-92638857D01*
X147029802Y-92638855D01*
X146884001Y-92607865D01*
X146844646Y-92599500D01*
X146655354Y-92599500D01*
X146622897Y-92606398D01*
X146470197Y-92638855D01*
X146470192Y-92638857D01*
X146297270Y-92715848D01*
X146297265Y-92715851D01*
X146144129Y-92827111D01*
X146017466Y-92967785D01*
X145922821Y-93131715D01*
X145922818Y-93131722D01*
X145894855Y-93217785D01*
X145864326Y-93311744D01*
X145844540Y-93500000D01*
X129999736Y-93500000D01*
X129952734Y-93465851D01*
X129952729Y-93465848D01*
X129779807Y-93388857D01*
X129779802Y-93388855D01*
X129634001Y-93357865D01*
X129594646Y-93349500D01*
X129405354Y-93349500D01*
X129372897Y-93356398D01*
X129220197Y-93388855D01*
X129220192Y-93388857D01*
X129047270Y-93465848D01*
X129047265Y-93465851D01*
X128894129Y-93577111D01*
X128767466Y-93717785D01*
X128672821Y-93881715D01*
X128672818Y-93881722D01*
X128644348Y-93969345D01*
X128614326Y-94061744D01*
X128594540Y-94250000D01*
X120250500Y-94250000D01*
X120250500Y-92250000D01*
X124354540Y-92250000D01*
X124374326Y-92438256D01*
X124374327Y-92438259D01*
X124432818Y-92618277D01*
X124432821Y-92618284D01*
X124527467Y-92782216D01*
X124623487Y-92888857D01*
X124654129Y-92922888D01*
X124807265Y-93034148D01*
X124807270Y-93034151D01*
X124980192Y-93111142D01*
X124980197Y-93111144D01*
X125165354Y-93150500D01*
X125165355Y-93150500D01*
X125354644Y-93150500D01*
X125354646Y-93150500D01*
X125539803Y-93111144D01*
X125712730Y-93034151D01*
X125865871Y-92922888D01*
X125992533Y-92782216D01*
X126087179Y-92618284D01*
X126145674Y-92438256D01*
X126165460Y-92250000D01*
X130344540Y-92250000D01*
X130364326Y-92438256D01*
X130364327Y-92438259D01*
X130422818Y-92618277D01*
X130422821Y-92618284D01*
X130517467Y-92782216D01*
X130613487Y-92888857D01*
X130644129Y-92922888D01*
X130797265Y-93034148D01*
X130797270Y-93034151D01*
X130970192Y-93111142D01*
X130970197Y-93111144D01*
X131155354Y-93150500D01*
X131155355Y-93150500D01*
X131344644Y-93150500D01*
X131344646Y-93150500D01*
X131529803Y-93111144D01*
X131702730Y-93034151D01*
X131855871Y-92922888D01*
X131982533Y-92782216D01*
X132077179Y-92618284D01*
X132135674Y-92438256D01*
X132155460Y-92250000D01*
X132135674Y-92061744D01*
X132115612Y-92000000D01*
X136594540Y-92000000D01*
X136614326Y-92188256D01*
X136614327Y-92188259D01*
X136672818Y-92368277D01*
X136672821Y-92368284D01*
X136767467Y-92532216D01*
X136863487Y-92638857D01*
X136894129Y-92672888D01*
X137047265Y-92784148D01*
X137047270Y-92784151D01*
X137220192Y-92861142D01*
X137220197Y-92861144D01*
X137405354Y-92900500D01*
X137405355Y-92900500D01*
X137594644Y-92900500D01*
X137594646Y-92900500D01*
X137779803Y-92861144D01*
X137952730Y-92784151D01*
X138105871Y-92672888D01*
X138232533Y-92532216D01*
X138327179Y-92368284D01*
X138385674Y-92188256D01*
X138405460Y-92000000D01*
X138385674Y-91811744D01*
X138327179Y-91631716D01*
X138232533Y-91467784D01*
X138105871Y-91327112D01*
X138105870Y-91327111D01*
X137952734Y-91215851D01*
X137952729Y-91215848D01*
X137779807Y-91138857D01*
X137779802Y-91138855D01*
X137634000Y-91107865D01*
X137594646Y-91099500D01*
X137405354Y-91099500D01*
X137372897Y-91106398D01*
X137220197Y-91138855D01*
X137220192Y-91138857D01*
X137047270Y-91215848D01*
X137047265Y-91215851D01*
X136894129Y-91327111D01*
X136767466Y-91467785D01*
X136672821Y-91631715D01*
X136672818Y-91631722D01*
X136614327Y-91811740D01*
X136614326Y-91811744D01*
X136594540Y-92000000D01*
X132115612Y-92000000D01*
X132077179Y-91881716D01*
X131982533Y-91717784D01*
X131855871Y-91577112D01*
X131855870Y-91577111D01*
X131702734Y-91465851D01*
X131702729Y-91465848D01*
X131529807Y-91388857D01*
X131529802Y-91388855D01*
X131384000Y-91357865D01*
X131344646Y-91349500D01*
X131155354Y-91349500D01*
X131122897Y-91356398D01*
X130970197Y-91388855D01*
X130970192Y-91388857D01*
X130797270Y-91465848D01*
X130797265Y-91465851D01*
X130644129Y-91577111D01*
X130517466Y-91717785D01*
X130422821Y-91881715D01*
X130422818Y-91881722D01*
X130364327Y-92061740D01*
X130364326Y-92061744D01*
X130344540Y-92250000D01*
X126165460Y-92250000D01*
X126145674Y-92061744D01*
X126087179Y-91881716D01*
X125992533Y-91717784D01*
X125865871Y-91577112D01*
X125865870Y-91577111D01*
X125712734Y-91465851D01*
X125712729Y-91465848D01*
X125539807Y-91388857D01*
X125539802Y-91388855D01*
X125394001Y-91357865D01*
X125354646Y-91349500D01*
X125165354Y-91349500D01*
X125132897Y-91356398D01*
X124980197Y-91388855D01*
X124980192Y-91388857D01*
X124807270Y-91465848D01*
X124807265Y-91465851D01*
X124654129Y-91577111D01*
X124527466Y-91717785D01*
X124432821Y-91881715D01*
X124432818Y-91881722D01*
X124374327Y-92061740D01*
X124374326Y-92061744D01*
X124354540Y-92250000D01*
X120250500Y-92250000D01*
X120250500Y-91585055D01*
X121479500Y-91585055D01*
X121520210Y-91750226D01*
X121599263Y-91900849D01*
X121599266Y-91900852D01*
X121712071Y-92028183D01*
X121802318Y-92090476D01*
X121852068Y-92124817D01*
X121852069Y-92124817D01*
X121852070Y-92124818D01*
X122011128Y-92185140D01*
X122087028Y-92194356D01*
X122137626Y-92200500D01*
X122137628Y-92200500D01*
X122222374Y-92200500D01*
X122264538Y-92195380D01*
X122348872Y-92185140D01*
X122507930Y-92124818D01*
X122647929Y-92028183D01*
X122760734Y-91900852D01*
X122770775Y-91881722D01*
X122839789Y-91750226D01*
X122839790Y-91750225D01*
X122880500Y-91585056D01*
X122880500Y-91414944D01*
X122839790Y-91249775D01*
X122821984Y-91215848D01*
X122760736Y-91099150D01*
X122741560Y-91077505D01*
X122647929Y-90971817D01*
X122598177Y-90937475D01*
X122507931Y-90875182D01*
X122348874Y-90814860D01*
X122348868Y-90814859D01*
X122222374Y-90799500D01*
X122222372Y-90799500D01*
X122137628Y-90799500D01*
X122137626Y-90799500D01*
X122011131Y-90814859D01*
X122011125Y-90814860D01*
X121852068Y-90875182D01*
X121712072Y-90971816D01*
X121599263Y-91099150D01*
X121520210Y-91249773D01*
X121479500Y-91414944D01*
X121479500Y-91585055D01*
X120250500Y-91585055D01*
X120250500Y-90000000D01*
X141344540Y-90000000D01*
X141364326Y-90188256D01*
X141364327Y-90188259D01*
X141422818Y-90368277D01*
X141422821Y-90368284D01*
X141517467Y-90532216D01*
X141644128Y-90672888D01*
X141644129Y-90672888D01*
X141797265Y-90784148D01*
X141797270Y-90784151D01*
X141970192Y-90861142D01*
X141970197Y-90861144D01*
X142155354Y-90900500D01*
X142155355Y-90900500D01*
X142344644Y-90900500D01*
X142344646Y-90900500D01*
X142529803Y-90861144D01*
X142702730Y-90784151D01*
X142855871Y-90672888D01*
X142982533Y-90532216D01*
X143077179Y-90368284D01*
X143135674Y-90188256D01*
X143155460Y-90000000D01*
X143135674Y-89811744D01*
X143077179Y-89631716D01*
X142982533Y-89467784D01*
X142855871Y-89327112D01*
X142855870Y-89327111D01*
X142702734Y-89215851D01*
X142702729Y-89215848D01*
X142529807Y-89138857D01*
X142529802Y-89138855D01*
X142384001Y-89107865D01*
X142344646Y-89099500D01*
X142155354Y-89099500D01*
X142122897Y-89106398D01*
X141970197Y-89138855D01*
X141970192Y-89138857D01*
X141797270Y-89215848D01*
X141797265Y-89215851D01*
X141644129Y-89327111D01*
X141517466Y-89467785D01*
X141422821Y-89631715D01*
X141422818Y-89631722D01*
X141364327Y-89811740D01*
X141364326Y-89811744D01*
X141344540Y-90000000D01*
X120250500Y-90000000D01*
X120250500Y-88585055D01*
X121479500Y-88585055D01*
X121520210Y-88750226D01*
X121599263Y-88900849D01*
X121599266Y-88900852D01*
X121712071Y-89028183D01*
X121802318Y-89090476D01*
X121852068Y-89124817D01*
X121852069Y-89124817D01*
X121852070Y-89124818D01*
X122011128Y-89185140D01*
X122087028Y-89194356D01*
X122137626Y-89200500D01*
X122137628Y-89200500D01*
X122222374Y-89200500D01*
X122264538Y-89195380D01*
X122348872Y-89185140D01*
X122507930Y-89124818D01*
X122647929Y-89028183D01*
X122760734Y-88900852D01*
X122785320Y-88854009D01*
X122815591Y-88796332D01*
X122839790Y-88750225D01*
X122880500Y-88585056D01*
X122880500Y-88500000D01*
X166594540Y-88500000D01*
X166614326Y-88688256D01*
X166614327Y-88688259D01*
X166672818Y-88868277D01*
X166672821Y-88868284D01*
X166767467Y-89032216D01*
X166863487Y-89138857D01*
X166894129Y-89172888D01*
X167047265Y-89284148D01*
X167047270Y-89284151D01*
X167220192Y-89361142D01*
X167220197Y-89361144D01*
X167405354Y-89400500D01*
X167405355Y-89400500D01*
X167594644Y-89400500D01*
X167594646Y-89400500D01*
X167779803Y-89361144D01*
X167952730Y-89284151D01*
X168105871Y-89172888D01*
X168232533Y-89032216D01*
X168327179Y-88868284D01*
X168331817Y-88854008D01*
X168371252Y-88796332D01*
X168435609Y-88769132D01*
X168504456Y-88781044D01*
X168541897Y-88809349D01*
X168644129Y-88922888D01*
X168677992Y-88947491D01*
X168797265Y-89034148D01*
X168797270Y-89034151D01*
X168970191Y-89111142D01*
X168970193Y-89111142D01*
X168970197Y-89111144D01*
X169142467Y-89147760D01*
X169203944Y-89180951D01*
X169224069Y-89207049D01*
X169267465Y-89282214D01*
X169394129Y-89422888D01*
X169547265Y-89534148D01*
X169547270Y-89534151D01*
X169720192Y-89611142D01*
X169720197Y-89611144D01*
X169905354Y-89650500D01*
X169905355Y-89650500D01*
X170094644Y-89650500D01*
X170094646Y-89650500D01*
X170279803Y-89611144D01*
X170452730Y-89534151D01*
X170605871Y-89422888D01*
X170732533Y-89282216D01*
X170827179Y-89118284D01*
X170885674Y-88938256D01*
X170905460Y-88750000D01*
X170885674Y-88561744D01*
X170827179Y-88381716D01*
X170786927Y-88311999D01*
X170770454Y-88244101D01*
X170786927Y-88188001D01*
X170827179Y-88118284D01*
X170885674Y-87938256D01*
X170905460Y-87750000D01*
X170885674Y-87561744D01*
X170827179Y-87381716D01*
X170732533Y-87217784D01*
X170605871Y-87077112D01*
X170584719Y-87061744D01*
X170452734Y-86965851D01*
X170452729Y-86965848D01*
X170279807Y-86888857D01*
X170279802Y-86888855D01*
X170138013Y-86858717D01*
X170107535Y-86852239D01*
X170046054Y-86819048D01*
X170025930Y-86792950D01*
X170022945Y-86787780D01*
X169982533Y-86717784D01*
X169855871Y-86577112D01*
X169855870Y-86577111D01*
X169702734Y-86465851D01*
X169702729Y-86465848D01*
X169610982Y-86424999D01*
X172494538Y-86424999D01*
X172514337Y-86626031D01*
X172572978Y-86819345D01*
X172668198Y-86997488D01*
X172668203Y-86997495D01*
X172796352Y-87153647D01*
X172905016Y-87242824D01*
X172952506Y-87281798D01*
X172952509Y-87281799D01*
X172952511Y-87281801D01*
X173130654Y-87377021D01*
X173130656Y-87377021D01*
X173130659Y-87377023D01*
X173323967Y-87435662D01*
X173474620Y-87450500D01*
X173474623Y-87450500D01*
X174425377Y-87450500D01*
X174425380Y-87450500D01*
X174576033Y-87435662D01*
X174769341Y-87377023D01*
X174947494Y-87281798D01*
X175103647Y-87153647D01*
X175231798Y-86997494D01*
X175327023Y-86819341D01*
X175385662Y-86626033D01*
X175405462Y-86425000D01*
X175385662Y-86223967D01*
X175327023Y-86030659D01*
X175327021Y-86030656D01*
X175327021Y-86030654D01*
X175231801Y-85852511D01*
X175231799Y-85852509D01*
X175231798Y-85852506D01*
X175192824Y-85805016D01*
X175103647Y-85696352D01*
X174947495Y-85568203D01*
X174947488Y-85568198D01*
X174769345Y-85472978D01*
X174576031Y-85414337D01*
X174465900Y-85403490D01*
X174425380Y-85399500D01*
X173474620Y-85399500D01*
X173437433Y-85403162D01*
X173323968Y-85414337D01*
X173130654Y-85472978D01*
X172952511Y-85568198D01*
X172952504Y-85568203D01*
X172796352Y-85696352D01*
X172668203Y-85852504D01*
X172668198Y-85852511D01*
X172572978Y-86030654D01*
X172514337Y-86223968D01*
X172494538Y-86424999D01*
X169610982Y-86424999D01*
X169529807Y-86388857D01*
X169529802Y-86388855D01*
X169384001Y-86357865D01*
X169344646Y-86349500D01*
X169155354Y-86349500D01*
X169122897Y-86356398D01*
X168970197Y-86388855D01*
X168970192Y-86388857D01*
X168797270Y-86465848D01*
X168797265Y-86465851D01*
X168644129Y-86577111D01*
X168517466Y-86717785D01*
X168422821Y-86881715D01*
X168422818Y-86881722D01*
X168364327Y-87061740D01*
X168364326Y-87061744D01*
X168344540Y-87250000D01*
X168364326Y-87438256D01*
X168364327Y-87438259D01*
X168422818Y-87618277D01*
X168422820Y-87618281D01*
X168422821Y-87618284D01*
X168434699Y-87638857D01*
X168463072Y-87688001D01*
X168479543Y-87755901D01*
X168463072Y-87811998D01*
X168426594Y-87875182D01*
X168422820Y-87881718D01*
X168422818Y-87881723D01*
X168418180Y-87895997D01*
X168378742Y-87953671D01*
X168314382Y-87980868D01*
X168245536Y-87968952D01*
X168208100Y-87940649D01*
X168205948Y-87938259D01*
X168105871Y-87827112D01*
X168085070Y-87811999D01*
X167952734Y-87715851D01*
X167952729Y-87715848D01*
X167779807Y-87638857D01*
X167779802Y-87638855D01*
X167634001Y-87607865D01*
X167594646Y-87599500D01*
X167405354Y-87599500D01*
X167372897Y-87606398D01*
X167220197Y-87638855D01*
X167220192Y-87638857D01*
X167047270Y-87715848D01*
X167047265Y-87715851D01*
X166894129Y-87827111D01*
X166767466Y-87967785D01*
X166672821Y-88131715D01*
X166672818Y-88131722D01*
X166614327Y-88311740D01*
X166614326Y-88311744D01*
X166594540Y-88500000D01*
X122880500Y-88500000D01*
X122880500Y-88414944D01*
X122839790Y-88249775D01*
X122814189Y-88200997D01*
X122760736Y-88099150D01*
X122727597Y-88061744D01*
X122647929Y-87971817D01*
X122538086Y-87895997D01*
X122507931Y-87875182D01*
X122348874Y-87814860D01*
X122348868Y-87814859D01*
X122222374Y-87799500D01*
X122222372Y-87799500D01*
X122137628Y-87799500D01*
X122137626Y-87799500D01*
X122011131Y-87814859D01*
X122011125Y-87814860D01*
X121852068Y-87875182D01*
X121712072Y-87971816D01*
X121599263Y-88099150D01*
X121520210Y-88249773D01*
X121479500Y-88414944D01*
X121479500Y-88585055D01*
X120250500Y-88585055D01*
X120250500Y-79501228D01*
X120250525Y-79500003D01*
X120944661Y-79500003D01*
X120964005Y-79930737D01*
X120964006Y-79930746D01*
X121021885Y-80358027D01*
X121117830Y-80778391D01*
X121251073Y-81188472D01*
X121251076Y-81188480D01*
X121420533Y-81584947D01*
X121420537Y-81584955D01*
X121420539Y-81584958D01*
X121624863Y-81964655D01*
X121624867Y-81964661D01*
X121624867Y-81964662D01*
X121862394Y-82324501D01*
X121862404Y-82324514D01*
X122131225Y-82661607D01*
X122131235Y-82661618D01*
X122131236Y-82661619D01*
X122429210Y-82973274D01*
X122753920Y-83256965D01*
X123102753Y-83510407D01*
X123472900Y-83731560D01*
X123472903Y-83731561D01*
X123472904Y-83731562D01*
X123472906Y-83731563D01*
X123861372Y-83918639D01*
X123861386Y-83918645D01*
X124265055Y-84070144D01*
X124265059Y-84070145D01*
X124265069Y-84070149D01*
X124680711Y-84184859D01*
X125104964Y-84261850D01*
X125534409Y-84300500D01*
X125534416Y-84300500D01*
X125965584Y-84300500D01*
X125965591Y-84300500D01*
X126395036Y-84261850D01*
X126819289Y-84184859D01*
X127234931Y-84070149D01*
X127638619Y-83918643D01*
X128027100Y-83731560D01*
X128397247Y-83510407D01*
X128746080Y-83256965D01*
X129070790Y-82973274D01*
X129368764Y-82661619D01*
X129637601Y-82324507D01*
X129875137Y-81964655D01*
X130079461Y-81584958D01*
X130248926Y-81188475D01*
X130382168Y-80778397D01*
X130478115Y-80358026D01*
X130493129Y-80247192D01*
X136224500Y-80247192D01*
X136239326Y-80388256D01*
X136239327Y-80388259D01*
X136297818Y-80568277D01*
X136297821Y-80568284D01*
X136392467Y-80732216D01*
X136434049Y-80778397D01*
X136519129Y-80872888D01*
X136672265Y-80984148D01*
X136672270Y-80984151D01*
X136845192Y-81061142D01*
X136845197Y-81061144D01*
X137030354Y-81100500D01*
X137030355Y-81100500D01*
X137219644Y-81100500D01*
X137219646Y-81100500D01*
X137404803Y-81061144D01*
X137577730Y-80984151D01*
X137677114Y-80911944D01*
X137742921Y-80888464D01*
X137810975Y-80904289D01*
X137822885Y-80911944D01*
X137922265Y-80984148D01*
X137922270Y-80984151D01*
X138095192Y-81061142D01*
X138095197Y-81061144D01*
X138280354Y-81100500D01*
X138280355Y-81100500D01*
X138469644Y-81100500D01*
X138469646Y-81100500D01*
X138654803Y-81061144D01*
X138827730Y-80984151D01*
X138927114Y-80911944D01*
X138992921Y-80888464D01*
X139060975Y-80904289D01*
X139072885Y-80911944D01*
X139172265Y-80984148D01*
X139172270Y-80984151D01*
X139345192Y-81061142D01*
X139345197Y-81061144D01*
X139530354Y-81100500D01*
X139530355Y-81100500D01*
X139719644Y-81100500D01*
X139719646Y-81100500D01*
X139904803Y-81061144D01*
X140077730Y-80984151D01*
X140106734Y-80963078D01*
X140172541Y-80939597D01*
X140240595Y-80955422D01*
X140243771Y-80957278D01*
X140385604Y-81043019D01*
X140385603Y-81043019D01*
X140499999Y-81078666D01*
X140500000Y-81078666D01*
X140500000Y-80440746D01*
X140506068Y-80402430D01*
X140510674Y-80388256D01*
X140517322Y-80325000D01*
X141250000Y-80325000D01*
X141250000Y-81078666D01*
X141364395Y-81043019D01*
X141509877Y-80955072D01*
X141630072Y-80834877D01*
X141718019Y-80689395D01*
X141768590Y-80527106D01*
X141775000Y-80456572D01*
X141775000Y-80325000D01*
X141250000Y-80325000D01*
X140517322Y-80325000D01*
X140525500Y-80247192D01*
X140525500Y-79950000D01*
X140620102Y-79950000D01*
X140639505Y-80047545D01*
X140694760Y-80130240D01*
X140777455Y-80185495D01*
X140850376Y-80200000D01*
X140899624Y-80200000D01*
X140972545Y-80185495D01*
X141055240Y-80130240D01*
X141110495Y-80047545D01*
X141129898Y-79950000D01*
X141110495Y-79852455D01*
X141055240Y-79769760D01*
X140972545Y-79714505D01*
X140899624Y-79700000D01*
X140850376Y-79700000D01*
X140777455Y-79714505D01*
X140694760Y-79769760D01*
X140639505Y-79852455D01*
X140620102Y-79950000D01*
X140525500Y-79950000D01*
X140525500Y-79652808D01*
X140510674Y-79511744D01*
X140506069Y-79497571D01*
X140500000Y-79459253D01*
X140500000Y-78821333D01*
X140499999Y-78821332D01*
X141250000Y-78821332D01*
X141250000Y-79575000D01*
X141774999Y-79575000D01*
X141774999Y-79500000D01*
X158594540Y-79500000D01*
X158614326Y-79688256D01*
X158614327Y-79688259D01*
X158672818Y-79868277D01*
X158672821Y-79868284D01*
X158767467Y-80032216D01*
X158894128Y-80172887D01*
X158894129Y-80172888D01*
X159047265Y-80284148D01*
X159047270Y-80284151D01*
X159220192Y-80361142D01*
X159220197Y-80361144D01*
X159405354Y-80400500D01*
X159405355Y-80400500D01*
X159594644Y-80400500D01*
X159594646Y-80400500D01*
X159779803Y-80361144D01*
X159952730Y-80284151D01*
X160105871Y-80172888D01*
X160232533Y-80032216D01*
X160327179Y-79868284D01*
X160385674Y-79688256D01*
X160405460Y-79500003D01*
X165944660Y-79500003D01*
X165964005Y-79930737D01*
X165964006Y-79930746D01*
X166021885Y-80358027D01*
X166117830Y-80778391D01*
X166251073Y-81188472D01*
X166251076Y-81188480D01*
X166420533Y-81584947D01*
X166420537Y-81584955D01*
X166420539Y-81584958D01*
X166624863Y-81964655D01*
X166624867Y-81964661D01*
X166624867Y-81964662D01*
X166862394Y-82324501D01*
X166862404Y-82324514D01*
X167131225Y-82661607D01*
X167131235Y-82661618D01*
X167131236Y-82661619D01*
X167429210Y-82973274D01*
X167753920Y-83256965D01*
X168102753Y-83510407D01*
X168472900Y-83731560D01*
X168472903Y-83731561D01*
X168472904Y-83731562D01*
X168472906Y-83731563D01*
X168861372Y-83918639D01*
X168861386Y-83918645D01*
X169265055Y-84070144D01*
X169265059Y-84070145D01*
X169265069Y-84070149D01*
X169680711Y-84184859D01*
X170104964Y-84261850D01*
X170534409Y-84300500D01*
X170534416Y-84300500D01*
X170965584Y-84300500D01*
X170965591Y-84300500D01*
X171395036Y-84261850D01*
X171819289Y-84184859D01*
X172234931Y-84070149D01*
X172638619Y-83918643D01*
X173027100Y-83731560D01*
X173397247Y-83510407D01*
X173746080Y-83256965D01*
X174070790Y-82973274D01*
X174368764Y-82661619D01*
X174637601Y-82324507D01*
X174875137Y-81964655D01*
X175079461Y-81584958D01*
X175248926Y-81188475D01*
X175382168Y-80778397D01*
X175478115Y-80358026D01*
X175535994Y-79930747D01*
X175555339Y-79500000D01*
X175555281Y-79498718D01*
X175540419Y-79167784D01*
X175535994Y-79069253D01*
X175478115Y-78641974D01*
X175382168Y-78221603D01*
X175248926Y-77811525D01*
X175185376Y-77662843D01*
X175079466Y-77415052D01*
X175079462Y-77415044D01*
X175012644Y-77290876D01*
X174875137Y-77035345D01*
X174774263Y-76882527D01*
X174637605Y-76675498D01*
X174637595Y-76675485D01*
X174368774Y-76338392D01*
X174368762Y-76338379D01*
X174315064Y-76282216D01*
X174070790Y-76026726D01*
X173746080Y-75743035D01*
X173683807Y-75697791D01*
X173397256Y-75489599D01*
X173397251Y-75489596D01*
X173397247Y-75489593D01*
X173027100Y-75268440D01*
X173027095Y-75268437D01*
X173027093Y-75268436D01*
X172638627Y-75081360D01*
X172638613Y-75081354D01*
X172234944Y-74929855D01*
X172234919Y-74929847D01*
X171819295Y-74815142D01*
X171395043Y-74738151D01*
X171395040Y-74738150D01*
X171395036Y-74738150D01*
X170965591Y-74699500D01*
X170534409Y-74699500D01*
X170104964Y-74738150D01*
X170104960Y-74738150D01*
X170104956Y-74738151D01*
X169680704Y-74815142D01*
X169265080Y-74929847D01*
X169265055Y-74929855D01*
X168861386Y-75081354D01*
X168861372Y-75081360D01*
X168472906Y-75268436D01*
X168472904Y-75268437D01*
X168102743Y-75489599D01*
X167753931Y-75743026D01*
X167753914Y-75743039D01*
X167429210Y-76026726D01*
X167429205Y-76026730D01*
X167131237Y-76338379D01*
X167131225Y-76338392D01*
X166862404Y-76675485D01*
X166862394Y-76675498D01*
X166624867Y-77035337D01*
X166624867Y-77035338D01*
X166420537Y-77415044D01*
X166420533Y-77415052D01*
X166251076Y-77811519D01*
X166251073Y-77811527D01*
X166117830Y-78221608D01*
X166021885Y-78641972D01*
X165964006Y-79069253D01*
X165964005Y-79069262D01*
X165944660Y-79499996D01*
X165944660Y-79500003D01*
X160405460Y-79500003D01*
X160405460Y-79500000D01*
X160385674Y-79311744D01*
X160327179Y-79131716D01*
X160232533Y-78967784D01*
X160105871Y-78827112D01*
X160097917Y-78821333D01*
X159952734Y-78715851D01*
X159952729Y-78715848D01*
X159779807Y-78638857D01*
X159779802Y-78638855D01*
X159634000Y-78607865D01*
X159594646Y-78599500D01*
X159405354Y-78599500D01*
X159372897Y-78606398D01*
X159220197Y-78638855D01*
X159220192Y-78638857D01*
X159047270Y-78715848D01*
X159047265Y-78715851D01*
X158894129Y-78827111D01*
X158767466Y-78967785D01*
X158672821Y-79131715D01*
X158672818Y-79131722D01*
X158623767Y-79282687D01*
X158614326Y-79311744D01*
X158594540Y-79500000D01*
X141774999Y-79500000D01*
X141774999Y-79443417D01*
X141768591Y-79372897D01*
X141768590Y-79372892D01*
X141718018Y-79210603D01*
X141630072Y-79065122D01*
X141509877Y-78944927D01*
X141364396Y-78856981D01*
X141364394Y-78856980D01*
X141250000Y-78821332D01*
X140499999Y-78821332D01*
X140385605Y-78856980D01*
X140385598Y-78856982D01*
X140243769Y-78942721D01*
X140176214Y-78960557D01*
X140109741Y-78939039D01*
X140106753Y-78936935D01*
X140077730Y-78915849D01*
X140077729Y-78915848D01*
X139904807Y-78838857D01*
X139904802Y-78838855D01*
X139753651Y-78806728D01*
X139719646Y-78799500D01*
X139530354Y-78799500D01*
X139497897Y-78806398D01*
X139345197Y-78838855D01*
X139345192Y-78838857D01*
X139172271Y-78915848D01*
X139072885Y-78988056D01*
X139007078Y-79011535D01*
X138939025Y-78995709D01*
X138927115Y-78988056D01*
X138899213Y-78967784D01*
X138827730Y-78915849D01*
X138827728Y-78915848D01*
X138827729Y-78915848D01*
X138654807Y-78838857D01*
X138654802Y-78838855D01*
X138503651Y-78806728D01*
X138469646Y-78799500D01*
X138280354Y-78799500D01*
X138247897Y-78806398D01*
X138095197Y-78838855D01*
X138095192Y-78838857D01*
X137922271Y-78915848D01*
X137822885Y-78988056D01*
X137757078Y-79011535D01*
X137689025Y-78995709D01*
X137677115Y-78988056D01*
X137649213Y-78967784D01*
X137577730Y-78915849D01*
X137577728Y-78915848D01*
X137577729Y-78915848D01*
X137404807Y-78838857D01*
X137404802Y-78838855D01*
X137253651Y-78806728D01*
X137219646Y-78799500D01*
X137030354Y-78799500D01*
X136997897Y-78806398D01*
X136845197Y-78838855D01*
X136845192Y-78838857D01*
X136672270Y-78915848D01*
X136672265Y-78915851D01*
X136519129Y-79027111D01*
X136392466Y-79167785D01*
X136297821Y-79331715D01*
X136297818Y-79331722D01*
X136256381Y-79459253D01*
X136239326Y-79511744D01*
X136224500Y-79652808D01*
X136224500Y-80247192D01*
X130493129Y-80247192D01*
X130535994Y-79930747D01*
X130555339Y-79500000D01*
X130555281Y-79498718D01*
X130540419Y-79167784D01*
X130535994Y-79069253D01*
X130478115Y-78641974D01*
X130382168Y-78221603D01*
X130248926Y-77811525D01*
X130185376Y-77662843D01*
X130079466Y-77415052D01*
X130079462Y-77415044D01*
X130012644Y-77290876D01*
X129875137Y-77035345D01*
X129774263Y-76882527D01*
X129637605Y-76675498D01*
X129637595Y-76675485D01*
X129368774Y-76338392D01*
X129368762Y-76338379D01*
X129315064Y-76282216D01*
X129070790Y-76026726D01*
X128754052Y-75750000D01*
X149344540Y-75750000D01*
X149364326Y-75938256D01*
X149364327Y-75938259D01*
X149422818Y-76118277D01*
X149422821Y-76118284D01*
X149517467Y-76282216D01*
X149625000Y-76401643D01*
X149644129Y-76422888D01*
X149797265Y-76534148D01*
X149797270Y-76534151D01*
X149970192Y-76611142D01*
X149970197Y-76611144D01*
X150155354Y-76650500D01*
X150155355Y-76650500D01*
X150344644Y-76650500D01*
X150344646Y-76650500D01*
X150529803Y-76611144D01*
X150702730Y-76534151D01*
X150855871Y-76422888D01*
X150982533Y-76282216D01*
X151077179Y-76118284D01*
X151135674Y-75938256D01*
X151155460Y-75750000D01*
X151844540Y-75750000D01*
X151864326Y-75938256D01*
X151864327Y-75938259D01*
X151922818Y-76118277D01*
X151922821Y-76118284D01*
X152017467Y-76282216D01*
X152125000Y-76401643D01*
X152144129Y-76422888D01*
X152297265Y-76534148D01*
X152297270Y-76534151D01*
X152470192Y-76611142D01*
X152470197Y-76611144D01*
X152655354Y-76650500D01*
X152655355Y-76650500D01*
X152844644Y-76650500D01*
X152844646Y-76650500D01*
X153029803Y-76611144D01*
X153202730Y-76534151D01*
X153302114Y-76461944D01*
X153367921Y-76438464D01*
X153435975Y-76454289D01*
X153447885Y-76461944D01*
X153547265Y-76534148D01*
X153547270Y-76534151D01*
X153720192Y-76611142D01*
X153720197Y-76611144D01*
X153905354Y-76650500D01*
X153905355Y-76650500D01*
X154094644Y-76650500D01*
X154094646Y-76650500D01*
X154279803Y-76611144D01*
X154452730Y-76534151D01*
X154605871Y-76422888D01*
X154732533Y-76282216D01*
X154827179Y-76118284D01*
X154885674Y-75938256D01*
X154905460Y-75750000D01*
X154885674Y-75561744D01*
X154827179Y-75381716D01*
X154732533Y-75217784D01*
X154605871Y-75077112D01*
X154605870Y-75077111D01*
X154452734Y-74965851D01*
X154452729Y-74965848D01*
X154279807Y-74888857D01*
X154279802Y-74888855D01*
X154134001Y-74857865D01*
X154094646Y-74849500D01*
X153905354Y-74849500D01*
X153872897Y-74856398D01*
X153720197Y-74888855D01*
X153720192Y-74888857D01*
X153547271Y-74965848D01*
X153447885Y-75038056D01*
X153382078Y-75061535D01*
X153314025Y-75045709D01*
X153302115Y-75038056D01*
X153276709Y-75019598D01*
X153202730Y-74965849D01*
X153202728Y-74965848D01*
X153202729Y-74965848D01*
X153029807Y-74888857D01*
X153029802Y-74888855D01*
X152884001Y-74857865D01*
X152844646Y-74849500D01*
X152655354Y-74849500D01*
X152622897Y-74856398D01*
X152470197Y-74888855D01*
X152470192Y-74888857D01*
X152297270Y-74965848D01*
X152297265Y-74965851D01*
X152144129Y-75077111D01*
X152017466Y-75217785D01*
X151922821Y-75381715D01*
X151922818Y-75381722D01*
X151899371Y-75453886D01*
X151864326Y-75561744D01*
X151844540Y-75750000D01*
X151155460Y-75750000D01*
X151135674Y-75561744D01*
X151077179Y-75381716D01*
X150982533Y-75217784D01*
X150855871Y-75077112D01*
X150855870Y-75077111D01*
X150702734Y-74965851D01*
X150702729Y-74965848D01*
X150529807Y-74888857D01*
X150529802Y-74888855D01*
X150384001Y-74857865D01*
X150344646Y-74849500D01*
X150155354Y-74849500D01*
X150122897Y-74856398D01*
X149970197Y-74888855D01*
X149970192Y-74888857D01*
X149797270Y-74965848D01*
X149797265Y-74965851D01*
X149644129Y-75077111D01*
X149517466Y-75217785D01*
X149422821Y-75381715D01*
X149422818Y-75381722D01*
X149399371Y-75453886D01*
X149364326Y-75561744D01*
X149344540Y-75750000D01*
X128754052Y-75750000D01*
X128746080Y-75743035D01*
X128683807Y-75697791D01*
X128397256Y-75489599D01*
X128397251Y-75489596D01*
X128397247Y-75489593D01*
X128027100Y-75268440D01*
X128027095Y-75268437D01*
X128027093Y-75268436D01*
X127638627Y-75081360D01*
X127638613Y-75081354D01*
X127234944Y-74929855D01*
X127234919Y-74929847D01*
X126819295Y-74815142D01*
X126395043Y-74738151D01*
X126395040Y-74738150D01*
X126395036Y-74738150D01*
X125965591Y-74699500D01*
X125534409Y-74699500D01*
X125104964Y-74738150D01*
X125104960Y-74738150D01*
X125104956Y-74738151D01*
X124680704Y-74815142D01*
X124265080Y-74929847D01*
X124265055Y-74929855D01*
X123861386Y-75081354D01*
X123861372Y-75081360D01*
X123472906Y-75268436D01*
X123472904Y-75268437D01*
X123102743Y-75489599D01*
X122753931Y-75743026D01*
X122753914Y-75743039D01*
X122429210Y-76026726D01*
X122429205Y-76026730D01*
X122131237Y-76338379D01*
X122131225Y-76338392D01*
X121862404Y-76675485D01*
X121862394Y-76675498D01*
X121624867Y-77035337D01*
X121624867Y-77035338D01*
X121420537Y-77415044D01*
X121420533Y-77415052D01*
X121251076Y-77811519D01*
X121251073Y-77811527D01*
X121117830Y-78221608D01*
X121021885Y-78641972D01*
X120964006Y-79069253D01*
X120964005Y-79069262D01*
X120944661Y-79499996D01*
X120944661Y-79500003D01*
X120250525Y-79500003D01*
X120250550Y-79498768D01*
X120259497Y-79282456D01*
X120270013Y-79041610D01*
X120270427Y-79036684D01*
X120299092Y-78806712D01*
X120329195Y-78578065D01*
X120329970Y-78573517D01*
X120377978Y-78344556D01*
X120427471Y-78121313D01*
X120428571Y-78117073D01*
X120495579Y-77891998D01*
X120564150Y-77674521D01*
X120565495Y-77670703D01*
X120650913Y-77451795D01*
X120651265Y-77450920D01*
X120738229Y-77240970D01*
X120739756Y-77237586D01*
X120843121Y-77026150D01*
X120843620Y-77025160D01*
X120948418Y-76823845D01*
X120950126Y-76820780D01*
X121070616Y-76618573D01*
X121071452Y-76617216D01*
X121193260Y-76426016D01*
X121195052Y-76423360D01*
X121331848Y-76231765D01*
X121333046Y-76230147D01*
X121471002Y-76050359D01*
X121472787Y-76048148D01*
X121624963Y-75868473D01*
X121626503Y-75866726D01*
X121779545Y-75699709D01*
X121781313Y-75697862D01*
X121947862Y-75531313D01*
X121949709Y-75529545D01*
X122116726Y-75376503D01*
X122118473Y-75374963D01*
X122298148Y-75222787D01*
X122300359Y-75221002D01*
X122480147Y-75083046D01*
X122481765Y-75081848D01*
X122673360Y-74945052D01*
X122676016Y-74943260D01*
X122867216Y-74821452D01*
X122868573Y-74820616D01*
X123070780Y-74700126D01*
X123073845Y-74698418D01*
X123275160Y-74593620D01*
X123276150Y-74593121D01*
X123487586Y-74489756D01*
X123490970Y-74488229D01*
X123700920Y-74401265D01*
X123701795Y-74400913D01*
X123920703Y-74315495D01*
X123924521Y-74314150D01*
X124141998Y-74245579D01*
X124367073Y-74178571D01*
X124371313Y-74177471D01*
X124594556Y-74127978D01*
X124823517Y-74079970D01*
X124828065Y-74079195D01*
X125056712Y-74049092D01*
X125286684Y-74020427D01*
X125291610Y-74020013D01*
X125532307Y-74009504D01*
X125748720Y-74000552D01*
X125751280Y-74000500D01*
X170748720Y-74000500D01*
X170751279Y-74000552D01*
G37*
%TD.AperFunction*%
%TD*%
M02*
