%TF.GenerationSoftware,KiCad,Pcbnew,7.0.5*%
%TF.CreationDate,2023-06-12T20:17:58-07:00*%
%TF.ProjectId,kicad_tutorial,6b696361-645f-4747-9574-6f7269616c2e,rev?*%
%TF.SameCoordinates,Original*%
%TF.FileFunction,Copper,L1,Top*%
%TF.FilePolarity,Positive*%
%FSLAX46Y46*%
G04 Gerber Fmt 4.6, Leading zero omitted, Abs format (unit mm)*
G04 Created by KiCad (PCBNEW 7.0.5) date 2023-06-12 20:17:58*
%MOMM*%
%LPD*%
G01*
G04 APERTURE LIST*
G04 Aperture macros list*
%AMRoundRect*
0 Rectangle with rounded corners*
0 $1 Rounding radius*
0 $2 $3 $4 $5 $6 $7 $8 $9 X,Y pos of 4 corners*
0 Add a 4 corners polygon primitive as box body*
4,1,4,$2,$3,$4,$5,$6,$7,$8,$9,$2,$3,0*
0 Add four circle primitives for the rounded corners*
1,1,$1+$1,$2,$3*
1,1,$1+$1,$4,$5*
1,1,$1+$1,$6,$7*
1,1,$1+$1,$8,$9*
0 Add four rect primitives between the rounded corners*
20,1,$1+$1,$2,$3,$4,$5,0*
20,1,$1+$1,$4,$5,$6,$7,0*
20,1,$1+$1,$6,$7,$8,$9,0*
20,1,$1+$1,$8,$9,$2,$3,0*%
G04 Aperture macros list end*
%TA.AperFunction,SMDPad,CuDef*%
%ADD10RoundRect,0.200000X-0.275000X0.200000X-0.275000X-0.200000X0.275000X-0.200000X0.275000X0.200000X0*%
%TD*%
%TA.AperFunction,SMDPad,CuDef*%
%ADD11R,2.500000X1.900000*%
%TD*%
%TA.AperFunction,SMDPad,CuDef*%
%ADD12RoundRect,0.225000X-0.225000X-0.375000X0.225000X-0.375000X0.225000X0.375000X-0.225000X0.375000X0*%
%TD*%
%TA.AperFunction,SMDPad,CuDef*%
%ADD13RoundRect,0.225000X0.225000X0.250000X-0.225000X0.250000X-0.225000X-0.250000X0.225000X-0.250000X0*%
%TD*%
%TA.AperFunction,SMDPad,CuDef*%
%ADD14RoundRect,0.140000X-0.140000X-0.170000X0.140000X-0.170000X0.140000X0.170000X-0.140000X0.170000X0*%
%TD*%
%TA.AperFunction,SMDPad,CuDef*%
%ADD15RoundRect,0.135000X0.135000X0.185000X-0.135000X0.185000X-0.135000X-0.185000X0.135000X-0.185000X0*%
%TD*%
%TA.AperFunction,SMDPad,CuDef*%
%ADD16RoundRect,0.150000X0.150000X-0.512500X0.150000X0.512500X-0.150000X0.512500X-0.150000X-0.512500X0*%
%TD*%
%TA.AperFunction,SMDPad,CuDef*%
%ADD17RoundRect,0.250000X-0.325000X-0.650000X0.325000X-0.650000X0.325000X0.650000X-0.325000X0.650000X0*%
%TD*%
%TA.AperFunction,SMDPad,CuDef*%
%ADD18RoundRect,0.218750X0.256250X-0.218750X0.256250X0.218750X-0.256250X0.218750X-0.256250X-0.218750X0*%
%TD*%
%TA.AperFunction,SMDPad,CuDef*%
%ADD19RoundRect,0.135000X-0.135000X-0.185000X0.135000X-0.185000X0.135000X0.185000X-0.135000X0.185000X0*%
%TD*%
%TA.AperFunction,SMDPad,CuDef*%
%ADD20R,1.200000X1.400000*%
%TD*%
%TA.AperFunction,ComponentPad*%
%ADD21RoundRect,0.200000X-0.200000X-0.450000X0.200000X-0.450000X0.200000X0.450000X-0.200000X0.450000X0*%
%TD*%
%TA.AperFunction,ComponentPad*%
%ADD22O,0.800000X1.300000*%
%TD*%
%TA.AperFunction,SMDPad,CuDef*%
%ADD23RoundRect,0.200000X0.275000X-0.200000X0.275000X0.200000X-0.275000X0.200000X-0.275000X-0.200000X0*%
%TD*%
%TA.AperFunction,ComponentPad*%
%ADD24C,0.900000*%
%TD*%
%TA.AperFunction,ComponentPad*%
%ADD25C,8.600000*%
%TD*%
%TA.AperFunction,SMDPad,CuDef*%
%ADD26RoundRect,0.147500X-0.147500X-0.172500X0.147500X-0.172500X0.147500X0.172500X-0.147500X0.172500X0*%
%TD*%
%TA.AperFunction,SMDPad,CuDef*%
%ADD27RoundRect,0.140000X0.170000X-0.140000X0.170000X0.140000X-0.170000X0.140000X-0.170000X-0.140000X0*%
%TD*%
%TA.AperFunction,SMDPad,CuDef*%
%ADD28RoundRect,0.225000X-0.225000X-0.250000X0.225000X-0.250000X0.225000X0.250000X-0.225000X0.250000X0*%
%TD*%
%TA.AperFunction,SMDPad,CuDef*%
%ADD29RoundRect,0.075000X-0.700000X-0.075000X0.700000X-0.075000X0.700000X0.075000X-0.700000X0.075000X0*%
%TD*%
%TA.AperFunction,SMDPad,CuDef*%
%ADD30RoundRect,0.075000X-0.075000X-0.700000X0.075000X-0.700000X0.075000X0.700000X-0.075000X0.700000X0*%
%TD*%
%TA.AperFunction,SMDPad,CuDef*%
%ADD31RoundRect,0.218750X-0.381250X0.218750X-0.381250X-0.218750X0.381250X-0.218750X0.381250X0.218750X0*%
%TD*%
%TA.AperFunction,SMDPad,CuDef*%
%ADD32R,1.500000X0.700000*%
%TD*%
%TA.AperFunction,SMDPad,CuDef*%
%ADD33R,0.800000X1.000000*%
%TD*%
%TA.AperFunction,SMDPad,CuDef*%
%ADD34RoundRect,0.225000X0.250000X-0.225000X0.250000X0.225000X-0.250000X0.225000X-0.250000X-0.225000X0*%
%TD*%
%TA.AperFunction,ComponentPad*%
%ADD35RoundRect,0.200000X0.200000X0.450000X-0.200000X0.450000X-0.200000X-0.450000X0.200000X-0.450000X0*%
%TD*%
%TA.AperFunction,SMDPad,CuDef*%
%ADD36RoundRect,0.140000X0.140000X0.170000X-0.140000X0.170000X-0.140000X-0.170000X0.140000X-0.170000X0*%
%TD*%
%TA.AperFunction,SMDPad,CuDef*%
%ADD37RoundRect,0.218750X0.218750X0.256250X-0.218750X0.256250X-0.218750X-0.256250X0.218750X-0.256250X0*%
%TD*%
%TA.AperFunction,SMDPad,CuDef*%
%ADD38RoundRect,0.150000X0.512500X0.150000X-0.512500X0.150000X-0.512500X-0.150000X0.512500X-0.150000X0*%
%TD*%
%TA.AperFunction,SMDPad,CuDef*%
%ADD39RoundRect,0.250000X0.375000X0.625000X-0.375000X0.625000X-0.375000X-0.625000X0.375000X-0.625000X0*%
%TD*%
%TA.AperFunction,SMDPad,CuDef*%
%ADD40RoundRect,0.150000X-0.150000X0.587500X-0.150000X-0.587500X0.150000X-0.587500X0.150000X0.587500X0*%
%TD*%
%TA.AperFunction,SMDPad,CuDef*%
%ADD41R,0.740000X2.400000*%
%TD*%
%TA.AperFunction,ComponentPad*%
%ADD42R,2.400000X2.400000*%
%TD*%
%TA.AperFunction,ComponentPad*%
%ADD43C,2.400000*%
%TD*%
%TA.AperFunction,SMDPad,CuDef*%
%ADD44R,1.400000X0.400000*%
%TD*%
%TA.AperFunction,ComponentPad*%
%ADD45O,1.900000X1.050000*%
%TD*%
%TA.AperFunction,SMDPad,CuDef*%
%ADD46R,1.450000X1.150000*%
%TD*%
%TA.AperFunction,SMDPad,CuDef*%
%ADD47R,1.900000X1.750000*%
%TD*%
%TA.AperFunction,SMDPad,CuDef*%
%ADD48RoundRect,0.200000X-0.200000X-0.275000X0.200000X-0.275000X0.200000X0.275000X-0.200000X0.275000X0*%
%TD*%
%TA.AperFunction,ViaPad*%
%ADD49C,0.800000*%
%TD*%
%TA.AperFunction,Conductor*%
%ADD50C,0.300000*%
%TD*%
%TA.AperFunction,Conductor*%
%ADD51C,0.750000*%
%TD*%
%TA.AperFunction,Conductor*%
%ADD52C,0.400000*%
%TD*%
%TA.AperFunction,Conductor*%
%ADD53C,0.500000*%
%TD*%
%TA.AperFunction,Conductor*%
%ADD54C,1.000000*%
%TD*%
%TA.AperFunction,Conductor*%
%ADD55C,0.200000*%
%TD*%
G04 APERTURE END LIST*
D10*
%TO.P,R8,1*%
%TO.N,GND*%
X166250000Y-112425000D03*
%TO.P,R8,2*%
%TO.N,Net-(R7-Pad1)*%
X166250000Y-114075000D03*
%TD*%
D11*
%TO.P,L2,1*%
%TO.N,BUCK_SW*%
X152987500Y-109150000D03*
%TO.P,L2,2*%
%TO.N,+3.3V*%
X152987500Y-113250000D03*
%TD*%
D12*
%TO.P,D3,1,K*%
%TO.N,Net-(D3-K)*%
X165100000Y-99250000D03*
%TO.P,D3,2,A*%
%TO.N,+5V*%
X168400000Y-99250000D03*
%TD*%
D13*
%TO.P,C3,1*%
%TO.N,+3.3V*%
X133775000Y-92380000D03*
%TO.P,C3,2*%
%TO.N,GND*%
X132225000Y-92380000D03*
%TD*%
D14*
%TO.P,C8,1*%
%TO.N,+3.3V*%
X135770000Y-92130000D03*
%TO.P,C8,2*%
%TO.N,GND*%
X136730000Y-92130000D03*
%TD*%
D15*
%TO.P,R10,1*%
%TO.N,I2C1_SDA*%
X138260000Y-90500000D03*
%TO.P,R10,2*%
%TO.N,+3.3V*%
X137240000Y-90500000D03*
%TD*%
D16*
%TO.P,U1,1,1*%
%TO.N,BUCK_BST*%
X159050000Y-112087500D03*
%TO.P,U1,2,2*%
%TO.N,GND*%
X160000000Y-112087500D03*
%TO.P,U1,3,3*%
%TO.N,BUCK_FB*%
X160950000Y-112087500D03*
%TO.P,U1,4,4*%
%TO.N,BUCK_EN*%
X160950000Y-109812500D03*
%TO.P,U1,5,5*%
%TO.N,BUCK_IN*%
X160000000Y-109812500D03*
%TO.P,U1,6,6*%
%TO.N,BUCK_SW*%
X159050000Y-109812500D03*
%TD*%
D17*
%TO.P,C15,1*%
%TO.N,+3.3V*%
X153025000Y-116250000D03*
%TO.P,C15,2*%
%TO.N,GND*%
X155975000Y-116250000D03*
%TD*%
D14*
%TO.P,C6,1*%
%TO.N,+3.3V*%
X144770000Y-105880000D03*
%TO.P,C6,2*%
%TO.N,GND*%
X145730000Y-105880000D03*
%TD*%
D18*
%TO.P,D1,1,K*%
%TO.N,Net-(D1-K)*%
X132995000Y-106787500D03*
%TO.P,D1,2,A*%
%TO.N,LED_STATUS*%
X132995000Y-105212500D03*
%TD*%
D19*
%TO.P,R2,1*%
%TO.N,Net-(C11-Pad1)*%
X131490000Y-98750000D03*
%TO.P,R2,2*%
%TO.N,HSE_OUT*%
X132510000Y-98750000D03*
%TD*%
D20*
%TO.P,Y1,1,1*%
%TO.N,HSE_IN*%
X128145000Y-96900000D03*
%TO.P,Y1,2,2*%
%TO.N,GND*%
X128145000Y-99100000D03*
%TO.P,Y1,3,3*%
%TO.N,Net-(C11-Pad1)*%
X129845000Y-99100000D03*
%TO.P,Y1,4,4*%
%TO.N,GND*%
X129845000Y-96900000D03*
%TD*%
D17*
%TO.P,C16,1*%
%TO.N,+3.3V*%
X153050000Y-119500000D03*
%TO.P,C16,2*%
%TO.N,GND*%
X156000000Y-119500000D03*
%TD*%
D21*
%TO.P,J4,1,Pin_1*%
%TO.N,+3.3V*%
X137125000Y-119050000D03*
D22*
%TO.P,J4,2,Pin_2*%
%TO.N,UART3_TX*%
X138375000Y-119050000D03*
%TO.P,J4,3,Pin_3*%
%TO.N,UART3_RX*%
X139625000Y-119050000D03*
%TO.P,J4,4,Pin_4*%
%TO.N,GND*%
X140875000Y-119050000D03*
%TD*%
D23*
%TO.P,R7,1*%
%TO.N,Net-(R7-Pad1)*%
X164500000Y-114075000D03*
%TO.P,R7,2*%
%TO.N,BUCK_FB*%
X164500000Y-112425000D03*
%TD*%
D24*
%TO.P,H3,1,1*%
%TO.N,GND*%
X122525000Y-119500000D03*
X123469581Y-117219581D03*
X123469581Y-121780419D03*
X125750000Y-116275000D03*
D25*
X125750000Y-119500000D03*
D24*
X125750000Y-122725000D03*
X128030419Y-117219581D03*
X128030419Y-121780419D03*
X128975000Y-119500000D03*
%TD*%
D26*
%TO.P,L1,1*%
%TO.N,+3.3V*%
X128760000Y-103420000D03*
%TO.P,L1,2*%
%TO.N,+3.3VA*%
X129730000Y-103420000D03*
%TD*%
D27*
%TO.P,C4,1*%
%TO.N,+3.3V*%
X131995000Y-95980000D03*
%TO.P,C4,2*%
%TO.N,GND*%
X131995000Y-95020000D03*
%TD*%
D28*
%TO.P,C2,1*%
%TO.N,Net-(U2-VCAP_1)*%
X143725000Y-107630000D03*
%TO.P,C2,2*%
%TO.N,GND*%
X145275000Y-107630000D03*
%TD*%
D29*
%TO.P,U2,1,VBAT*%
%TO.N,+3.3V*%
X134145000Y-96000000D03*
%TO.P,U2,2,PC13*%
%TO.N,unconnected-(U2-PC13-Pad2)*%
X134145000Y-96500000D03*
%TO.P,U2,3,PC14*%
%TO.N,unconnected-(U2-PC14-Pad3)*%
X134145000Y-97000000D03*
%TO.P,U2,4,PC15*%
%TO.N,unconnected-(U2-PC15-Pad4)*%
X134145000Y-97500000D03*
%TO.P,U2,5,PH0*%
%TO.N,HSE_IN*%
X134145000Y-98000000D03*
%TO.P,U2,6,PH1*%
%TO.N,HSE_OUT*%
X134145000Y-98500000D03*
%TO.P,U2,7,NRST*%
%TO.N,NRST*%
X134145000Y-99000000D03*
%TO.P,U2,8,PC0*%
%TO.N,unconnected-(U2-PC0-Pad8)*%
X134145000Y-99500000D03*
%TO.P,U2,9,PC1*%
%TO.N,unconnected-(U2-PC1-Pad9)*%
X134145000Y-100000000D03*
%TO.P,U2,10,PC2*%
%TO.N,unconnected-(U2-PC2-Pad10)*%
X134145000Y-100500000D03*
%TO.P,U2,11,PC3*%
%TO.N,unconnected-(U2-PC3-Pad11)*%
X134145000Y-101000000D03*
%TO.P,U2,12,VSSA*%
%TO.N,GND*%
X134145000Y-101500000D03*
%TO.P,U2,13,VDDA*%
%TO.N,+3.3VA*%
X134145000Y-102000000D03*
%TO.P,U2,14,PA0*%
%TO.N,unconnected-(U2-PA0-Pad14)*%
X134145000Y-102500000D03*
%TO.P,U2,15,PA1*%
%TO.N,unconnected-(U2-PA1-Pad15)*%
X134145000Y-103000000D03*
%TO.P,U2,16,PA2*%
%TO.N,LED_STATUS*%
X134145000Y-103500000D03*
D30*
%TO.P,U2,17,PA3*%
%TO.N,unconnected-(U2-PA3-Pad17)*%
X136070000Y-105425000D03*
%TO.P,U2,18,VSS*%
%TO.N,GND*%
X136570000Y-105425000D03*
%TO.P,U2,19,VDD*%
%TO.N,+3.3V*%
X137070000Y-105425000D03*
%TO.P,U2,20,PA4*%
%TO.N,unconnected-(U2-PA4-Pad20)*%
X137570000Y-105425000D03*
%TO.P,U2,21,PA5*%
%TO.N,unconnected-(U2-PA5-Pad21)*%
X138070000Y-105425000D03*
%TO.P,U2,22,PA6*%
%TO.N,unconnected-(U2-PA6-Pad22)*%
X138570000Y-105425000D03*
%TO.P,U2,23,PA7*%
%TO.N,unconnected-(U2-PA7-Pad23)*%
X139070000Y-105425000D03*
%TO.P,U2,24,PC4*%
%TO.N,unconnected-(U2-PC4-Pad24)*%
X139570000Y-105425000D03*
%TO.P,U2,25,PC5*%
%TO.N,unconnected-(U2-PC5-Pad25)*%
X140070000Y-105425000D03*
%TO.P,U2,26,PB0*%
%TO.N,unconnected-(U2-PB0-Pad26)*%
X140570000Y-105425000D03*
%TO.P,U2,27,PB1*%
%TO.N,unconnected-(U2-PB1-Pad27)*%
X141070000Y-105425000D03*
%TO.P,U2,28,PB2*%
%TO.N,unconnected-(U2-PB2-Pad28)*%
X141570000Y-105425000D03*
%TO.P,U2,29,PB10*%
%TO.N,UART3_TX*%
X142070000Y-105425000D03*
%TO.P,U2,30,PB11*%
%TO.N,UART3_RX*%
X142570000Y-105425000D03*
%TO.P,U2,31,VCAP_1*%
%TO.N,Net-(U2-VCAP_1)*%
X143070000Y-105425000D03*
%TO.P,U2,32,VDD*%
%TO.N,+3.3V*%
X143570000Y-105425000D03*
D29*
%TO.P,U2,33,PB12*%
%TO.N,unconnected-(U2-PB12-Pad33)*%
X145495000Y-103500000D03*
%TO.P,U2,34,PB13*%
%TO.N,unconnected-(U2-PB13-Pad34)*%
X145495000Y-103000000D03*
%TO.P,U2,35,PB14*%
%TO.N,unconnected-(U2-PB14-Pad35)*%
X145495000Y-102500000D03*
%TO.P,U2,36,PB15*%
%TO.N,unconnected-(U2-PB15-Pad36)*%
X145495000Y-102000000D03*
%TO.P,U2,37,PC6*%
%TO.N,unconnected-(U2-PC6-Pad37)*%
X145495000Y-101500000D03*
%TO.P,U2,38,PC7*%
%TO.N,unconnected-(U2-PC7-Pad38)*%
X145495000Y-101000000D03*
%TO.P,U2,39,PC8*%
%TO.N,unconnected-(U2-PC8-Pad39)*%
X145495000Y-100500000D03*
%TO.P,U2,40,PC9*%
%TO.N,unconnected-(U2-PC9-Pad40)*%
X145495000Y-100000000D03*
%TO.P,U2,41,PA8*%
%TO.N,unconnected-(U2-PA8-Pad41)*%
X145495000Y-99500000D03*
%TO.P,U2,42,PA9*%
%TO.N,unconnected-(U2-PA9-Pad42)*%
X145495000Y-99000000D03*
%TO.P,U2,43,PA10*%
%TO.N,unconnected-(U2-PA10-Pad43)*%
X145495000Y-98500000D03*
%TO.P,U2,44,PA11*%
%TO.N,USB_D-*%
X145495000Y-98000000D03*
%TO.P,U2,45,PA12*%
%TO.N,USB_D+*%
X145495000Y-97500000D03*
%TO.P,U2,46,PA13*%
%TO.N,SWDIO*%
X145495000Y-97000000D03*
%TO.P,U2,47,VCAP_2*%
%TO.N,Net-(U2-VCAP_2)*%
X145495000Y-96500000D03*
%TO.P,U2,48,VDD*%
%TO.N,+3.3V*%
X145495000Y-96000000D03*
D30*
%TO.P,U2,49,PA14*%
%TO.N,SWCLK*%
X143570000Y-94075000D03*
%TO.P,U2,50,PA15*%
%TO.N,unconnected-(U2-PA15-Pad50)*%
X143070000Y-94075000D03*
%TO.P,U2,51,PC10*%
%TO.N,unconnected-(U2-PC10-Pad51)*%
X142570000Y-94075000D03*
%TO.P,U2,52,PC11*%
%TO.N,unconnected-(U2-PC11-Pad52)*%
X142070000Y-94075000D03*
%TO.P,U2,53,PC12*%
%TO.N,unconnected-(U2-PC12-Pad53)*%
X141570000Y-94075000D03*
%TO.P,U2,54,PD2*%
%TO.N,unconnected-(U2-PD2-Pad54)*%
X141070000Y-94075000D03*
%TO.P,U2,55,PB3*%
%TO.N,SW0*%
X140570000Y-94075000D03*
%TO.P,U2,56,PB4*%
%TO.N,unconnected-(U2-PB4-Pad56)*%
X140070000Y-94075000D03*
%TO.P,U2,57,PB5*%
%TO.N,unconnected-(U2-PB5-Pad57)*%
X139570000Y-94075000D03*
%TO.P,U2,58,PB6*%
%TO.N,I2C1_SCL*%
X139070000Y-94075000D03*
%TO.P,U2,59,PB7*%
%TO.N,I2C1_SDA*%
X138570000Y-94075000D03*
%TO.P,U2,60,BOOT0*%
%TO.N,BOOT0*%
X138070000Y-94075000D03*
%TO.P,U2,61,PB8*%
%TO.N,unconnected-(U2-PB8-Pad61)*%
X137570000Y-94075000D03*
%TO.P,U2,62,PB9*%
%TO.N,unconnected-(U2-PB9-Pad62)*%
X137070000Y-94075000D03*
%TO.P,U2,63,VSS*%
%TO.N,GND*%
X136570000Y-94075000D03*
%TO.P,U2,64,VDD*%
%TO.N,+3.3V*%
X136070000Y-94075000D03*
%TD*%
D31*
%TO.P,FB1,1*%
%TO.N,Net-(F1-Pad2)*%
X160000000Y-102025000D03*
%TO.P,FB1,2*%
%TO.N,BUCK_IN*%
X160000000Y-104150000D03*
%TD*%
D19*
%TO.P,R9,1*%
%TO.N,I2C1_SCL*%
X139740000Y-90500000D03*
%TO.P,R9,2*%
%TO.N,+3.3V*%
X140760000Y-90500000D03*
%TD*%
D32*
%TO.P,SW1,3,C*%
%TO.N,GND*%
X123940000Y-92250000D03*
%TO.P,SW1,2,B*%
%TO.N,Net-(SW1-B)*%
X123940000Y-90750000D03*
%TO.P,SW1,1,A*%
%TO.N,+3.3V*%
X123940000Y-87750000D03*
D33*
%TO.P,SW1,*%
%TO.N,*%
X121080000Y-93650000D03*
X123290000Y-93650000D03*
X121080000Y-86350000D03*
X123290000Y-86350000D03*
%TD*%
D27*
%TO.P,C10,1*%
%TO.N,+3.3VA*%
X132245000Y-102210000D03*
%TO.P,C10,2*%
%TO.N,GND*%
X132245000Y-101250000D03*
%TD*%
D12*
%TO.P,D2,1,K*%
%TO.N,BUCK_SW*%
X153100000Y-106250000D03*
%TO.P,D2,2,A*%
%TO.N,GND*%
X156400000Y-106250000D03*
%TD*%
D34*
%TO.P,C14,1*%
%TO.N,BUCK_BST*%
X157000000Y-111725000D03*
%TO.P,C14,2*%
%TO.N,BUCK_SW*%
X157000000Y-110175000D03*
%TD*%
D14*
%TO.P,C12,1*%
%TO.N,HSE_IN*%
X128515000Y-95000000D03*
%TO.P,C12,2*%
%TO.N,GND*%
X129475000Y-95000000D03*
%TD*%
D35*
%TO.P,J3,1,Pin_1*%
%TO.N,+3.3V*%
X140875000Y-79950000D03*
D22*
%TO.P,J3,2,Pin_2*%
%TO.N,I2C1_SCL*%
X139625000Y-79950000D03*
%TO.P,J3,3,Pin_3*%
%TO.N,I2C1_SDA*%
X138375000Y-79950000D03*
%TO.P,J3,4,Pin_4*%
%TO.N,GND*%
X137125000Y-79950000D03*
%TD*%
D34*
%TO.P,C1,1*%
%TO.N,Net-(U2-VCAP_2)*%
X147750000Y-96155000D03*
%TO.P,C1,2*%
%TO.N,GND*%
X147750000Y-94605000D03*
%TD*%
D36*
%TO.P,C11,1*%
%TO.N,Net-(C11-Pad1)*%
X129475000Y-101000000D03*
%TO.P,C11,2*%
%TO.N,GND*%
X128515000Y-101000000D03*
%TD*%
D37*
%TO.P,D4,1,K*%
%TO.N,Net-(D4-K)*%
X162037500Y-77250000D03*
%TO.P,D4,2,A*%
%TO.N,+3.3V*%
X160462500Y-77250000D03*
%TD*%
D15*
%TO.P,R1,1*%
%TO.N,BOOT0*%
X127760000Y-90750000D03*
%TO.P,R1,2*%
%TO.N,Net-(SW1-B)*%
X126740000Y-90750000D03*
%TD*%
D38*
%TO.P,U3,1,I/O1*%
%TO.N,USB_CONN_D-*%
X168637500Y-91200000D03*
%TO.P,U3,2,GND*%
%TO.N,GND*%
X168637500Y-90250000D03*
%TO.P,U3,3,I/O2*%
%TO.N,USB_CONN_D+*%
X168637500Y-89300000D03*
%TO.P,U3,4,I/O2*%
%TO.N,USB_D+*%
X166362500Y-89300000D03*
%TO.P,U3,5,VBUS*%
%TO.N,+5V*%
X166362500Y-90250000D03*
%TO.P,U3,6,I/O1*%
%TO.N,USB_D-*%
X166362500Y-91200000D03*
%TD*%
D39*
%TO.P,F1,1*%
%TO.N,Net-(D3-K)*%
X162900000Y-99250000D03*
%TO.P,F1,2*%
%TO.N,Net-(F1-Pad2)*%
X160100000Y-99250000D03*
%TD*%
D24*
%TO.P,H4,1,1*%
%TO.N,GND*%
X122525000Y-79500000D03*
X123469581Y-77219581D03*
X123469581Y-81780419D03*
X125750000Y-76275000D03*
D25*
X125750000Y-79500000D03*
D24*
X125750000Y-82725000D03*
X128030419Y-77219581D03*
X128030419Y-81780419D03*
X128975000Y-79500000D03*
%TD*%
%TO.P,H1,1,1*%
%TO.N,GND*%
X167525000Y-79500000D03*
X168469581Y-77219581D03*
X168469581Y-81780419D03*
X170750000Y-76275000D03*
D25*
X170750000Y-79500000D03*
D24*
X170750000Y-82725000D03*
X173030419Y-77219581D03*
X173030419Y-81780419D03*
X173975000Y-79500000D03*
%TD*%
D40*
%TO.P,Q1,1,G*%
%TO.N,GND*%
X164200000Y-102062500D03*
%TO.P,Q1,2,S*%
%TO.N,Net-(D3-K)*%
X162300000Y-102062500D03*
%TO.P,Q1,3,D*%
%TO.N,+12V*%
X163250000Y-103937500D03*
%TD*%
D41*
%TO.P,J2,1,Pin_1*%
%TO.N,+3.3V*%
X155290000Y-77550000D03*
%TO.P,J2,2,Pin_2*%
%TO.N,SWDIO*%
X155290000Y-81450000D03*
%TO.P,J2,3,Pin_3*%
%TO.N,GND*%
X154020000Y-77550000D03*
%TO.P,J2,4,Pin_4*%
%TO.N,SWCLK*%
X154020000Y-81450000D03*
%TO.P,J2,5,Pin_5*%
%TO.N,GND*%
X152750000Y-77550000D03*
%TO.P,J2,6,Pin_6*%
%TO.N,SW0*%
X152750000Y-81450000D03*
%TO.P,J2,7,Pin_7*%
%TO.N,unconnected-(J2-Pin_7-Pad7)*%
X151480000Y-77550000D03*
%TO.P,J2,8,Pin_8*%
%TO.N,unconnected-(J2-Pin_8-Pad8)*%
X151480000Y-81450000D03*
%TO.P,J2,9,Pin_9*%
%TO.N,GND*%
X150210000Y-77550000D03*
%TO.P,J2,10,Pin_10*%
%TO.N,NRST*%
X150210000Y-81450000D03*
%TD*%
D10*
%TO.P,R6,1*%
%TO.N,BUCK_FB*%
X162750000Y-112425000D03*
%TO.P,R6,2*%
%TO.N,+3.3V*%
X162750000Y-114075000D03*
%TD*%
D23*
%TO.P,R4,1*%
%TO.N,BUCK_EN*%
X162750000Y-110575000D03*
%TO.P,R4,2*%
%TO.N,BUCK_IN*%
X162750000Y-108925000D03*
%TD*%
D24*
%TO.P,H2,1,1*%
%TO.N,GND*%
X167525000Y-119500000D03*
X168469581Y-117219581D03*
X168469581Y-121780419D03*
X170750000Y-116275000D03*
D25*
X170750000Y-119500000D03*
D24*
X170750000Y-122725000D03*
X173030419Y-117219581D03*
X173030419Y-121780419D03*
X173975000Y-119500000D03*
%TD*%
D36*
%TO.P,C5,1*%
%TO.N,+3.3V*%
X137230000Y-107500000D03*
%TO.P,C5,2*%
%TO.N,GND*%
X136270000Y-107500000D03*
%TD*%
D27*
%TO.P,C7,1*%
%TO.N,+3.3V*%
X146000000Y-94610000D03*
%TO.P,C7,2*%
%TO.N,GND*%
X146000000Y-93650000D03*
%TD*%
D42*
%TO.P,J1,1,Pin_1*%
%TO.N,+12V*%
X169050000Y-106750000D03*
D43*
%TO.P,J1,2,Pin_2*%
%TO.N,GND*%
X169050000Y-103250000D03*
%TD*%
D10*
%TO.P,R5,1*%
%TO.N,GND*%
X164500000Y-108925000D03*
%TO.P,R5,2*%
%TO.N,BUCK_EN*%
X164500000Y-110575000D03*
%TD*%
D27*
%TO.P,C9,1*%
%TO.N,+3.3VA*%
X130995000Y-102210000D03*
%TO.P,C9,2*%
%TO.N,GND*%
X130995000Y-101250000D03*
%TD*%
D10*
%TO.P,R3,1*%
%TO.N,GND*%
X130995000Y-105175000D03*
%TO.P,R3,2*%
%TO.N,Net-(D1-K)*%
X130995000Y-106825000D03*
%TD*%
D44*
%TO.P,J5,1,VBUS*%
%TO.N,+5V*%
X171300000Y-91300000D03*
%TO.P,J5,2,D-*%
%TO.N,USB_CONN_D-*%
X171300000Y-90650000D03*
%TO.P,J5,3,D+*%
%TO.N,USB_CONN_D+*%
X171300000Y-90000000D03*
%TO.P,J5,4,ID*%
%TO.N,unconnected-(J5-ID-Pad4)*%
X171300000Y-89350000D03*
%TO.P,J5,5,GND*%
%TO.N,GND*%
X171300000Y-88700000D03*
D45*
%TO.P,J5,6,Shield*%
%TO.N,unconnected-(J5-Shield-Pad6)*%
X173950000Y-93575000D03*
D46*
X171720000Y-92320000D03*
D47*
X173950000Y-91125000D03*
X173950000Y-88875000D03*
D46*
X171720000Y-87680000D03*
D45*
X173950000Y-86425000D03*
%TD*%
D17*
%TO.P,C13,1*%
%TO.N,BUCK_IN*%
X160025000Y-106750000D03*
%TO.P,C13,2*%
%TO.N,GND*%
X162975000Y-106750000D03*
%TD*%
D48*
%TO.P,R11,1*%
%TO.N,GND*%
X160425000Y-79500000D03*
%TO.P,R11,2*%
%TO.N,Net-(D4-K)*%
X162075000Y-79500000D03*
%TD*%
D49*
%TO.N,GND*%
X146750000Y-93500000D03*
X147750000Y-93750000D03*
X165500000Y-109000000D03*
X163500000Y-102000000D03*
X169250000Y-88250000D03*
X155000000Y-120250000D03*
X159500000Y-79500000D03*
X131000000Y-100500000D03*
X154000000Y-75750000D03*
X145250000Y-108500000D03*
X162000000Y-106750000D03*
X130000000Y-105250000D03*
X167500000Y-88500000D03*
X166250000Y-111500000D03*
X125260000Y-92250000D03*
X157000000Y-120250000D03*
X131250000Y-92250000D03*
X157000000Y-117000000D03*
X129500000Y-94250000D03*
X157250000Y-107000000D03*
X135500000Y-107500000D03*
X165000000Y-102000000D03*
X164500000Y-108000000D03*
X164000000Y-106750000D03*
X160000000Y-111020400D03*
X160000000Y-113500000D03*
X169250000Y-87250000D03*
X137500000Y-92000000D03*
X170000000Y-87750000D03*
X127750000Y-101000000D03*
X155000000Y-117000000D03*
X132250000Y-100500000D03*
X170000000Y-88750000D03*
X132750000Y-95000000D03*
X146500000Y-106000000D03*
X150250000Y-75750000D03*
X167250000Y-112500000D03*
X152750000Y-75750000D03*
X157250000Y-105500000D03*
X126750000Y-99250000D03*
X131190000Y-97000000D03*
%TO.N,+3.3V*%
X152000000Y-115500000D03*
X141000000Y-81500000D03*
X133750000Y-91250000D03*
X154000000Y-115500000D03*
X151250000Y-114000000D03*
X152000000Y-118750000D03*
X132250000Y-96750000D03*
X154750000Y-114000000D03*
X154750000Y-112250000D03*
X146750000Y-95250000D03*
X138000000Y-107500000D03*
X125260000Y-87750000D03*
X128750000Y-102500000D03*
X156250000Y-77500000D03*
X144750000Y-104750000D03*
X135750000Y-91250000D03*
X137250000Y-89750000D03*
X161750000Y-114000000D03*
X151250000Y-112250000D03*
X128750000Y-104250000D03*
X159500000Y-77250000D03*
X162750000Y-115000000D03*
X154000000Y-118750000D03*
X140750000Y-89750000D03*
%TO.N,NRST*%
X142250000Y-90000000D03*
X142250000Y-96000000D03*
%TD*%
D50*
%TO.N,Net-(SW1-B)*%
X123940000Y-90750000D02*
X126740000Y-90750000D01*
%TO.N,Net-(U2-VCAP_2)*%
X147405000Y-96500000D02*
X147750000Y-96155000D01*
X145495000Y-96500000D02*
X147405000Y-96500000D01*
D51*
%TO.N,GND*%
X129500000Y-94975000D02*
X129475000Y-95000000D01*
D50*
X128145000Y-99100000D02*
X126900000Y-99100000D01*
D52*
X131190000Y-97000000D02*
X129945000Y-97000000D01*
D51*
X132250000Y-100500000D02*
X132250000Y-101245000D01*
X150250000Y-77510000D02*
X150210000Y-77550000D01*
D50*
X128145000Y-100630000D02*
X128515000Y-101000000D01*
D51*
X157250000Y-105500000D02*
X157250000Y-107000000D01*
X167250000Y-112500000D02*
X166325000Y-112500000D01*
X145275000Y-108475000D02*
X145250000Y-108500000D01*
X131380000Y-92380000D02*
X131250000Y-92250000D01*
X150250000Y-75750000D02*
X150250000Y-77510000D01*
X145850000Y-106000000D02*
X145730000Y-105880000D01*
X169250000Y-88250000D02*
X169500000Y-88250000D01*
X157000000Y-117000000D02*
X156725000Y-117000000D01*
X166325000Y-112500000D02*
X166250000Y-112425000D01*
D52*
X168147183Y-90250000D02*
X167500000Y-89602817D01*
D51*
X132015000Y-95000000D02*
X131995000Y-95020000D01*
X156750000Y-120250000D02*
X156000000Y-119500000D01*
X152750000Y-75750000D02*
X152750000Y-77550000D01*
D50*
X128145000Y-99100000D02*
X128145000Y-100630000D01*
D51*
X169250000Y-87250000D02*
X169500000Y-87250000D01*
X146750000Y-93500000D02*
X146150000Y-93500000D01*
X130920000Y-105250000D02*
X130995000Y-105175000D01*
D52*
X167500000Y-89602817D02*
X167500000Y-88500000D01*
X160000000Y-113500000D02*
X160000000Y-112087500D01*
D50*
X136570000Y-105425000D02*
X136570000Y-107200000D01*
D51*
X157250000Y-107000000D02*
X157150000Y-107000000D01*
X157000000Y-117000000D02*
X157000000Y-120250000D01*
X169500000Y-88250000D02*
X170000000Y-88750000D01*
X164000000Y-106750000D02*
X162000000Y-106750000D01*
X135500000Y-107500000D02*
X136270000Y-107500000D01*
D50*
X126900000Y-99100000D02*
X126750000Y-99250000D01*
D51*
X155000000Y-117000000D02*
X155225000Y-117000000D01*
X157000000Y-120250000D02*
X156750000Y-120250000D01*
X129500000Y-94250000D02*
X129500000Y-94975000D01*
X157150000Y-105500000D02*
X156400000Y-106250000D01*
X132225000Y-92380000D02*
X131380000Y-92380000D01*
D50*
X169700000Y-88700000D02*
X169250000Y-88250000D01*
D51*
X157250000Y-105500000D02*
X157150000Y-105500000D01*
X136860000Y-92000000D02*
X136730000Y-92130000D01*
X159500000Y-79500000D02*
X160425000Y-79500000D01*
X155000000Y-120250000D02*
X155250000Y-120250000D01*
X131000000Y-101245000D02*
X130995000Y-101250000D01*
X147750000Y-93750000D02*
X147750000Y-94605000D01*
X166250000Y-111500000D02*
X166250000Y-112425000D01*
X165000000Y-102000000D02*
X163500000Y-102000000D01*
X130000000Y-105250000D02*
X130920000Y-105250000D01*
X146065000Y-93585000D02*
X146065000Y-93650000D01*
X164575000Y-109000000D02*
X164500000Y-108925000D01*
X154000000Y-75750000D02*
X154000000Y-77530000D01*
X170000000Y-87750000D02*
X170000000Y-88750000D01*
X145275000Y-107630000D02*
X145275000Y-108475000D01*
D50*
X134145000Y-101500000D02*
X132495000Y-101500000D01*
D51*
X146500000Y-106000000D02*
X145850000Y-106000000D01*
X165500000Y-109000000D02*
X164575000Y-109000000D01*
X169250000Y-88000000D02*
X170000000Y-88750000D01*
X154000000Y-77530000D02*
X154020000Y-77550000D01*
X137500000Y-92000000D02*
X136860000Y-92000000D01*
X132750000Y-95000000D02*
X132015000Y-95000000D01*
D52*
X129945000Y-97000000D02*
X129845000Y-96900000D01*
D51*
X125260000Y-92250000D02*
X123940000Y-92250000D01*
X169250000Y-87250000D02*
X169250000Y-88000000D01*
D50*
X136570000Y-94075000D02*
X136570000Y-92290000D01*
D52*
X168637500Y-90250000D02*
X168147183Y-90250000D01*
D50*
X129845000Y-96900000D02*
X129845000Y-95370000D01*
D51*
X155000000Y-120250000D02*
X157000000Y-120250000D01*
X164500000Y-108000000D02*
X164500000Y-108925000D01*
D52*
X160000000Y-112087500D02*
X160000000Y-111020400D01*
D51*
X146150000Y-93500000D02*
X146065000Y-93585000D01*
X155250000Y-120250000D02*
X156000000Y-119500000D01*
X169500000Y-87250000D02*
X170000000Y-87750000D01*
X156725000Y-117000000D02*
X155975000Y-116250000D01*
X127750000Y-101000000D02*
X128515000Y-101000000D01*
D50*
X129845000Y-95370000D02*
X129475000Y-95000000D01*
X171300000Y-88700000D02*
X169700000Y-88700000D01*
X136570000Y-92290000D02*
X136730000Y-92130000D01*
D51*
X155000000Y-117000000D02*
X157000000Y-117000000D01*
X131000000Y-100500000D02*
X131000000Y-101245000D01*
X155225000Y-117000000D02*
X155975000Y-116250000D01*
X132250000Y-101245000D02*
X132245000Y-101250000D01*
D50*
X136570000Y-107200000D02*
X136270000Y-107500000D01*
X132495000Y-101500000D02*
X132245000Y-101250000D01*
D51*
X155000000Y-117000000D02*
X155000000Y-120250000D01*
X157150000Y-107000000D02*
X156400000Y-106250000D01*
D50*
%TO.N,Net-(U2-VCAP_1)*%
X143070000Y-106975000D02*
X143070000Y-105425000D01*
X143725000Y-107630000D02*
X143070000Y-106975000D01*
%TO.N,+3.3V*%
X133775000Y-91275000D02*
X133750000Y-91250000D01*
X144770000Y-105880000D02*
X144770000Y-104770000D01*
D52*
X132250000Y-96750000D02*
X132250000Y-96235000D01*
D50*
X135770000Y-91270000D02*
X135750000Y-91250000D01*
D53*
X162750000Y-114075000D02*
X162750000Y-115000000D01*
D50*
X134145000Y-96000000D02*
X132015000Y-96000000D01*
D52*
X132250000Y-96235000D02*
X131995000Y-95980000D01*
D50*
X146110000Y-94610000D02*
X146750000Y-95250000D01*
D53*
X128760000Y-103420000D02*
X128760000Y-102510000D01*
D54*
X154750000Y-112250000D02*
X154750000Y-114000000D01*
D50*
X137070000Y-107340000D02*
X137230000Y-107500000D01*
X146000000Y-95495000D02*
X145495000Y-96000000D01*
D54*
X151250000Y-112250000D02*
X154750000Y-112250000D01*
X151250000Y-114000000D02*
X151250000Y-112250000D01*
D50*
X132015000Y-96000000D02*
X131995000Y-95980000D01*
D54*
X154000000Y-113250000D02*
X154750000Y-114000000D01*
D50*
X143570000Y-105425000D02*
X144315000Y-105425000D01*
X135770000Y-92130000D02*
X135770000Y-91270000D01*
D54*
X152000000Y-113250000D02*
X151250000Y-114000000D01*
D53*
X154000000Y-115500000D02*
X152000000Y-115500000D01*
D50*
X137070000Y-105425000D02*
X137070000Y-107340000D01*
D53*
X128760000Y-104240000D02*
X128750000Y-104250000D01*
X128760000Y-103420000D02*
X128760000Y-104240000D01*
D54*
X152987500Y-113250000D02*
X153750000Y-113250000D01*
X152987500Y-113250000D02*
X152250000Y-113250000D01*
D53*
X156250000Y-77500000D02*
X155340000Y-77500000D01*
X155340000Y-77500000D02*
X155290000Y-77550000D01*
X141000000Y-81500000D02*
X141000000Y-80075000D01*
D50*
X146000000Y-94610000D02*
X146000000Y-95495000D01*
D53*
X153025000Y-116250000D02*
X153250000Y-116250000D01*
X152000000Y-115500000D02*
X152000000Y-118750000D01*
D50*
X133775000Y-92380000D02*
X133775000Y-91275000D01*
D53*
X152000000Y-115500000D02*
X152275000Y-115500000D01*
D54*
X152987500Y-113250000D02*
X154000000Y-113250000D01*
D50*
X146000000Y-94610000D02*
X146110000Y-94610000D01*
D54*
X153050000Y-113312500D02*
X152987500Y-113250000D01*
D53*
X152275000Y-115500000D02*
X153025000Y-116250000D01*
D54*
X154750000Y-114000000D02*
X151250000Y-114000000D01*
D53*
X154000000Y-115500000D02*
X154000000Y-118750000D01*
D50*
X144315000Y-105425000D02*
X144770000Y-105880000D01*
D54*
X153050000Y-119500000D02*
X153050000Y-113312500D01*
D53*
X137240000Y-89760000D02*
X137250000Y-89750000D01*
X123940000Y-87750000D02*
X125260000Y-87750000D01*
X159500000Y-77250000D02*
X160462500Y-77250000D01*
D50*
X134025000Y-92130000D02*
X133775000Y-92380000D01*
D54*
X152250000Y-113250000D02*
X151250000Y-112250000D01*
X153750000Y-113250000D02*
X154750000Y-112250000D01*
D53*
X140760000Y-89760000D02*
X140750000Y-89750000D01*
X128760000Y-102510000D02*
X128750000Y-102500000D01*
X153250000Y-116250000D02*
X154000000Y-115500000D01*
X153050000Y-119500000D02*
X153250000Y-119500000D01*
D54*
X152987500Y-113250000D02*
X152000000Y-113250000D01*
D50*
X136070000Y-94075000D02*
X136070000Y-92430000D01*
D53*
X152300000Y-118750000D02*
X153050000Y-119500000D01*
D50*
X144770000Y-104770000D02*
X144750000Y-104750000D01*
X135770000Y-92130000D02*
X134025000Y-92130000D01*
D53*
X137240000Y-90500000D02*
X137240000Y-89760000D01*
D50*
X137230000Y-107500000D02*
X138000000Y-107500000D01*
D53*
X152000000Y-118750000D02*
X154000000Y-118750000D01*
X152000000Y-118750000D02*
X152300000Y-118750000D01*
D50*
X136070000Y-92430000D02*
X135770000Y-92130000D01*
D53*
X141000000Y-80075000D02*
X140875000Y-79950000D01*
X153250000Y-119500000D02*
X154000000Y-118750000D01*
X161825000Y-114075000D02*
X161750000Y-114000000D01*
X140760000Y-90500000D02*
X140760000Y-89760000D01*
X162750000Y-114075000D02*
X161825000Y-114075000D01*
%TO.N,Net-(C11-Pad1)*%
X129845000Y-100630000D02*
X129475000Y-101000000D01*
D50*
X131490000Y-98750000D02*
X130195000Y-98750000D01*
X130195000Y-98750000D02*
X129845000Y-99100000D01*
D53*
X129845000Y-99100000D02*
X129845000Y-100630000D01*
D50*
%TO.N,HSE_IN*%
X128145000Y-96900000D02*
X128145000Y-95370000D01*
X128145000Y-97200000D02*
X128145000Y-96900000D01*
X134145000Y-98000000D02*
X128945000Y-98000000D01*
X128145000Y-95370000D02*
X128515000Y-95000000D01*
X128945000Y-98000000D02*
X128145000Y-97200000D01*
D51*
%TO.N,BUCK_IN*%
X160025000Y-106750000D02*
X160000000Y-106775000D01*
X162750000Y-108925000D02*
X162325000Y-108500000D01*
X160025000Y-104175000D02*
X160000000Y-104150000D01*
X162325000Y-108500000D02*
X160000000Y-108500000D01*
X160000000Y-108500000D02*
X160000000Y-109812500D01*
X160000000Y-106775000D02*
X160000000Y-108500000D01*
X160025000Y-106750000D02*
X160025000Y-104175000D01*
%TO.N,BUCK_BST*%
X157362500Y-112087500D02*
X157000000Y-111725000D01*
X159050000Y-112087500D02*
X157362500Y-112087500D01*
D54*
%TO.N,BUCK_SW*%
X153100000Y-109037500D02*
X152987500Y-109150000D01*
D51*
X154012500Y-110175000D02*
X152987500Y-109150000D01*
X157362500Y-109812500D02*
X157000000Y-110175000D01*
D54*
X153100000Y-106250000D02*
X153100000Y-109037500D01*
D51*
X157000000Y-110175000D02*
X154012500Y-110175000D01*
X159050000Y-109812500D02*
X157362500Y-109812500D01*
D53*
%TO.N,Net-(D1-K)*%
X131032500Y-106787500D02*
X130995000Y-106825000D01*
X132995000Y-106787500D02*
X131032500Y-106787500D01*
D50*
%TO.N,LED_STATUS*%
X132995000Y-104650000D02*
X134145000Y-103500000D01*
X132995000Y-105212500D02*
X132995000Y-104650000D01*
D54*
%TO.N,Net-(D3-K)*%
X162900000Y-99250000D02*
X165100000Y-99250000D01*
X162300000Y-102062500D02*
X162300000Y-99850000D01*
X162300000Y-99850000D02*
X162900000Y-99250000D01*
D50*
%TO.N,+5V*%
X171300000Y-91300000D02*
X170800000Y-91300000D01*
X166782107Y-90250000D02*
X166362500Y-90250000D01*
X170800000Y-91300000D02*
X168400000Y-93700000D01*
X168400000Y-93700000D02*
X167500000Y-92800000D01*
X167500000Y-92800000D02*
X167500000Y-90967893D01*
X167500000Y-90967893D02*
X166782107Y-90250000D01*
X168400000Y-93700000D02*
X168400000Y-99250000D01*
D53*
%TO.N,Net-(D4-K)*%
X162037500Y-77250000D02*
X162037500Y-79462500D01*
X162037500Y-79462500D02*
X162075000Y-79500000D01*
D54*
%TO.N,+12V*%
X169050000Y-106750000D02*
X166062500Y-106750000D01*
X166062500Y-106750000D02*
X163250000Y-103937500D01*
%TO.N,Net-(F1-Pad2)*%
X160000000Y-102025000D02*
X160000000Y-99350000D01*
X160000000Y-99350000D02*
X160100000Y-99250000D01*
D51*
X160100000Y-99250000D02*
X160000000Y-99250000D01*
D50*
%TO.N,SWDIO*%
X143750000Y-96000000D02*
X145340000Y-94410000D01*
X145495000Y-97000000D02*
X144618959Y-97000000D01*
X155290000Y-83210000D02*
X155290000Y-81450000D01*
X145340000Y-93160000D02*
X155290000Y-83210000D01*
X145340000Y-94410000D02*
X145340000Y-93160000D01*
X144618959Y-97000000D02*
X143750000Y-96131041D01*
X143750000Y-96131041D02*
X143750000Y-96000000D01*
%TO.N,SWCLK*%
X154020000Y-83625000D02*
X154020000Y-81450000D01*
X143570000Y-94075000D02*
X154020000Y-83625000D01*
%TO.N,SW0*%
X152750000Y-82500000D02*
X152750000Y-81450000D01*
X150500000Y-84750000D02*
X152750000Y-82500000D01*
X140570000Y-94075000D02*
X140570000Y-93198959D01*
X149018959Y-84750000D02*
X150500000Y-84750000D01*
X140570000Y-93198959D02*
X149018959Y-84750000D01*
%TO.N,NRST*%
X139250000Y-99000000D02*
X142250000Y-96000000D01*
X142250000Y-89410000D02*
X150210000Y-81450000D01*
X142250000Y-90000000D02*
X142250000Y-89410000D01*
X134145000Y-99000000D02*
X139250000Y-99000000D01*
%TO.N,I2C1_SDA*%
X138570000Y-93070000D02*
X138250000Y-92750000D01*
X138260000Y-90500000D02*
X138375000Y-90385000D01*
X138250000Y-92750000D02*
X138260000Y-92740000D01*
X138570000Y-94075000D02*
X138570000Y-93070000D01*
X138260000Y-92740000D02*
X138260000Y-90500000D01*
X138375000Y-90385000D02*
X138375000Y-79950000D01*
%TO.N,I2C1_SCL*%
X139625000Y-90385000D02*
X139740000Y-90500000D01*
X139070000Y-93180000D02*
X139750000Y-92500000D01*
X139750000Y-92500000D02*
X139750000Y-90510000D01*
X139070000Y-94075000D02*
X139070000Y-93180000D01*
X139625000Y-79950000D02*
X139625000Y-90385000D01*
X139750000Y-90510000D02*
X139740000Y-90500000D01*
%TO.N,UART3_RX*%
X139625000Y-111125000D02*
X142570000Y-108180000D01*
X139625000Y-119050000D02*
X139625000Y-111125000D01*
X142570000Y-108180000D02*
X142570000Y-105425000D01*
%TO.N,UART3_TX*%
X142070000Y-105425000D02*
X142070000Y-106632894D01*
X142070000Y-106632894D02*
X138375000Y-110327894D01*
X138375000Y-110327894D02*
X138375000Y-119050000D01*
D55*
%TO.N,USB_CONN_D-*%
X170300000Y-90800000D02*
X170300000Y-91163604D01*
X171300000Y-90650000D02*
X171286397Y-90650000D01*
X171136397Y-90800000D02*
X170300000Y-90800000D01*
X170263604Y-91200000D02*
X168637500Y-91200000D01*
X170300000Y-91163604D02*
X170263604Y-91200000D01*
X171286397Y-90650000D02*
X171136397Y-90800000D01*
%TO.N,USB_CONN_D+*%
X169336396Y-89650000D02*
X168987500Y-89650000D01*
X171150000Y-90150000D02*
X169836396Y-90150000D01*
X169836396Y-90150000D02*
X169336396Y-89650000D01*
X168987500Y-89650000D02*
X168637500Y-89300000D01*
X171300000Y-90000000D02*
X171150000Y-90150000D01*
D52*
%TO.N,unconnected-(J5-Shield-Pad6)*%
X172695000Y-92320000D02*
X173950000Y-93575000D01*
X172695000Y-87680000D02*
X173950000Y-86425000D01*
X171720000Y-87680000D02*
X172695000Y-87680000D01*
X173950000Y-93575000D02*
X173950000Y-86425000D01*
X171720000Y-92320000D02*
X172695000Y-92320000D01*
D50*
%TO.N,BOOT0*%
X138070000Y-94075000D02*
X138070000Y-94951041D01*
X131010000Y-94000000D02*
X127760000Y-90750000D01*
X137821041Y-95200000D02*
X134700000Y-95200000D01*
X134700000Y-95200000D02*
X133500000Y-94000000D01*
X138070000Y-94951041D02*
X137821041Y-95200000D01*
X133500000Y-94000000D02*
X131010000Y-94000000D01*
%TO.N,HSE_OUT*%
X132510000Y-98750000D02*
X132760000Y-98500000D01*
X132760000Y-98500000D02*
X134145000Y-98500000D01*
D51*
%TO.N,BUCK_EN*%
X161712500Y-110575000D02*
X164500000Y-110575000D01*
X160950000Y-109812500D02*
X161712500Y-110575000D01*
%TO.N,BUCK_FB*%
X161287500Y-112425000D02*
X160950000Y-112087500D01*
X164500000Y-112425000D02*
X161287500Y-112425000D01*
%TO.N,Net-(R7-Pad1)*%
X166250000Y-114075000D02*
X164500000Y-114075000D01*
D53*
%TO.N,+3.3VA*%
X129785000Y-103420000D02*
X130995000Y-102210000D01*
X129730000Y-103420000D02*
X129785000Y-103420000D01*
D50*
X134145000Y-102000000D02*
X132455000Y-102000000D01*
X132455000Y-102000000D02*
X132245000Y-102210000D01*
D53*
X130995000Y-102210000D02*
X132245000Y-102210000D01*
D55*
%TO.N,USB_D-*%
X145495000Y-98000000D02*
X146657501Y-98000000D01*
X165098897Y-91200000D02*
X166362500Y-91200000D01*
X146657501Y-98000000D02*
X146682501Y-97975000D01*
X146682501Y-97975000D02*
X158323897Y-97975000D01*
X158323897Y-97975000D02*
X165098897Y-91200000D01*
%TO.N,USB_D+*%
X158137500Y-97525000D02*
X165400000Y-90262500D01*
X146657501Y-97500000D02*
X146682501Y-97525000D01*
X165400000Y-89913604D02*
X165663604Y-89650000D01*
X165400000Y-90262500D02*
X165400000Y-89913604D01*
X146682501Y-97525000D02*
X158137500Y-97525000D01*
X166012500Y-89650000D02*
X166362500Y-89300000D01*
X145495000Y-97500000D02*
X146657501Y-97500000D01*
X165663604Y-89650000D02*
X166012500Y-89650000D01*
%TD*%
M02*
