%TF.GenerationSoftware,KiCad,Pcbnew,7.0.5*%
%TF.CreationDate,2023-06-12T20:17:58-07:00*%
%TF.ProjectId,kicad_tutorial,6b696361-645f-4747-9574-6f7269616c2e,rev?*%
%TF.SameCoordinates,Original*%
%TF.FileFunction,Copper,L2,Inr*%
%TF.FilePolarity,Positive*%
%FSLAX46Y46*%
G04 Gerber Fmt 4.6, Leading zero omitted, Abs format (unit mm)*
G04 Created by KiCad (PCBNEW 7.0.5) date 2023-06-12 20:17:58*
%MOMM*%
%LPD*%
G01*
G04 APERTURE LIST*
G04 Aperture macros list*
%AMRoundRect*
0 Rectangle with rounded corners*
0 $1 Rounding radius*
0 $2 $3 $4 $5 $6 $7 $8 $9 X,Y pos of 4 corners*
0 Add a 4 corners polygon primitive as box body*
4,1,4,$2,$3,$4,$5,$6,$7,$8,$9,$2,$3,0*
0 Add four circle primitives for the rounded corners*
1,1,$1+$1,$2,$3*
1,1,$1+$1,$4,$5*
1,1,$1+$1,$6,$7*
1,1,$1+$1,$8,$9*
0 Add four rect primitives between the rounded corners*
20,1,$1+$1,$2,$3,$4,$5,0*
20,1,$1+$1,$4,$5,$6,$7,0*
20,1,$1+$1,$6,$7,$8,$9,0*
20,1,$1+$1,$8,$9,$2,$3,0*%
G04 Aperture macros list end*
%TA.AperFunction,ComponentPad*%
%ADD10RoundRect,0.200000X-0.200000X-0.450000X0.200000X-0.450000X0.200000X0.450000X-0.200000X0.450000X0*%
%TD*%
%TA.AperFunction,ComponentPad*%
%ADD11O,0.800000X1.300000*%
%TD*%
%TA.AperFunction,ComponentPad*%
%ADD12C,0.900000*%
%TD*%
%TA.AperFunction,ComponentPad*%
%ADD13C,8.600000*%
%TD*%
%TA.AperFunction,ComponentPad*%
%ADD14RoundRect,0.200000X0.200000X0.450000X-0.200000X0.450000X-0.200000X-0.450000X0.200000X-0.450000X0*%
%TD*%
%TA.AperFunction,ComponentPad*%
%ADD15R,2.400000X2.400000*%
%TD*%
%TA.AperFunction,ComponentPad*%
%ADD16C,2.400000*%
%TD*%
%TA.AperFunction,ComponentPad*%
%ADD17O,1.900000X1.050000*%
%TD*%
%TA.AperFunction,ViaPad*%
%ADD18C,0.800000*%
%TD*%
G04 APERTURE END LIST*
D10*
%TO.N,+3.3V*%
%TO.C,J4*%
X137125000Y-119050000D03*
D11*
%TO.N,UART3_TX*%
X138375000Y-119050000D03*
%TO.N,UART3_RX*%
X139625000Y-119050000D03*
%TO.N,GND*%
X140875000Y-119050000D03*
%TD*%
D12*
%TO.N,GND*%
%TO.C,H3*%
X122525000Y-119500000D03*
X123469581Y-117219581D03*
X123469581Y-121780419D03*
X125750000Y-116275000D03*
D13*
X125750000Y-119500000D03*
D12*
X125750000Y-122725000D03*
X128030419Y-117219581D03*
X128030419Y-121780419D03*
X128975000Y-119500000D03*
%TD*%
D14*
%TO.N,+3.3V*%
%TO.C,J3*%
X140875000Y-79950000D03*
D11*
%TO.N,I2C1_SCL*%
X139625000Y-79950000D03*
%TO.N,I2C1_SDA*%
X138375000Y-79950000D03*
%TO.N,GND*%
X137125000Y-79950000D03*
%TD*%
D12*
%TO.N,GND*%
%TO.C,H4*%
X122525000Y-79500000D03*
X123469581Y-77219581D03*
X123469581Y-81780419D03*
X125750000Y-76275000D03*
D13*
X125750000Y-79500000D03*
D12*
X125750000Y-82725000D03*
X128030419Y-77219581D03*
X128030419Y-81780419D03*
X128975000Y-79500000D03*
%TD*%
%TO.N,GND*%
%TO.C,H1*%
X167525000Y-79500000D03*
X168469581Y-77219581D03*
X168469581Y-81780419D03*
X170750000Y-76275000D03*
D13*
X170750000Y-79500000D03*
D12*
X170750000Y-82725000D03*
X173030419Y-77219581D03*
X173030419Y-81780419D03*
X173975000Y-79500000D03*
%TD*%
%TO.N,GND*%
%TO.C,H2*%
X167525000Y-119500000D03*
X168469581Y-117219581D03*
X168469581Y-121780419D03*
X170750000Y-116275000D03*
D13*
X170750000Y-119500000D03*
D12*
X170750000Y-122725000D03*
X173030419Y-117219581D03*
X173030419Y-121780419D03*
X173975000Y-119500000D03*
%TD*%
D15*
%TO.N,+12V*%
%TO.C,J1*%
X169050000Y-106750000D03*
D16*
%TO.N,GND*%
X169050000Y-103250000D03*
%TD*%
D17*
%TO.N,unconnected-(J5-Shield-Pad6)*%
%TO.C,J5*%
X173950000Y-93575000D03*
X173950000Y-86425000D03*
%TD*%
D18*
%TO.N,GND*%
X146750000Y-93500000D03*
X147750000Y-93750000D03*
X165500000Y-109000000D03*
X163500000Y-102000000D03*
X169250000Y-88250000D03*
X155000000Y-120250000D03*
X159500000Y-79500000D03*
X131000000Y-100500000D03*
X154000000Y-75750000D03*
X145250000Y-108500000D03*
X162000000Y-106750000D03*
X130000000Y-105250000D03*
X167500000Y-88500000D03*
X166250000Y-111500000D03*
X125260000Y-92250000D03*
X157000000Y-120250000D03*
X131250000Y-92250000D03*
X157000000Y-117000000D03*
X129500000Y-94250000D03*
X157250000Y-107000000D03*
X135500000Y-107500000D03*
X165000000Y-102000000D03*
X164500000Y-108000000D03*
X164000000Y-106750000D03*
X160000000Y-111020400D03*
X160000000Y-113500000D03*
X169250000Y-87250000D03*
X137500000Y-92000000D03*
X170000000Y-87750000D03*
X127750000Y-101000000D03*
X155000000Y-117000000D03*
X132250000Y-100500000D03*
X170000000Y-88750000D03*
X132750000Y-95000000D03*
X146500000Y-106000000D03*
X150250000Y-75750000D03*
X167250000Y-112500000D03*
X152750000Y-75750000D03*
X157250000Y-105500000D03*
X126750000Y-99250000D03*
X131190000Y-97000000D03*
%TO.N,+3.3V*%
X152000000Y-115500000D03*
X141000000Y-81500000D03*
X133750000Y-91250000D03*
X154000000Y-115500000D03*
X151250000Y-114000000D03*
X152000000Y-118750000D03*
X132250000Y-96750000D03*
X154750000Y-114000000D03*
X154750000Y-112250000D03*
X146750000Y-95250000D03*
X138000000Y-107500000D03*
X125260000Y-87750000D03*
X128750000Y-102500000D03*
X156250000Y-77500000D03*
X144750000Y-104750000D03*
X135750000Y-91250000D03*
X137250000Y-89750000D03*
X161750000Y-114000000D03*
X151250000Y-112250000D03*
X128750000Y-104250000D03*
X159500000Y-77250000D03*
X162750000Y-115000000D03*
X154000000Y-118750000D03*
X140750000Y-89750000D03*
%TO.N,NRST*%
X142250000Y-90000000D03*
X142250000Y-96000000D03*
%TD*%
%TA.AperFunction,Conductor*%
%TO.N,GND*%
G36*
X170751279Y-74000552D02*
G01*
X170967428Y-74009493D01*
X170988030Y-74010392D01*
X171208385Y-74020013D01*
X171213320Y-74020427D01*
X171443212Y-74049083D01*
X171671925Y-74079194D01*
X171676490Y-74079972D01*
X171905404Y-74127970D01*
X172098797Y-74170845D01*
X172128677Y-74177470D01*
X172132939Y-74178575D01*
X172358024Y-74245586D01*
X172575459Y-74314144D01*
X172579315Y-74315502D01*
X172798122Y-74400881D01*
X172799145Y-74401293D01*
X173009004Y-74488219D01*
X173012437Y-74489768D01*
X173223780Y-74593087D01*
X173224903Y-74593653D01*
X173408775Y-74689371D01*
X173426130Y-74698406D01*
X173429239Y-74700139D01*
X173493866Y-74738648D01*
X173631362Y-74820578D01*
X173632842Y-74821490D01*
X173791072Y-74922294D01*
X173823955Y-74943243D01*
X173826669Y-74945074D01*
X174018180Y-75081810D01*
X174019897Y-75083081D01*
X174199600Y-75220971D01*
X174201892Y-75222822D01*
X174361107Y-75357670D01*
X174381476Y-75374921D01*
X174383292Y-75376521D01*
X174550252Y-75529511D01*
X174552183Y-75531359D01*
X174718638Y-75697814D01*
X174720487Y-75699746D01*
X174873477Y-75866706D01*
X174875077Y-75868522D01*
X175027167Y-76048094D01*
X175029045Y-76050421D01*
X175166917Y-76230101D01*
X175168188Y-76231818D01*
X175304924Y-76423329D01*
X175306755Y-76426043D01*
X175381780Y-76543807D01*
X175428486Y-76617120D01*
X175429439Y-76618667D01*
X175549859Y-76820759D01*
X175551592Y-76823868D01*
X175581706Y-76881715D01*
X175656313Y-77025034D01*
X175656946Y-77026288D01*
X175737675Y-77191421D01*
X175760220Y-77237539D01*
X175761792Y-77241024D01*
X175791084Y-77311740D01*
X175848675Y-77450778D01*
X175849153Y-77451967D01*
X175934487Y-77670659D01*
X175935859Y-77674553D01*
X176004434Y-77892043D01*
X176071420Y-78117049D01*
X176072528Y-78121321D01*
X176122042Y-78344658D01*
X176170022Y-78573488D01*
X176170812Y-78578120D01*
X176200908Y-78806728D01*
X176229569Y-79036662D01*
X176229986Y-79041629D01*
X176240511Y-79282687D01*
X176249447Y-79498718D01*
X176249500Y-79501280D01*
X176249500Y-119498719D01*
X176249447Y-119501281D01*
X176240511Y-119717312D01*
X176229986Y-119958369D01*
X176229569Y-119963336D01*
X176200908Y-120193270D01*
X176170812Y-120421878D01*
X176170022Y-120426510D01*
X176122042Y-120655340D01*
X176072528Y-120878677D01*
X176071420Y-120882949D01*
X176004434Y-121107955D01*
X175935859Y-121325445D01*
X175934487Y-121329339D01*
X175849153Y-121548031D01*
X175848675Y-121549220D01*
X175761801Y-121758955D01*
X175760220Y-121762459D01*
X175656973Y-121973657D01*
X175656267Y-121975056D01*
X175551592Y-122176130D01*
X175549859Y-122179239D01*
X175429439Y-122381331D01*
X175428468Y-122382907D01*
X175306755Y-122573955D01*
X175304924Y-122576669D01*
X175168188Y-122768180D01*
X175166917Y-122769897D01*
X175029045Y-122949577D01*
X175027167Y-122951904D01*
X174875077Y-123131476D01*
X174873477Y-123133292D01*
X174720487Y-123300252D01*
X174718616Y-123302207D01*
X174552207Y-123468616D01*
X174550252Y-123470487D01*
X174383292Y-123623477D01*
X174381476Y-123625077D01*
X174201904Y-123777167D01*
X174199577Y-123779045D01*
X174019897Y-123916917D01*
X174018180Y-123918188D01*
X173826669Y-124054924D01*
X173823955Y-124056755D01*
X173632907Y-124178468D01*
X173631331Y-124179439D01*
X173429239Y-124299859D01*
X173426130Y-124301592D01*
X173257589Y-124389330D01*
X173225028Y-124406280D01*
X173223657Y-124406973D01*
X173012459Y-124510220D01*
X173008955Y-124511801D01*
X172799220Y-124598675D01*
X172798031Y-124599153D01*
X172579339Y-124684487D01*
X172575445Y-124685859D01*
X172357955Y-124754434D01*
X172132949Y-124821420D01*
X172128677Y-124822528D01*
X171905340Y-124872042D01*
X171676510Y-124920022D01*
X171671878Y-124920812D01*
X171443270Y-124950908D01*
X171213336Y-124979569D01*
X171208369Y-124979986D01*
X170967422Y-124990506D01*
X170755874Y-124999257D01*
X170751280Y-124999447D01*
X170748720Y-124999500D01*
X125751280Y-124999500D01*
X125748719Y-124999447D01*
X125743779Y-124999242D01*
X125532576Y-124990506D01*
X125291629Y-124979986D01*
X125286662Y-124979569D01*
X125056728Y-124950908D01*
X124865637Y-124925751D01*
X124828116Y-124920811D01*
X124823488Y-124920022D01*
X124594658Y-124872042D01*
X124371321Y-124822528D01*
X124367049Y-124821420D01*
X124142043Y-124754434D01*
X123924553Y-124685859D01*
X123920659Y-124684487D01*
X123701967Y-124599153D01*
X123700778Y-124598675D01*
X123641462Y-124574106D01*
X123491024Y-124511792D01*
X123487539Y-124510220D01*
X123444847Y-124489349D01*
X123276288Y-124406946D01*
X123275034Y-124406313D01*
X123163706Y-124348360D01*
X123073868Y-124301592D01*
X123070759Y-124299859D01*
X122868667Y-124179439D01*
X122867120Y-124178486D01*
X122793807Y-124131780D01*
X122676043Y-124056755D01*
X122673329Y-124054924D01*
X122481818Y-123918188D01*
X122480101Y-123916917D01*
X122368876Y-123831572D01*
X122300409Y-123779035D01*
X122298094Y-123777167D01*
X122118522Y-123625077D01*
X122116706Y-123623477D01*
X121949746Y-123470487D01*
X121947814Y-123468638D01*
X121781359Y-123302183D01*
X121779511Y-123300252D01*
X121626521Y-123133292D01*
X121624921Y-123131476D01*
X121562698Y-123058009D01*
X121472822Y-122951892D01*
X121470971Y-122949600D01*
X121333081Y-122769897D01*
X121331810Y-122768180D01*
X121195074Y-122576669D01*
X121193243Y-122573955D01*
X121172294Y-122541072D01*
X121071490Y-122382842D01*
X121070578Y-122381362D01*
X120950139Y-122179239D01*
X120948406Y-122176130D01*
X120939371Y-122158775D01*
X120843653Y-121974903D01*
X120843087Y-121973780D01*
X120739768Y-121762437D01*
X120738219Y-121759004D01*
X120651293Y-121549145D01*
X120650881Y-121548122D01*
X120565502Y-121329315D01*
X120564144Y-121325459D01*
X120495586Y-121108024D01*
X120428575Y-120882939D01*
X120427470Y-120878677D01*
X120405207Y-120778258D01*
X120377957Y-120655340D01*
X120329972Y-120426490D01*
X120329194Y-120421925D01*
X120299083Y-120193212D01*
X120270427Y-119963320D01*
X120270013Y-119958385D01*
X120259488Y-119717312D01*
X120257452Y-119668084D01*
X120250550Y-119501232D01*
X120250525Y-119500003D01*
X120945162Y-119500003D01*
X120964504Y-119930692D01*
X120964505Y-119930701D01*
X121022378Y-120357938D01*
X121118313Y-120778258D01*
X121251542Y-121188296D01*
X121251545Y-121188304D01*
X121420985Y-121584730D01*
X121420989Y-121584738D01*
X121625294Y-121964399D01*
X121862799Y-122324207D01*
X121862800Y-122324208D01*
X122099122Y-122620546D01*
X122967409Y-121752259D01*
X123165686Y-121752259D01*
X123176035Y-121863940D01*
X123226029Y-121964341D01*
X123308915Y-122039903D01*
X123413501Y-122080419D01*
X123497383Y-122080419D01*
X123579831Y-122065007D01*
X123675191Y-122005962D01*
X123742782Y-121916457D01*
X123773476Y-121808579D01*
X123763127Y-121696898D01*
X123713133Y-121596497D01*
X123630247Y-121520935D01*
X123525661Y-121480419D01*
X123441779Y-121480419D01*
X123359331Y-121495831D01*
X123263971Y-121554876D01*
X123196380Y-121644381D01*
X123165686Y-121752259D01*
X122967409Y-121752259D01*
X123984682Y-120734986D01*
X123989410Y-120742760D01*
X124175031Y-120970918D01*
X124389990Y-121171676D01*
X124518172Y-121262156D01*
X122631224Y-123149104D01*
X122631224Y-123149105D01*
X122754235Y-123256576D01*
X123103024Y-123509986D01*
X123473140Y-123731120D01*
X123473146Y-123731123D01*
X123861569Y-123918178D01*
X123861583Y-123918184D01*
X124265209Y-124069667D01*
X124265234Y-124069675D01*
X124680816Y-124184369D01*
X125105023Y-124261351D01*
X125534435Y-124299999D01*
X125534438Y-124300000D01*
X125965562Y-124300000D01*
X125965564Y-124299999D01*
X126394976Y-124261351D01*
X126819183Y-124184369D01*
X127234765Y-124069675D01*
X127234790Y-124069667D01*
X127638416Y-123918184D01*
X127638430Y-123918178D01*
X128026853Y-123731123D01*
X128026859Y-123731120D01*
X128396975Y-123509986D01*
X128745755Y-123256582D01*
X128745785Y-123256558D01*
X128868774Y-123149105D01*
X128868774Y-123149104D01*
X127471929Y-121752259D01*
X127726524Y-121752259D01*
X127736873Y-121863940D01*
X127786867Y-121964341D01*
X127869753Y-122039903D01*
X127974339Y-122080419D01*
X128058221Y-122080419D01*
X128140669Y-122065007D01*
X128236029Y-122005962D01*
X128303620Y-121916457D01*
X128334314Y-121808579D01*
X128323965Y-121696898D01*
X128273971Y-121596497D01*
X128191085Y-121520935D01*
X128086499Y-121480419D01*
X128002617Y-121480419D01*
X127920169Y-121495831D01*
X127824809Y-121554876D01*
X127757218Y-121644381D01*
X127726524Y-121752259D01*
X127471929Y-121752259D01*
X126981827Y-121262157D01*
X127110010Y-121171676D01*
X127324969Y-120970918D01*
X127510590Y-120742760D01*
X127515316Y-120734987D01*
X129400875Y-122620546D01*
X129637199Y-122324208D01*
X129637200Y-122324207D01*
X129874705Y-121964399D01*
X130079010Y-121584738D01*
X130079014Y-121584730D01*
X130248454Y-121188304D01*
X130248457Y-121188296D01*
X130381686Y-120778258D01*
X130477621Y-120357938D01*
X130535494Y-119930701D01*
X130535495Y-119930692D01*
X130552296Y-119556613D01*
X136224500Y-119556613D01*
X136230913Y-119627192D01*
X136281522Y-119789606D01*
X136369530Y-119935188D01*
X136489811Y-120055469D01*
X136489813Y-120055470D01*
X136489815Y-120055472D01*
X136635394Y-120143478D01*
X136797804Y-120194086D01*
X136868384Y-120200500D01*
X136868387Y-120200500D01*
X137381613Y-120200500D01*
X137381616Y-120200500D01*
X137452196Y-120194086D01*
X137614606Y-120143478D01*
X137756671Y-120057596D01*
X137824222Y-120039761D01*
X137890696Y-120061278D01*
X137893669Y-120063372D01*
X137921670Y-120083715D01*
X137922270Y-120084151D01*
X138095192Y-120161142D01*
X138095197Y-120161144D01*
X138280354Y-120200500D01*
X138280355Y-120200500D01*
X138469644Y-120200500D01*
X138469646Y-120200500D01*
X138654803Y-120161144D01*
X138827730Y-120084151D01*
X138927114Y-120011944D01*
X138992921Y-119988464D01*
X139060975Y-120004289D01*
X139072885Y-120011944D01*
X139172265Y-120084148D01*
X139172270Y-120084151D01*
X139345192Y-120161142D01*
X139345197Y-120161144D01*
X139530354Y-120200500D01*
X139530355Y-120200500D01*
X139719644Y-120200500D01*
X139719646Y-120200500D01*
X139904803Y-120161144D01*
X140077730Y-120084151D01*
X140177541Y-120011634D01*
X140243346Y-119988155D01*
X140311400Y-120003980D01*
X140323311Y-120011635D01*
X140422521Y-120083715D01*
X140499999Y-120118210D01*
X140500000Y-120118210D01*
X140500000Y-119540746D01*
X140506068Y-119502430D01*
X140510674Y-119488256D01*
X140517322Y-119425000D01*
X141250000Y-119425000D01*
X141250000Y-120118210D01*
X141327476Y-120083717D01*
X141480535Y-119972512D01*
X141607127Y-119831918D01*
X141607129Y-119831915D01*
X141701716Y-119668084D01*
X141701721Y-119668072D01*
X141760182Y-119488149D01*
X141766819Y-119425000D01*
X141250000Y-119425000D01*
X140517322Y-119425000D01*
X140525500Y-119347192D01*
X140525500Y-119050000D01*
X140620102Y-119050000D01*
X140639505Y-119147545D01*
X140694760Y-119230240D01*
X140777455Y-119285495D01*
X140850376Y-119300000D01*
X140899624Y-119300000D01*
X140972545Y-119285495D01*
X141055240Y-119230240D01*
X141110495Y-119147545D01*
X141129898Y-119050000D01*
X141110495Y-118952455D01*
X141055240Y-118869760D01*
X140972545Y-118814505D01*
X140899624Y-118800000D01*
X140850376Y-118800000D01*
X140777455Y-118814505D01*
X140694760Y-118869760D01*
X140639505Y-118952455D01*
X140620102Y-119050000D01*
X140525500Y-119050000D01*
X140525500Y-118752808D01*
X140525205Y-118750000D01*
X151094540Y-118750000D01*
X151114326Y-118938256D01*
X151114327Y-118938259D01*
X151172818Y-119118277D01*
X151172821Y-119118284D01*
X151267467Y-119282216D01*
X151325972Y-119347192D01*
X151394129Y-119422888D01*
X151547265Y-119534148D01*
X151547270Y-119534151D01*
X151720192Y-119611142D01*
X151720197Y-119611144D01*
X151905354Y-119650500D01*
X151905355Y-119650500D01*
X152094644Y-119650500D01*
X152094646Y-119650500D01*
X152279803Y-119611144D01*
X152452730Y-119534151D01*
X152605871Y-119422888D01*
X152732533Y-119282216D01*
X152827179Y-119118284D01*
X152882069Y-118949348D01*
X152921505Y-118891676D01*
X152985863Y-118864477D01*
X153054710Y-118876391D01*
X153106186Y-118923635D01*
X153117930Y-118949350D01*
X153172819Y-119118280D01*
X153172821Y-119118284D01*
X153267467Y-119282216D01*
X153325972Y-119347192D01*
X153394129Y-119422888D01*
X153547265Y-119534148D01*
X153547270Y-119534151D01*
X153720192Y-119611142D01*
X153720197Y-119611144D01*
X153905354Y-119650500D01*
X153905355Y-119650500D01*
X154094644Y-119650500D01*
X154094646Y-119650500D01*
X154279803Y-119611144D01*
X154452730Y-119534151D01*
X154499731Y-119500003D01*
X165945162Y-119500003D01*
X165964504Y-119930692D01*
X165964505Y-119930701D01*
X166022378Y-120357938D01*
X166118313Y-120778258D01*
X166251542Y-121188296D01*
X166251545Y-121188304D01*
X166420985Y-121584730D01*
X166420989Y-121584738D01*
X166625294Y-121964399D01*
X166862799Y-122324207D01*
X166862800Y-122324208D01*
X167099122Y-122620546D01*
X167967409Y-121752259D01*
X168165686Y-121752259D01*
X168176035Y-121863940D01*
X168226029Y-121964341D01*
X168308915Y-122039903D01*
X168413501Y-122080419D01*
X168497383Y-122080419D01*
X168579831Y-122065007D01*
X168675191Y-122005962D01*
X168742782Y-121916457D01*
X168773476Y-121808579D01*
X168763127Y-121696898D01*
X168713133Y-121596497D01*
X168630247Y-121520935D01*
X168525661Y-121480419D01*
X168441779Y-121480419D01*
X168359331Y-121495831D01*
X168263971Y-121554876D01*
X168196380Y-121644381D01*
X168165686Y-121752259D01*
X167967409Y-121752259D01*
X168984682Y-120734986D01*
X168989410Y-120742760D01*
X169175031Y-120970918D01*
X169389990Y-121171676D01*
X169518172Y-121262156D01*
X167631224Y-123149104D01*
X167631224Y-123149105D01*
X167754235Y-123256576D01*
X168103024Y-123509986D01*
X168473140Y-123731120D01*
X168473146Y-123731123D01*
X168861569Y-123918178D01*
X168861583Y-123918184D01*
X169265209Y-124069667D01*
X169265234Y-124069675D01*
X169680816Y-124184369D01*
X170105023Y-124261351D01*
X170534435Y-124299999D01*
X170534438Y-124300000D01*
X170965562Y-124300000D01*
X170965564Y-124299999D01*
X171394976Y-124261351D01*
X171819183Y-124184369D01*
X172234765Y-124069675D01*
X172234790Y-124069667D01*
X172638416Y-123918184D01*
X172638430Y-123918178D01*
X173026853Y-123731123D01*
X173026859Y-123731120D01*
X173396975Y-123509986D01*
X173745755Y-123256582D01*
X173745785Y-123256558D01*
X173868774Y-123149105D01*
X173868774Y-123149104D01*
X172471929Y-121752259D01*
X172726524Y-121752259D01*
X172736873Y-121863940D01*
X172786867Y-121964341D01*
X172869753Y-122039903D01*
X172974339Y-122080419D01*
X173058221Y-122080419D01*
X173140669Y-122065007D01*
X173236029Y-122005962D01*
X173303620Y-121916457D01*
X173334314Y-121808579D01*
X173323965Y-121696898D01*
X173273971Y-121596497D01*
X173191085Y-121520935D01*
X173086499Y-121480419D01*
X173002617Y-121480419D01*
X172920169Y-121495831D01*
X172824809Y-121554876D01*
X172757218Y-121644381D01*
X172726524Y-121752259D01*
X172471929Y-121752259D01*
X171981827Y-121262157D01*
X172110010Y-121171676D01*
X172324969Y-120970918D01*
X172510590Y-120742760D01*
X172515316Y-120734987D01*
X174400875Y-122620546D01*
X174637199Y-122324208D01*
X174637200Y-122324207D01*
X174874705Y-121964399D01*
X175079010Y-121584738D01*
X175079014Y-121584730D01*
X175248454Y-121188304D01*
X175248457Y-121188296D01*
X175381686Y-120778258D01*
X175477621Y-120357938D01*
X175535494Y-119930701D01*
X175535495Y-119930692D01*
X175554838Y-119500003D01*
X175554838Y-119499996D01*
X175535495Y-119069307D01*
X175535494Y-119069298D01*
X175477621Y-118642061D01*
X175381686Y-118221741D01*
X175248457Y-117811703D01*
X175248454Y-117811695D01*
X175079014Y-117415269D01*
X175079010Y-117415261D01*
X174874705Y-117035600D01*
X174637200Y-116675792D01*
X174637199Y-116675791D01*
X174400875Y-116379452D01*
X172515316Y-118265011D01*
X172510590Y-118257240D01*
X172324969Y-118029082D01*
X172110010Y-117828324D01*
X171981826Y-117737841D01*
X172528246Y-117191421D01*
X172726524Y-117191421D01*
X172736873Y-117303102D01*
X172786867Y-117403503D01*
X172869753Y-117479065D01*
X172974339Y-117519581D01*
X173058221Y-117519581D01*
X173140669Y-117504169D01*
X173236029Y-117445124D01*
X173303620Y-117355619D01*
X173334314Y-117247741D01*
X173323965Y-117136060D01*
X173273971Y-117035659D01*
X173191085Y-116960097D01*
X173086499Y-116919581D01*
X173002617Y-116919581D01*
X172920169Y-116934993D01*
X172824809Y-116994038D01*
X172757218Y-117083543D01*
X172726524Y-117191421D01*
X172528246Y-117191421D01*
X173868774Y-115850894D01*
X173868774Y-115850893D01*
X173745764Y-115743423D01*
X173396975Y-115490013D01*
X173026859Y-115268879D01*
X173026853Y-115268876D01*
X172638430Y-115081821D01*
X172638416Y-115081815D01*
X172234790Y-114930332D01*
X172234765Y-114930324D01*
X171819183Y-114815630D01*
X171394976Y-114738648D01*
X170965564Y-114700000D01*
X170534435Y-114700000D01*
X170105023Y-114738648D01*
X169680816Y-114815630D01*
X169265234Y-114930324D01*
X169265209Y-114930332D01*
X168861583Y-115081815D01*
X168861569Y-115081821D01*
X168473146Y-115268876D01*
X168473140Y-115268879D01*
X168103024Y-115490013D01*
X167754242Y-115743419D01*
X167631224Y-115850894D01*
X169518172Y-117737842D01*
X169389990Y-117828324D01*
X169175031Y-118029082D01*
X168989410Y-118257240D01*
X168984683Y-118265013D01*
X167911091Y-117191421D01*
X168165686Y-117191421D01*
X168176035Y-117303102D01*
X168226029Y-117403503D01*
X168308915Y-117479065D01*
X168413501Y-117519581D01*
X168497383Y-117519581D01*
X168579831Y-117504169D01*
X168675191Y-117445124D01*
X168742782Y-117355619D01*
X168773476Y-117247741D01*
X168763127Y-117136060D01*
X168713133Y-117035659D01*
X168630247Y-116960097D01*
X168525661Y-116919581D01*
X168441779Y-116919581D01*
X168359331Y-116934993D01*
X168263971Y-116994038D01*
X168196380Y-117083543D01*
X168165686Y-117191421D01*
X167911091Y-117191421D01*
X167099122Y-116379452D01*
X166862800Y-116675791D01*
X166862799Y-116675792D01*
X166625294Y-117035600D01*
X166420989Y-117415261D01*
X166420985Y-117415269D01*
X166251545Y-117811695D01*
X166251542Y-117811703D01*
X166118313Y-118221741D01*
X166022378Y-118642061D01*
X165964505Y-119069298D01*
X165964504Y-119069307D01*
X165945162Y-119499996D01*
X165945162Y-119500003D01*
X154499731Y-119500003D01*
X154605871Y-119422888D01*
X154732533Y-119282216D01*
X154827179Y-119118284D01*
X154885674Y-118938256D01*
X154905460Y-118750000D01*
X154885674Y-118561744D01*
X154827179Y-118381716D01*
X154732533Y-118217784D01*
X154605871Y-118077112D01*
X154605870Y-118077111D01*
X154452734Y-117965851D01*
X154452729Y-117965848D01*
X154279807Y-117888857D01*
X154279802Y-117888855D01*
X154134000Y-117857865D01*
X154094646Y-117849500D01*
X153905354Y-117849500D01*
X153872897Y-117856398D01*
X153720197Y-117888855D01*
X153720192Y-117888857D01*
X153547270Y-117965848D01*
X153547265Y-117965851D01*
X153394129Y-118077111D01*
X153267466Y-118217785D01*
X153172821Y-118381715D01*
X153172818Y-118381722D01*
X153117931Y-118550648D01*
X153078493Y-118608324D01*
X153014135Y-118635522D01*
X152945288Y-118623607D01*
X152893813Y-118576363D01*
X152882069Y-118550648D01*
X152827181Y-118381722D01*
X152827180Y-118381721D01*
X152827179Y-118381716D01*
X152732533Y-118217784D01*
X152605871Y-118077112D01*
X152605870Y-118077111D01*
X152452734Y-117965851D01*
X152452729Y-117965848D01*
X152279807Y-117888857D01*
X152279802Y-117888855D01*
X152134000Y-117857865D01*
X152094646Y-117849500D01*
X151905354Y-117849500D01*
X151872897Y-117856398D01*
X151720197Y-117888855D01*
X151720192Y-117888857D01*
X151547270Y-117965848D01*
X151547265Y-117965851D01*
X151394129Y-118077111D01*
X151267466Y-118217785D01*
X151172821Y-118381715D01*
X151172818Y-118381722D01*
X151120291Y-118543386D01*
X151114326Y-118561744D01*
X151094540Y-118750000D01*
X140525205Y-118750000D01*
X140510674Y-118611744D01*
X140506069Y-118597571D01*
X140500000Y-118559253D01*
X140500000Y-117981788D01*
X141249999Y-117981788D01*
X141249999Y-118674999D01*
X141250001Y-118675000D01*
X141766818Y-118675000D01*
X141760182Y-118611850D01*
X141701721Y-118431927D01*
X141701716Y-118431915D01*
X141607129Y-118268084D01*
X141607127Y-118268081D01*
X141480539Y-118127490D01*
X141480536Y-118127488D01*
X141327477Y-118016282D01*
X141249999Y-117981788D01*
X140500000Y-117981788D01*
X140500000Y-117981787D01*
X140422521Y-118016283D01*
X140323310Y-118088365D01*
X140257504Y-118111845D01*
X140189450Y-118096019D01*
X140177548Y-118088371D01*
X140095944Y-118029082D01*
X140077729Y-118015848D01*
X139904807Y-117938857D01*
X139904802Y-117938855D01*
X139749817Y-117905913D01*
X139719646Y-117899500D01*
X139530354Y-117899500D01*
X139500183Y-117905913D01*
X139345197Y-117938855D01*
X139345192Y-117938857D01*
X139172270Y-118015848D01*
X139172266Y-118015850D01*
X139072883Y-118088056D01*
X139007077Y-118111535D01*
X138939023Y-118095709D01*
X138927114Y-118088055D01*
X138827734Y-118015851D01*
X138827729Y-118015848D01*
X138654807Y-117938857D01*
X138654802Y-117938855D01*
X138499817Y-117905913D01*
X138469646Y-117899500D01*
X138280354Y-117899500D01*
X138250183Y-117905913D01*
X138095197Y-117938855D01*
X138095192Y-117938857D01*
X137922271Y-118015848D01*
X137893701Y-118036605D01*
X137827894Y-118060083D01*
X137759840Y-118044256D01*
X137756668Y-118042402D01*
X137614606Y-117956522D01*
X137557916Y-117938857D01*
X137452196Y-117905914D01*
X137452194Y-117905913D01*
X137452192Y-117905913D01*
X137402778Y-117901423D01*
X137381616Y-117899500D01*
X136868384Y-117899500D01*
X136849145Y-117901248D01*
X136797807Y-117905913D01*
X136635393Y-117956522D01*
X136489811Y-118044530D01*
X136369530Y-118164811D01*
X136281522Y-118310393D01*
X136230913Y-118472807D01*
X136224500Y-118543386D01*
X136224500Y-119556613D01*
X130552296Y-119556613D01*
X130554838Y-119500003D01*
X130554838Y-119499996D01*
X130535495Y-119069307D01*
X130535494Y-119069298D01*
X130477621Y-118642061D01*
X130381686Y-118221741D01*
X130248457Y-117811703D01*
X130248454Y-117811695D01*
X130079014Y-117415269D01*
X130079010Y-117415261D01*
X129874705Y-117035600D01*
X129637200Y-116675792D01*
X129637199Y-116675791D01*
X129400875Y-116379452D01*
X127515316Y-118265011D01*
X127510590Y-118257240D01*
X127324969Y-118029082D01*
X127110010Y-117828324D01*
X126981826Y-117737841D01*
X127528246Y-117191421D01*
X127726524Y-117191421D01*
X127736873Y-117303102D01*
X127786867Y-117403503D01*
X127869753Y-117479065D01*
X127974339Y-117519581D01*
X128058221Y-117519581D01*
X128140669Y-117504169D01*
X128236029Y-117445124D01*
X128303620Y-117355619D01*
X128334314Y-117247741D01*
X128323965Y-117136060D01*
X128273971Y-117035659D01*
X128191085Y-116960097D01*
X128086499Y-116919581D01*
X128002617Y-116919581D01*
X127920169Y-116934993D01*
X127824809Y-116994038D01*
X127757218Y-117083543D01*
X127726524Y-117191421D01*
X127528246Y-117191421D01*
X128868774Y-115850894D01*
X128868774Y-115850893D01*
X128745764Y-115743423D01*
X128396975Y-115490013D01*
X128026859Y-115268879D01*
X128026853Y-115268876D01*
X127638430Y-115081821D01*
X127638416Y-115081815D01*
X127234790Y-114930332D01*
X127234765Y-114930324D01*
X126819183Y-114815630D01*
X126394976Y-114738648D01*
X125965564Y-114700000D01*
X125534435Y-114700000D01*
X125105023Y-114738648D01*
X124680816Y-114815630D01*
X124265234Y-114930324D01*
X124265209Y-114930332D01*
X123861583Y-115081815D01*
X123861569Y-115081821D01*
X123473146Y-115268876D01*
X123473140Y-115268879D01*
X123103024Y-115490013D01*
X122754242Y-115743419D01*
X122631224Y-115850894D01*
X124518172Y-117737842D01*
X124389990Y-117828324D01*
X124175031Y-118029082D01*
X123989410Y-118257240D01*
X123984683Y-118265013D01*
X122911091Y-117191421D01*
X123165686Y-117191421D01*
X123176035Y-117303102D01*
X123226029Y-117403503D01*
X123308915Y-117479065D01*
X123413501Y-117519581D01*
X123497383Y-117519581D01*
X123579831Y-117504169D01*
X123675191Y-117445124D01*
X123742782Y-117355619D01*
X123773476Y-117247741D01*
X123763127Y-117136060D01*
X123713133Y-117035659D01*
X123630247Y-116960097D01*
X123525661Y-116919581D01*
X123441779Y-116919581D01*
X123359331Y-116934993D01*
X123263971Y-116994038D01*
X123196380Y-117083543D01*
X123165686Y-117191421D01*
X122911091Y-117191421D01*
X122099122Y-116379452D01*
X121862800Y-116675791D01*
X121862799Y-116675792D01*
X121625294Y-117035600D01*
X121420989Y-117415261D01*
X121420985Y-117415269D01*
X121251545Y-117811695D01*
X121251542Y-117811703D01*
X121118313Y-118221741D01*
X121022378Y-118642061D01*
X120964505Y-119069298D01*
X120964504Y-119069307D01*
X120945162Y-119499996D01*
X120945162Y-119500003D01*
X120250525Y-119500003D01*
X120250500Y-119498768D01*
X120250500Y-114000000D01*
X150344540Y-114000000D01*
X150364326Y-114188256D01*
X150364327Y-114188259D01*
X150422818Y-114368277D01*
X150422819Y-114368279D01*
X150422821Y-114368284D01*
X150517467Y-114532216D01*
X150613487Y-114638857D01*
X150644129Y-114672888D01*
X150797265Y-114784148D01*
X150797270Y-114784151D01*
X150970192Y-114861142D01*
X150970193Y-114861142D01*
X150970197Y-114861144D01*
X151122871Y-114893595D01*
X151184352Y-114926787D01*
X151218129Y-114987950D01*
X151213477Y-115057664D01*
X151204478Y-115076884D01*
X151172820Y-115131717D01*
X151172818Y-115131722D01*
X151117931Y-115300648D01*
X151114326Y-115311744D01*
X151094540Y-115500000D01*
X151114326Y-115688256D01*
X151114327Y-115688259D01*
X151172818Y-115868277D01*
X151172821Y-115868284D01*
X151267467Y-116032216D01*
X151320467Y-116091078D01*
X151394129Y-116172888D01*
X151547265Y-116284148D01*
X151547270Y-116284151D01*
X151720192Y-116361142D01*
X151720197Y-116361144D01*
X151905354Y-116400500D01*
X151905355Y-116400500D01*
X152094644Y-116400500D01*
X152094646Y-116400500D01*
X152279803Y-116361144D01*
X152452730Y-116284151D01*
X152605871Y-116172888D01*
X152732533Y-116032216D01*
X152827179Y-115868284D01*
X152882068Y-115699351D01*
X152921506Y-115641675D01*
X152985865Y-115614477D01*
X153054711Y-115626392D01*
X153106187Y-115673636D01*
X153117931Y-115699351D01*
X153172818Y-115868277D01*
X153172821Y-115868284D01*
X153267467Y-116032216D01*
X153320467Y-116091078D01*
X153394129Y-116172888D01*
X153547265Y-116284148D01*
X153547270Y-116284151D01*
X153720192Y-116361142D01*
X153720197Y-116361144D01*
X153905354Y-116400500D01*
X153905355Y-116400500D01*
X154094644Y-116400500D01*
X154094646Y-116400500D01*
X154279803Y-116361144D01*
X154452730Y-116284151D01*
X154605871Y-116172888D01*
X154732533Y-116032216D01*
X154827179Y-115868284D01*
X154885674Y-115688256D01*
X154905460Y-115500000D01*
X154885674Y-115311744D01*
X154827179Y-115131716D01*
X154795521Y-115076883D01*
X154779049Y-115008985D01*
X154801902Y-114942958D01*
X154856823Y-114899767D01*
X154877111Y-114893599D01*
X155029803Y-114861144D01*
X155029807Y-114861142D01*
X155029808Y-114861142D01*
X155106241Y-114827111D01*
X155202730Y-114784151D01*
X155355871Y-114672888D01*
X155482533Y-114532216D01*
X155577179Y-114368284D01*
X155635674Y-114188256D01*
X155655460Y-114000000D01*
X160844540Y-114000000D01*
X160864326Y-114188256D01*
X160864327Y-114188259D01*
X160922818Y-114368277D01*
X160922819Y-114368279D01*
X160922821Y-114368284D01*
X161017467Y-114532216D01*
X161113487Y-114638857D01*
X161144129Y-114672888D01*
X161297265Y-114784148D01*
X161297270Y-114784151D01*
X161470192Y-114861142D01*
X161470197Y-114861144D01*
X161655354Y-114900500D01*
X161655355Y-114900500D01*
X161722432Y-114900500D01*
X161789471Y-114920185D01*
X161835226Y-114972989D01*
X161845752Y-115011535D01*
X161864326Y-115188256D01*
X161864327Y-115188259D01*
X161922818Y-115368277D01*
X161922821Y-115368284D01*
X162017467Y-115532216D01*
X162102264Y-115626392D01*
X162144129Y-115672888D01*
X162297265Y-115784148D01*
X162297270Y-115784151D01*
X162470192Y-115861142D01*
X162470197Y-115861144D01*
X162655354Y-115900500D01*
X162655355Y-115900500D01*
X162844644Y-115900500D01*
X162844646Y-115900500D01*
X163029803Y-115861144D01*
X163202730Y-115784151D01*
X163355871Y-115672888D01*
X163482533Y-115532216D01*
X163577179Y-115368284D01*
X163635674Y-115188256D01*
X163655460Y-115000000D01*
X163635674Y-114811744D01*
X163577179Y-114631716D01*
X163482533Y-114467784D01*
X163355871Y-114327112D01*
X163355870Y-114327111D01*
X163202734Y-114215851D01*
X163202729Y-114215848D01*
X163029807Y-114138857D01*
X163029802Y-114138855D01*
X162884001Y-114107865D01*
X162844646Y-114099500D01*
X162777568Y-114099500D01*
X162710529Y-114079815D01*
X162664774Y-114027011D01*
X162654247Y-113988462D01*
X162635674Y-113811744D01*
X162577179Y-113631716D01*
X162482533Y-113467784D01*
X162355871Y-113327112D01*
X162355870Y-113327111D01*
X162202734Y-113215851D01*
X162202729Y-113215848D01*
X162029807Y-113138857D01*
X162029802Y-113138855D01*
X161884000Y-113107865D01*
X161844646Y-113099500D01*
X161655354Y-113099500D01*
X161622897Y-113106398D01*
X161470197Y-113138855D01*
X161470192Y-113138857D01*
X161297270Y-113215848D01*
X161297265Y-113215851D01*
X161144129Y-113327111D01*
X161017466Y-113467785D01*
X160922821Y-113631715D01*
X160922818Y-113631722D01*
X160864327Y-113811740D01*
X160864326Y-113811744D01*
X160844540Y-114000000D01*
X155655460Y-114000000D01*
X155635674Y-113811744D01*
X155577179Y-113631716D01*
X155482533Y-113467784D01*
X155355871Y-113327112D01*
X155215762Y-113225317D01*
X155173097Y-113169987D01*
X155167118Y-113100374D01*
X155199724Y-113038579D01*
X155215748Y-113024692D01*
X155355871Y-112922888D01*
X155482533Y-112782216D01*
X155577179Y-112618284D01*
X155635674Y-112438256D01*
X155655460Y-112250000D01*
X155635674Y-112061744D01*
X155577179Y-111881716D01*
X155482533Y-111717784D01*
X155355871Y-111577112D01*
X155355870Y-111577111D01*
X155202734Y-111465851D01*
X155202729Y-111465848D01*
X155029807Y-111388857D01*
X155029802Y-111388855D01*
X154884001Y-111357865D01*
X154844646Y-111349500D01*
X154655354Y-111349500D01*
X154622897Y-111356398D01*
X154470197Y-111388855D01*
X154470192Y-111388857D01*
X154297270Y-111465848D01*
X154297265Y-111465851D01*
X154144129Y-111577111D01*
X154017466Y-111717785D01*
X153922821Y-111881715D01*
X153922818Y-111881722D01*
X153864327Y-112061740D01*
X153864326Y-112061744D01*
X153844540Y-112250000D01*
X153864326Y-112438256D01*
X153864327Y-112438259D01*
X153922818Y-112618277D01*
X153922821Y-112618284D01*
X154017467Y-112782216D01*
X154144126Y-112922885D01*
X154144129Y-112922888D01*
X154284236Y-113024682D01*
X154326902Y-113080012D01*
X154332881Y-113149625D01*
X154300275Y-113211420D01*
X154284236Y-113225318D01*
X154144129Y-113327111D01*
X154017466Y-113467785D01*
X153922821Y-113631715D01*
X153922818Y-113631722D01*
X153864327Y-113811740D01*
X153864326Y-113811744D01*
X153844540Y-114000000D01*
X153864326Y-114188256D01*
X153864327Y-114188259D01*
X153922818Y-114368277D01*
X153922823Y-114368289D01*
X153954477Y-114423115D01*
X153970950Y-114491015D01*
X153948097Y-114557042D01*
X153893176Y-114600232D01*
X153872871Y-114606404D01*
X153720197Y-114638855D01*
X153720192Y-114638857D01*
X153547270Y-114715848D01*
X153547265Y-114715851D01*
X153394129Y-114827111D01*
X153267466Y-114967785D01*
X153172821Y-115131715D01*
X153172819Y-115131719D01*
X153117930Y-115300649D01*
X153078492Y-115358324D01*
X153014133Y-115385522D01*
X152945287Y-115373607D01*
X152893811Y-115326363D01*
X152882070Y-115300653D01*
X152827179Y-115131716D01*
X152732533Y-114967784D01*
X152605871Y-114827112D01*
X152605870Y-114827111D01*
X152452734Y-114715851D01*
X152452729Y-114715848D01*
X152279807Y-114638857D01*
X152279802Y-114638855D01*
X152127128Y-114606404D01*
X152065646Y-114573212D01*
X152031870Y-114512049D01*
X152036522Y-114442334D01*
X152045515Y-114423126D01*
X152077179Y-114368284D01*
X152135674Y-114188256D01*
X152155460Y-114000000D01*
X152135674Y-113811744D01*
X152077179Y-113631716D01*
X151982533Y-113467784D01*
X151855871Y-113327112D01*
X151715762Y-113225317D01*
X151673097Y-113169987D01*
X151667118Y-113100374D01*
X151699724Y-113038579D01*
X151715748Y-113024692D01*
X151855871Y-112922888D01*
X151982533Y-112782216D01*
X152077179Y-112618284D01*
X152135674Y-112438256D01*
X152155460Y-112250000D01*
X152135674Y-112061744D01*
X152077179Y-111881716D01*
X151982533Y-111717784D01*
X151855871Y-111577112D01*
X151855870Y-111577111D01*
X151702734Y-111465851D01*
X151702729Y-111465848D01*
X151529807Y-111388857D01*
X151529802Y-111388855D01*
X151384000Y-111357865D01*
X151344646Y-111349500D01*
X151155354Y-111349500D01*
X151122897Y-111356398D01*
X150970197Y-111388855D01*
X150970192Y-111388857D01*
X150797270Y-111465848D01*
X150797265Y-111465851D01*
X150644129Y-111577111D01*
X150517466Y-111717785D01*
X150422821Y-111881715D01*
X150422818Y-111881722D01*
X150364327Y-112061740D01*
X150364326Y-112061744D01*
X150344540Y-112250000D01*
X150364326Y-112438256D01*
X150364327Y-112438259D01*
X150422818Y-112618277D01*
X150422821Y-112618284D01*
X150517467Y-112782216D01*
X150644126Y-112922885D01*
X150644129Y-112922888D01*
X150784236Y-113024682D01*
X150826902Y-113080012D01*
X150832881Y-113149625D01*
X150800275Y-113211420D01*
X150784236Y-113225318D01*
X150644129Y-113327111D01*
X150517466Y-113467785D01*
X150422821Y-113631715D01*
X150422818Y-113631722D01*
X150364327Y-113811740D01*
X150364326Y-113811744D01*
X150344540Y-114000000D01*
X120250500Y-114000000D01*
X120250500Y-107500000D01*
X137094540Y-107500000D01*
X137114326Y-107688256D01*
X137114327Y-107688259D01*
X137172818Y-107868277D01*
X137172821Y-107868284D01*
X137267467Y-108032216D01*
X137290217Y-108057482D01*
X137394129Y-108172888D01*
X137547265Y-108284148D01*
X137547270Y-108284151D01*
X137720192Y-108361142D01*
X137720197Y-108361144D01*
X137905354Y-108400500D01*
X137905355Y-108400500D01*
X138094644Y-108400500D01*
X138094646Y-108400500D01*
X138279803Y-108361144D01*
X138452730Y-108284151D01*
X138605871Y-108172888D01*
X138732533Y-108032216D01*
X138827179Y-107868284D01*
X138885674Y-107688256D01*
X138905460Y-107500000D01*
X138885674Y-107311744D01*
X138827179Y-107131716D01*
X138732533Y-106967784D01*
X138605871Y-106827112D01*
X138605870Y-106827111D01*
X138452734Y-106715851D01*
X138452729Y-106715848D01*
X138279807Y-106638857D01*
X138279802Y-106638855D01*
X138134000Y-106607865D01*
X138094646Y-106599500D01*
X137905354Y-106599500D01*
X137872897Y-106606398D01*
X137720197Y-106638855D01*
X137720192Y-106638857D01*
X137547270Y-106715848D01*
X137547265Y-106715851D01*
X137394129Y-106827111D01*
X137267466Y-106967785D01*
X137172821Y-107131715D01*
X137172818Y-107131722D01*
X137114327Y-107311740D01*
X137114326Y-107311744D01*
X137094540Y-107500000D01*
X120250500Y-107500000D01*
X120250500Y-104250000D01*
X127844540Y-104250000D01*
X127864326Y-104438256D01*
X127864327Y-104438259D01*
X127922818Y-104618277D01*
X127922821Y-104618284D01*
X128017467Y-104782216D01*
X128130591Y-104907853D01*
X128144129Y-104922888D01*
X128297265Y-105034148D01*
X128297270Y-105034151D01*
X128470192Y-105111142D01*
X128470197Y-105111144D01*
X128655354Y-105150500D01*
X128655355Y-105150500D01*
X128844644Y-105150500D01*
X128844646Y-105150500D01*
X129029803Y-105111144D01*
X129202730Y-105034151D01*
X129355871Y-104922888D01*
X129482533Y-104782216D01*
X129501133Y-104750000D01*
X143844540Y-104750000D01*
X143864326Y-104938256D01*
X143864327Y-104938259D01*
X143922818Y-105118277D01*
X143922821Y-105118284D01*
X144017467Y-105282216D01*
X144144128Y-105422888D01*
X144144129Y-105422888D01*
X144297265Y-105534148D01*
X144297270Y-105534151D01*
X144470192Y-105611142D01*
X144470197Y-105611144D01*
X144655354Y-105650500D01*
X144655355Y-105650500D01*
X144844644Y-105650500D01*
X144844646Y-105650500D01*
X145029803Y-105611144D01*
X145202730Y-105534151D01*
X145355871Y-105422888D01*
X145482533Y-105282216D01*
X145577179Y-105118284D01*
X145635674Y-104938256D01*
X145655460Y-104750000D01*
X145635674Y-104561744D01*
X145577179Y-104381716D01*
X145482533Y-104217784D01*
X145355871Y-104077112D01*
X145334719Y-104061744D01*
X145202734Y-103965851D01*
X145202729Y-103965848D01*
X145029807Y-103888857D01*
X145029802Y-103888855D01*
X144884001Y-103857865D01*
X144844646Y-103849500D01*
X144655354Y-103849500D01*
X144622897Y-103856398D01*
X144470197Y-103888855D01*
X144470192Y-103888857D01*
X144297270Y-103965848D01*
X144297265Y-103965851D01*
X144144129Y-104077111D01*
X144017466Y-104217785D01*
X143922821Y-104381715D01*
X143922818Y-104381722D01*
X143864327Y-104561740D01*
X143864326Y-104561744D01*
X143844540Y-104750000D01*
X129501133Y-104750000D01*
X129577179Y-104618284D01*
X129635674Y-104438256D01*
X129655460Y-104250000D01*
X129635674Y-104061744D01*
X129577179Y-103881716D01*
X129482533Y-103717784D01*
X129355871Y-103577112D01*
X129322116Y-103552588D01*
X129215763Y-103475318D01*
X129173097Y-103419988D01*
X129167118Y-103350375D01*
X129199723Y-103288580D01*
X129215763Y-103274682D01*
X129249729Y-103250004D01*
X167345233Y-103250004D01*
X167364273Y-103504079D01*
X167420968Y-103752477D01*
X167420973Y-103752494D01*
X167514058Y-103989671D01*
X167611399Y-104158270D01*
X168453530Y-103316139D01*
X168465444Y-103406631D01*
X168525901Y-103552588D01*
X168622075Y-103677925D01*
X168747412Y-103774099D01*
X168893369Y-103834556D01*
X168983860Y-103846469D01*
X168141925Y-104688402D01*
X168197616Y-104726371D01*
X168197621Y-104726374D01*
X168379123Y-104813780D01*
X168430983Y-104860602D01*
X168449296Y-104928029D01*
X168428249Y-104994653D01*
X168374522Y-105039321D01*
X168325322Y-105049500D01*
X167802129Y-105049500D01*
X167802123Y-105049501D01*
X167742516Y-105055908D01*
X167607671Y-105106202D01*
X167607664Y-105106206D01*
X167492455Y-105192452D01*
X167492452Y-105192455D01*
X167406206Y-105307664D01*
X167406202Y-105307671D01*
X167355908Y-105442517D01*
X167349501Y-105502116D01*
X167349501Y-105502123D01*
X167349500Y-105502135D01*
X167349500Y-107997870D01*
X167349501Y-107997876D01*
X167355908Y-108057483D01*
X167406202Y-108192328D01*
X167406206Y-108192335D01*
X167492452Y-108307544D01*
X167492455Y-108307547D01*
X167607664Y-108393793D01*
X167607671Y-108393797D01*
X167742517Y-108444091D01*
X167742516Y-108444091D01*
X167749444Y-108444835D01*
X167802127Y-108450500D01*
X170297872Y-108450499D01*
X170357483Y-108444091D01*
X170492331Y-108393796D01*
X170607546Y-108307546D01*
X170693796Y-108192331D01*
X170744091Y-108057483D01*
X170750500Y-107997873D01*
X170750499Y-105502128D01*
X170744091Y-105442517D01*
X170693796Y-105307669D01*
X170693795Y-105307668D01*
X170693793Y-105307664D01*
X170607547Y-105192455D01*
X170607544Y-105192452D01*
X170492335Y-105106206D01*
X170492328Y-105106202D01*
X170357482Y-105055908D01*
X170357483Y-105055908D01*
X170297883Y-105049501D01*
X170297881Y-105049500D01*
X170297873Y-105049500D01*
X170297865Y-105049500D01*
X169774679Y-105049500D01*
X169707640Y-105029815D01*
X169661885Y-104977011D01*
X169651941Y-104907853D01*
X169680966Y-104844297D01*
X169720878Y-104813780D01*
X169902381Y-104726373D01*
X169958073Y-104688402D01*
X169116139Y-103846469D01*
X169206631Y-103834556D01*
X169352588Y-103774099D01*
X169477925Y-103677925D01*
X169574099Y-103552589D01*
X169634556Y-103406631D01*
X169646469Y-103316139D01*
X170488599Y-104158270D01*
X170488600Y-104158270D01*
X170585941Y-103989671D01*
X170679026Y-103752494D01*
X170679031Y-103752477D01*
X170735726Y-103504079D01*
X170754767Y-103250004D01*
X170754767Y-103249995D01*
X170735726Y-102995920D01*
X170679031Y-102747522D01*
X170679026Y-102747505D01*
X170585941Y-102510328D01*
X170585942Y-102510328D01*
X170488599Y-102341728D01*
X169646469Y-103183859D01*
X169634556Y-103093369D01*
X169574099Y-102947412D01*
X169477925Y-102822075D01*
X169352588Y-102725901D01*
X169206631Y-102665444D01*
X169116140Y-102653530D01*
X169958073Y-101811596D01*
X169902384Y-101773628D01*
X169902376Y-101773623D01*
X169672823Y-101663078D01*
X169672825Y-101663078D01*
X169429347Y-101587975D01*
X169429341Y-101587973D01*
X169177404Y-101550000D01*
X168922595Y-101550000D01*
X168670658Y-101587973D01*
X168670652Y-101587975D01*
X168427178Y-101663077D01*
X168197618Y-101773627D01*
X168197612Y-101773630D01*
X168141926Y-101811596D01*
X168983860Y-102653530D01*
X168893369Y-102665444D01*
X168747412Y-102725901D01*
X168622075Y-102822075D01*
X168525901Y-102947411D01*
X168465444Y-103093369D01*
X168453530Y-103183860D01*
X167611399Y-102341729D01*
X167514058Y-102510328D01*
X167420973Y-102747505D01*
X167420968Y-102747522D01*
X167364273Y-102995920D01*
X167345233Y-103249995D01*
X167345233Y-103250004D01*
X129249729Y-103250004D01*
X129355871Y-103172888D01*
X129482533Y-103032216D01*
X129577179Y-102868284D01*
X129635674Y-102688256D01*
X129655460Y-102500000D01*
X129635674Y-102311744D01*
X129577179Y-102131716D01*
X129482533Y-101967784D01*
X129355871Y-101827112D01*
X129334515Y-101811596D01*
X129202734Y-101715851D01*
X129202729Y-101715848D01*
X129029807Y-101638857D01*
X129029802Y-101638855D01*
X128884000Y-101607865D01*
X128844646Y-101599500D01*
X128655354Y-101599500D01*
X128622897Y-101606398D01*
X128470197Y-101638855D01*
X128470192Y-101638857D01*
X128297270Y-101715848D01*
X128297265Y-101715851D01*
X128144129Y-101827111D01*
X128017466Y-101967785D01*
X127922821Y-102131715D01*
X127922818Y-102131722D01*
X127864327Y-102311740D01*
X127864326Y-102311744D01*
X127844540Y-102500000D01*
X127864326Y-102688256D01*
X127864327Y-102688259D01*
X127922818Y-102868277D01*
X127922821Y-102868284D01*
X128017467Y-103032216D01*
X128072530Y-103093369D01*
X128144129Y-103172888D01*
X128284236Y-103274682D01*
X128326902Y-103330012D01*
X128332881Y-103399625D01*
X128300275Y-103461420D01*
X128284236Y-103475318D01*
X128144129Y-103577111D01*
X128017466Y-103717785D01*
X127922821Y-103881715D01*
X127922818Y-103881722D01*
X127864327Y-104061740D01*
X127864326Y-104061744D01*
X127844540Y-104250000D01*
X120250500Y-104250000D01*
X120250500Y-96750000D01*
X131344540Y-96750000D01*
X131364326Y-96938256D01*
X131364327Y-96938259D01*
X131422818Y-97118277D01*
X131422821Y-97118284D01*
X131517467Y-97282216D01*
X131644128Y-97422888D01*
X131644129Y-97422888D01*
X131797265Y-97534148D01*
X131797270Y-97534151D01*
X131970192Y-97611142D01*
X131970197Y-97611144D01*
X132155354Y-97650500D01*
X132155355Y-97650500D01*
X132344644Y-97650500D01*
X132344646Y-97650500D01*
X132529803Y-97611144D01*
X132702730Y-97534151D01*
X132855871Y-97422888D01*
X132982533Y-97282216D01*
X133077179Y-97118284D01*
X133135674Y-96938256D01*
X133155460Y-96750000D01*
X133135674Y-96561744D01*
X133077179Y-96381716D01*
X132982533Y-96217784D01*
X132855871Y-96077112D01*
X132855870Y-96077111D01*
X132749736Y-96000000D01*
X141344540Y-96000000D01*
X141364326Y-96188256D01*
X141364327Y-96188259D01*
X141422818Y-96368277D01*
X141422821Y-96368284D01*
X141517467Y-96532216D01*
X141644128Y-96672887D01*
X141644129Y-96672888D01*
X141797265Y-96784148D01*
X141797270Y-96784151D01*
X141970192Y-96861142D01*
X141970197Y-96861144D01*
X142155354Y-96900500D01*
X142155355Y-96900500D01*
X142344644Y-96900500D01*
X142344646Y-96900500D01*
X142529803Y-96861144D01*
X142702730Y-96784151D01*
X142855871Y-96672888D01*
X142982533Y-96532216D01*
X143077179Y-96368284D01*
X143135674Y-96188256D01*
X143155460Y-96000000D01*
X143135674Y-95811744D01*
X143077179Y-95631716D01*
X142982533Y-95467784D01*
X142855871Y-95327112D01*
X142855870Y-95327111D01*
X142749736Y-95250000D01*
X145844540Y-95250000D01*
X145864326Y-95438256D01*
X145864327Y-95438259D01*
X145922818Y-95618277D01*
X145922821Y-95618284D01*
X146017467Y-95782216D01*
X146113487Y-95888857D01*
X146144129Y-95922888D01*
X146297265Y-96034148D01*
X146297270Y-96034151D01*
X146470192Y-96111142D01*
X146470197Y-96111144D01*
X146655354Y-96150500D01*
X146655355Y-96150500D01*
X146844644Y-96150500D01*
X146844646Y-96150500D01*
X147029803Y-96111144D01*
X147202730Y-96034151D01*
X147355871Y-95922888D01*
X147482533Y-95782216D01*
X147577179Y-95618284D01*
X147635674Y-95438256D01*
X147655460Y-95250000D01*
X147635674Y-95061744D01*
X147577179Y-94881716D01*
X147482533Y-94717784D01*
X147355871Y-94577112D01*
X147355870Y-94577111D01*
X147202734Y-94465851D01*
X147202729Y-94465848D01*
X147029807Y-94388857D01*
X147029802Y-94388855D01*
X146884000Y-94357865D01*
X146844646Y-94349500D01*
X146655354Y-94349500D01*
X146622897Y-94356398D01*
X146470197Y-94388855D01*
X146470192Y-94388857D01*
X146297270Y-94465848D01*
X146297265Y-94465851D01*
X146144129Y-94577111D01*
X146017466Y-94717785D01*
X145922821Y-94881715D01*
X145922818Y-94881722D01*
X145864327Y-95061740D01*
X145864326Y-95061744D01*
X145844540Y-95250000D01*
X142749736Y-95250000D01*
X142702734Y-95215851D01*
X142702729Y-95215848D01*
X142529807Y-95138857D01*
X142529802Y-95138855D01*
X142384000Y-95107865D01*
X142344646Y-95099500D01*
X142155354Y-95099500D01*
X142122897Y-95106398D01*
X141970197Y-95138855D01*
X141970192Y-95138857D01*
X141797270Y-95215848D01*
X141797265Y-95215851D01*
X141644129Y-95327111D01*
X141517466Y-95467785D01*
X141422821Y-95631715D01*
X141422818Y-95631722D01*
X141373921Y-95782214D01*
X141364326Y-95811744D01*
X141344540Y-96000000D01*
X132749736Y-96000000D01*
X132702734Y-95965851D01*
X132702729Y-95965848D01*
X132529807Y-95888857D01*
X132529802Y-95888855D01*
X132384000Y-95857865D01*
X132344646Y-95849500D01*
X132155354Y-95849500D01*
X132122897Y-95856398D01*
X131970197Y-95888855D01*
X131970192Y-95888857D01*
X131797270Y-95965848D01*
X131797265Y-95965851D01*
X131644129Y-96077111D01*
X131517466Y-96217785D01*
X131422821Y-96381715D01*
X131422818Y-96381722D01*
X131373921Y-96532214D01*
X131364326Y-96561744D01*
X131344540Y-96750000D01*
X120250500Y-96750000D01*
X120250500Y-93575000D01*
X172494538Y-93575000D01*
X172514337Y-93776031D01*
X172572978Y-93969345D01*
X172668198Y-94147488D01*
X172668203Y-94147495D01*
X172796352Y-94303647D01*
X172852225Y-94349500D01*
X172952506Y-94431798D01*
X172952509Y-94431799D01*
X172952511Y-94431801D01*
X173130654Y-94527021D01*
X173130656Y-94527021D01*
X173130659Y-94527023D01*
X173323967Y-94585662D01*
X173474620Y-94600500D01*
X173474623Y-94600500D01*
X174425377Y-94600500D01*
X174425380Y-94600500D01*
X174576033Y-94585662D01*
X174769341Y-94527023D01*
X174947494Y-94431798D01*
X175103647Y-94303647D01*
X175231798Y-94147494D01*
X175327023Y-93969341D01*
X175385662Y-93776033D01*
X175405462Y-93575000D01*
X175385662Y-93373967D01*
X175327023Y-93180659D01*
X175327021Y-93180656D01*
X175327021Y-93180654D01*
X175231801Y-93002511D01*
X175231799Y-93002509D01*
X175231798Y-93002506D01*
X175192824Y-92955016D01*
X175103647Y-92846352D01*
X174947495Y-92718203D01*
X174947488Y-92718198D01*
X174769345Y-92622978D01*
X174576031Y-92564337D01*
X174465900Y-92553490D01*
X174425380Y-92549500D01*
X173474620Y-92549500D01*
X173437433Y-92553162D01*
X173323968Y-92564337D01*
X173130654Y-92622978D01*
X172952511Y-92718198D01*
X172952504Y-92718203D01*
X172796352Y-92846352D01*
X172668203Y-93002504D01*
X172668198Y-93002511D01*
X172572978Y-93180654D01*
X172514337Y-93373968D01*
X172494538Y-93575000D01*
X120250500Y-93575000D01*
X120250500Y-91585055D01*
X121479500Y-91585055D01*
X121520210Y-91750226D01*
X121599263Y-91900849D01*
X121599266Y-91900852D01*
X121712071Y-92028183D01*
X121802318Y-92090476D01*
X121852068Y-92124817D01*
X121852069Y-92124817D01*
X121852070Y-92124818D01*
X122011128Y-92185140D01*
X122087028Y-92194356D01*
X122137626Y-92200500D01*
X122137628Y-92200500D01*
X122222374Y-92200500D01*
X122264538Y-92195380D01*
X122348872Y-92185140D01*
X122507930Y-92124818D01*
X122647929Y-92028183D01*
X122760734Y-91900852D01*
X122839790Y-91750225D01*
X122880500Y-91585056D01*
X122880500Y-91414944D01*
X122839845Y-91250000D01*
X132844540Y-91250000D01*
X132864326Y-91438256D01*
X132864327Y-91438259D01*
X132922818Y-91618277D01*
X132922821Y-91618284D01*
X133017467Y-91782216D01*
X133124285Y-91900849D01*
X133144129Y-91922888D01*
X133297265Y-92034148D01*
X133297270Y-92034151D01*
X133470192Y-92111142D01*
X133470197Y-92111144D01*
X133655354Y-92150500D01*
X133655355Y-92150500D01*
X133844644Y-92150500D01*
X133844646Y-92150500D01*
X134029803Y-92111144D01*
X134202730Y-92034151D01*
X134355871Y-91922888D01*
X134482533Y-91782216D01*
X134577179Y-91618284D01*
X134632068Y-91449351D01*
X134671506Y-91391675D01*
X134735865Y-91364477D01*
X134804711Y-91376392D01*
X134856187Y-91423636D01*
X134867931Y-91449351D01*
X134922818Y-91618277D01*
X134922821Y-91618284D01*
X135017467Y-91782216D01*
X135124285Y-91900849D01*
X135144129Y-91922888D01*
X135297265Y-92034148D01*
X135297270Y-92034151D01*
X135470192Y-92111142D01*
X135470197Y-92111144D01*
X135655354Y-92150500D01*
X135655355Y-92150500D01*
X135844644Y-92150500D01*
X135844646Y-92150500D01*
X136029803Y-92111144D01*
X136202730Y-92034151D01*
X136355871Y-91922888D01*
X136482533Y-91782216D01*
X136577179Y-91618284D01*
X136635674Y-91438256D01*
X136655460Y-91250000D01*
X136635674Y-91061744D01*
X136577179Y-90881716D01*
X136482533Y-90717784D01*
X136355871Y-90577112D01*
X136355870Y-90577111D01*
X136202734Y-90465851D01*
X136202729Y-90465848D01*
X136029807Y-90388857D01*
X136029802Y-90388855D01*
X135884000Y-90357865D01*
X135844646Y-90349500D01*
X135655354Y-90349500D01*
X135635265Y-90353770D01*
X135470197Y-90388855D01*
X135470192Y-90388857D01*
X135297270Y-90465848D01*
X135297265Y-90465851D01*
X135144129Y-90577111D01*
X135017466Y-90717785D01*
X134922821Y-90881715D01*
X134922818Y-90881722D01*
X134867931Y-91050648D01*
X134828493Y-91108324D01*
X134764135Y-91135522D01*
X134695288Y-91123607D01*
X134643813Y-91076363D01*
X134632069Y-91050648D01*
X134577181Y-90881722D01*
X134577180Y-90881721D01*
X134577179Y-90881716D01*
X134482533Y-90717784D01*
X134355871Y-90577112D01*
X134355870Y-90577111D01*
X134202734Y-90465851D01*
X134202729Y-90465848D01*
X134029807Y-90388857D01*
X134029802Y-90388855D01*
X133884000Y-90357865D01*
X133844646Y-90349500D01*
X133655354Y-90349500D01*
X133635265Y-90353770D01*
X133470197Y-90388855D01*
X133470192Y-90388857D01*
X133297270Y-90465848D01*
X133297265Y-90465851D01*
X133144129Y-90577111D01*
X133017466Y-90717785D01*
X132922821Y-90881715D01*
X132922818Y-90881722D01*
X132893545Y-90971817D01*
X132864326Y-91061744D01*
X132844540Y-91250000D01*
X122839845Y-91250000D01*
X122839790Y-91249775D01*
X122779825Y-91135522D01*
X122760736Y-91099150D01*
X122727597Y-91061744D01*
X122647929Y-90971817D01*
X122598177Y-90937475D01*
X122507931Y-90875182D01*
X122348874Y-90814860D01*
X122348868Y-90814859D01*
X122222374Y-90799500D01*
X122222372Y-90799500D01*
X122137628Y-90799500D01*
X122137626Y-90799500D01*
X122011131Y-90814859D01*
X122011125Y-90814860D01*
X121852068Y-90875182D01*
X121712072Y-90971816D01*
X121599263Y-91099150D01*
X121520210Y-91249773D01*
X121479500Y-91414944D01*
X121479500Y-91585055D01*
X120250500Y-91585055D01*
X120250500Y-89750000D01*
X136344540Y-89750000D01*
X136364326Y-89938256D01*
X136364327Y-89938259D01*
X136422818Y-90118277D01*
X136422821Y-90118284D01*
X136517467Y-90282216D01*
X136613487Y-90388857D01*
X136644129Y-90422888D01*
X136797265Y-90534148D01*
X136797270Y-90534151D01*
X136970192Y-90611142D01*
X136970197Y-90611144D01*
X137155354Y-90650500D01*
X137155355Y-90650500D01*
X137344644Y-90650500D01*
X137344646Y-90650500D01*
X137529803Y-90611144D01*
X137702730Y-90534151D01*
X137855871Y-90422888D01*
X137982533Y-90282216D01*
X138077179Y-90118284D01*
X138135674Y-89938256D01*
X138155460Y-89750000D01*
X139844540Y-89750000D01*
X139864326Y-89938256D01*
X139864327Y-89938259D01*
X139922818Y-90118277D01*
X139922821Y-90118284D01*
X140017467Y-90282216D01*
X140113487Y-90388857D01*
X140144129Y-90422888D01*
X140297265Y-90534148D01*
X140297270Y-90534151D01*
X140470192Y-90611142D01*
X140470197Y-90611144D01*
X140655354Y-90650500D01*
X140655355Y-90650500D01*
X140844644Y-90650500D01*
X140844646Y-90650500D01*
X141029803Y-90611144D01*
X141202730Y-90534151D01*
X141313833Y-90453429D01*
X141379636Y-90429951D01*
X141447690Y-90445776D01*
X141494103Y-90491749D01*
X141517465Y-90532214D01*
X141644129Y-90672888D01*
X141797265Y-90784148D01*
X141797270Y-90784151D01*
X141970192Y-90861142D01*
X141970197Y-90861144D01*
X142155354Y-90900500D01*
X142155355Y-90900500D01*
X142344644Y-90900500D01*
X142344646Y-90900500D01*
X142529803Y-90861144D01*
X142702730Y-90784151D01*
X142855871Y-90672888D01*
X142982533Y-90532216D01*
X143077179Y-90368284D01*
X143135674Y-90188256D01*
X143155460Y-90000000D01*
X143135674Y-89811744D01*
X143077179Y-89631716D01*
X142982533Y-89467784D01*
X142855871Y-89327112D01*
X142855870Y-89327111D01*
X142702734Y-89215851D01*
X142702729Y-89215848D01*
X142529807Y-89138857D01*
X142529802Y-89138855D01*
X142384001Y-89107865D01*
X142344646Y-89099500D01*
X142155354Y-89099500D01*
X142122897Y-89106398D01*
X141970197Y-89138855D01*
X141970192Y-89138857D01*
X141797270Y-89215848D01*
X141797265Y-89215851D01*
X141686168Y-89296568D01*
X141620361Y-89320048D01*
X141552308Y-89304222D01*
X141505895Y-89258249D01*
X141482533Y-89217785D01*
X141482533Y-89217784D01*
X141355871Y-89077112D01*
X141288526Y-89028183D01*
X141202734Y-88965851D01*
X141202729Y-88965848D01*
X141029807Y-88888857D01*
X141029802Y-88888855D01*
X140884001Y-88857865D01*
X140844646Y-88849500D01*
X140655354Y-88849500D01*
X140622897Y-88856398D01*
X140470197Y-88888855D01*
X140470192Y-88888857D01*
X140297270Y-88965848D01*
X140297265Y-88965851D01*
X140144129Y-89077111D01*
X140017466Y-89217785D01*
X139922821Y-89381715D01*
X139922818Y-89381722D01*
X139894855Y-89467785D01*
X139864326Y-89561744D01*
X139844540Y-89750000D01*
X138155460Y-89750000D01*
X138135674Y-89561744D01*
X138077179Y-89381716D01*
X137982533Y-89217784D01*
X137855871Y-89077112D01*
X137788526Y-89028183D01*
X137702734Y-88965851D01*
X137702729Y-88965848D01*
X137529807Y-88888857D01*
X137529802Y-88888855D01*
X137384000Y-88857865D01*
X137344646Y-88849500D01*
X137155354Y-88849500D01*
X137122897Y-88856398D01*
X136970197Y-88888855D01*
X136970192Y-88888857D01*
X136797270Y-88965848D01*
X136797265Y-88965851D01*
X136644129Y-89077111D01*
X136517466Y-89217785D01*
X136422821Y-89381715D01*
X136422818Y-89381722D01*
X136394855Y-89467785D01*
X136364326Y-89561744D01*
X136344540Y-89750000D01*
X120250500Y-89750000D01*
X120250500Y-88585055D01*
X121479500Y-88585055D01*
X121520210Y-88750226D01*
X121599263Y-88900849D01*
X121599266Y-88900852D01*
X121712071Y-89028183D01*
X121802318Y-89090476D01*
X121852068Y-89124817D01*
X121852069Y-89124817D01*
X121852070Y-89124818D01*
X122011128Y-89185140D01*
X122087028Y-89194356D01*
X122137626Y-89200500D01*
X122137628Y-89200500D01*
X122222374Y-89200500D01*
X122264538Y-89195380D01*
X122348872Y-89185140D01*
X122507930Y-89124818D01*
X122647929Y-89028183D01*
X122760734Y-88900852D01*
X122839790Y-88750225D01*
X122880500Y-88585056D01*
X122880500Y-88414944D01*
X122839790Y-88249775D01*
X122839789Y-88249773D01*
X122760736Y-88099150D01*
X122741560Y-88077505D01*
X122647929Y-87971817D01*
X122598177Y-87937475D01*
X122507931Y-87875182D01*
X122348874Y-87814860D01*
X122348868Y-87814859D01*
X122222374Y-87799500D01*
X122222372Y-87799500D01*
X122137628Y-87799500D01*
X122137626Y-87799500D01*
X122011131Y-87814859D01*
X122011125Y-87814860D01*
X121852068Y-87875182D01*
X121712072Y-87971816D01*
X121599263Y-88099150D01*
X121520210Y-88249773D01*
X121479500Y-88414944D01*
X121479500Y-88585055D01*
X120250500Y-88585055D01*
X120250500Y-87750000D01*
X124354540Y-87750000D01*
X124374326Y-87938256D01*
X124374327Y-87938259D01*
X124432818Y-88118277D01*
X124432821Y-88118284D01*
X124527467Y-88282216D01*
X124646976Y-88414944D01*
X124654129Y-88422888D01*
X124807265Y-88534148D01*
X124807270Y-88534151D01*
X124980192Y-88611142D01*
X124980197Y-88611144D01*
X125165354Y-88650500D01*
X125165355Y-88650500D01*
X125354644Y-88650500D01*
X125354646Y-88650500D01*
X125539803Y-88611144D01*
X125712730Y-88534151D01*
X125865871Y-88422888D01*
X125992533Y-88282216D01*
X126087179Y-88118284D01*
X126145674Y-87938256D01*
X126165460Y-87750000D01*
X126145674Y-87561744D01*
X126087179Y-87381716D01*
X125992533Y-87217784D01*
X125865871Y-87077112D01*
X125865870Y-87077111D01*
X125712734Y-86965851D01*
X125712729Y-86965848D01*
X125539807Y-86888857D01*
X125539802Y-86888855D01*
X125394001Y-86857865D01*
X125354646Y-86849500D01*
X125165354Y-86849500D01*
X125132897Y-86856398D01*
X124980197Y-86888855D01*
X124980192Y-86888857D01*
X124807270Y-86965848D01*
X124807265Y-86965851D01*
X124654129Y-87077111D01*
X124527466Y-87217785D01*
X124432821Y-87381715D01*
X124432818Y-87381722D01*
X124374327Y-87561740D01*
X124374326Y-87561744D01*
X124354540Y-87750000D01*
X120250500Y-87750000D01*
X120250500Y-86424999D01*
X172494538Y-86424999D01*
X172514337Y-86626031D01*
X172572978Y-86819345D01*
X172668198Y-86997488D01*
X172668203Y-86997495D01*
X172796352Y-87153647D01*
X172905016Y-87242824D01*
X172952506Y-87281798D01*
X172952509Y-87281799D01*
X172952511Y-87281801D01*
X173130654Y-87377021D01*
X173130656Y-87377021D01*
X173130659Y-87377023D01*
X173323967Y-87435662D01*
X173474620Y-87450500D01*
X173474623Y-87450500D01*
X174425377Y-87450500D01*
X174425380Y-87450500D01*
X174576033Y-87435662D01*
X174769341Y-87377023D01*
X174947494Y-87281798D01*
X175103647Y-87153647D01*
X175231798Y-86997494D01*
X175327023Y-86819341D01*
X175385662Y-86626033D01*
X175405462Y-86425000D01*
X175385662Y-86223967D01*
X175327023Y-86030659D01*
X175327021Y-86030656D01*
X175327021Y-86030654D01*
X175231801Y-85852511D01*
X175231799Y-85852509D01*
X175231798Y-85852506D01*
X175192824Y-85805016D01*
X175103647Y-85696352D01*
X174947495Y-85568203D01*
X174947488Y-85568198D01*
X174769345Y-85472978D01*
X174576031Y-85414337D01*
X174465900Y-85403490D01*
X174425380Y-85399500D01*
X173474620Y-85399500D01*
X173437433Y-85403162D01*
X173323968Y-85414337D01*
X173130654Y-85472978D01*
X172952511Y-85568198D01*
X172952504Y-85568203D01*
X172796352Y-85696352D01*
X172668203Y-85852504D01*
X172668198Y-85852511D01*
X172572978Y-86030654D01*
X172514337Y-86223968D01*
X172494538Y-86424999D01*
X120250500Y-86424999D01*
X120250500Y-79501228D01*
X120250525Y-79500003D01*
X120945162Y-79500003D01*
X120964504Y-79930692D01*
X120964505Y-79930701D01*
X121022378Y-80357938D01*
X121118313Y-80778258D01*
X121251542Y-81188296D01*
X121251545Y-81188304D01*
X121420985Y-81584730D01*
X121420989Y-81584738D01*
X121625294Y-81964399D01*
X121862799Y-82324207D01*
X121862800Y-82324208D01*
X122099122Y-82620546D01*
X122967409Y-81752259D01*
X123165686Y-81752259D01*
X123176035Y-81863940D01*
X123226029Y-81964341D01*
X123308915Y-82039903D01*
X123413501Y-82080419D01*
X123497383Y-82080419D01*
X123579831Y-82065007D01*
X123675191Y-82005962D01*
X123742782Y-81916457D01*
X123773476Y-81808579D01*
X123763127Y-81696898D01*
X123713133Y-81596497D01*
X123630247Y-81520935D01*
X123525661Y-81480419D01*
X123441779Y-81480419D01*
X123359331Y-81495831D01*
X123263971Y-81554876D01*
X123196380Y-81644381D01*
X123165686Y-81752259D01*
X122967409Y-81752259D01*
X123984682Y-80734986D01*
X123989410Y-80742760D01*
X124175031Y-80970918D01*
X124389990Y-81171676D01*
X124518172Y-81262156D01*
X122631224Y-83149104D01*
X122631224Y-83149105D01*
X122754235Y-83256576D01*
X123103024Y-83509986D01*
X123473140Y-83731120D01*
X123473146Y-83731123D01*
X123861569Y-83918178D01*
X123861583Y-83918184D01*
X124265209Y-84069667D01*
X124265234Y-84069675D01*
X124680816Y-84184369D01*
X125105023Y-84261351D01*
X125534435Y-84299999D01*
X125534438Y-84300000D01*
X125965562Y-84300000D01*
X125965564Y-84299999D01*
X126394976Y-84261351D01*
X126819183Y-84184369D01*
X127234765Y-84069675D01*
X127234790Y-84069667D01*
X127638416Y-83918184D01*
X127638430Y-83918178D01*
X128026853Y-83731123D01*
X128026859Y-83731120D01*
X128396975Y-83509986D01*
X128745755Y-83256582D01*
X128745785Y-83256558D01*
X128868774Y-83149105D01*
X128868774Y-83149104D01*
X127471929Y-81752259D01*
X127726524Y-81752259D01*
X127736873Y-81863940D01*
X127786867Y-81964341D01*
X127869753Y-82039903D01*
X127974339Y-82080419D01*
X128058221Y-82080419D01*
X128140669Y-82065007D01*
X128236029Y-82005962D01*
X128303620Y-81916457D01*
X128334314Y-81808579D01*
X128323965Y-81696898D01*
X128273971Y-81596497D01*
X128191085Y-81520935D01*
X128086499Y-81480419D01*
X128002617Y-81480419D01*
X127920169Y-81495831D01*
X127824809Y-81554876D01*
X127757218Y-81644381D01*
X127726524Y-81752259D01*
X127471929Y-81752259D01*
X126981827Y-81262157D01*
X127110010Y-81171676D01*
X127324969Y-80970918D01*
X127510590Y-80742760D01*
X127515316Y-80734987D01*
X129400875Y-82620546D01*
X129637199Y-82324208D01*
X129637200Y-82324207D01*
X129874705Y-81964399D01*
X130079010Y-81584738D01*
X130079014Y-81584730D01*
X130248454Y-81188304D01*
X130248457Y-81188296D01*
X130381686Y-80778258D01*
X130477621Y-80357938D01*
X130482083Y-80325000D01*
X136233181Y-80325000D01*
X136239817Y-80388149D01*
X136298278Y-80568072D01*
X136298283Y-80568084D01*
X136392870Y-80731915D01*
X136392872Y-80731918D01*
X136519460Y-80872509D01*
X136519463Y-80872511D01*
X136672521Y-80983715D01*
X136749999Y-81018210D01*
X136750000Y-81018210D01*
X136750000Y-80325000D01*
X136233181Y-80325000D01*
X130482083Y-80325000D01*
X130492623Y-80247192D01*
X137474500Y-80247192D01*
X137489326Y-80388256D01*
X137493931Y-80402430D01*
X137500000Y-80440746D01*
X137500000Y-81018210D01*
X137577476Y-80983717D01*
X137676687Y-80911635D01*
X137742493Y-80888155D01*
X137810547Y-80903980D01*
X137822458Y-80911634D01*
X137856136Y-80936102D01*
X137922270Y-80984151D01*
X138095192Y-81061142D01*
X138095197Y-81061144D01*
X138280354Y-81100500D01*
X138280355Y-81100500D01*
X138469644Y-81100500D01*
X138469646Y-81100500D01*
X138654803Y-81061144D01*
X138827730Y-80984151D01*
X138868034Y-80954868D01*
X138927115Y-80911944D01*
X138992921Y-80888464D01*
X139060975Y-80904289D01*
X139072885Y-80911944D01*
X139172265Y-80984148D01*
X139172270Y-80984151D01*
X139345192Y-81061142D01*
X139345197Y-81061144D01*
X139530354Y-81100500D01*
X139530355Y-81100500D01*
X139719644Y-81100500D01*
X139719646Y-81100500D01*
X139904803Y-81061144D01*
X139990529Y-81022975D01*
X140059777Y-81013690D01*
X140123054Y-81043318D01*
X140160268Y-81102453D01*
X140159604Y-81172319D01*
X140158895Y-81174573D01*
X140154434Y-81188304D01*
X140114326Y-81311744D01*
X140094540Y-81500000D01*
X140114326Y-81688256D01*
X140114327Y-81688259D01*
X140172818Y-81868277D01*
X140172821Y-81868284D01*
X140267467Y-82032216D01*
X140394129Y-82172887D01*
X140394129Y-82172888D01*
X140547265Y-82284148D01*
X140547270Y-82284151D01*
X140720192Y-82361142D01*
X140720197Y-82361144D01*
X140905354Y-82400500D01*
X140905355Y-82400500D01*
X141094644Y-82400500D01*
X141094646Y-82400500D01*
X141279803Y-82361144D01*
X141452730Y-82284151D01*
X141605871Y-82172888D01*
X141732533Y-82032216D01*
X141827179Y-81868284D01*
X141885674Y-81688256D01*
X141905460Y-81500000D01*
X141885674Y-81311744D01*
X141827179Y-81131716D01*
X141732533Y-80967784D01*
X141685078Y-80915080D01*
X141654848Y-80852089D01*
X141663473Y-80782753D01*
X141671106Y-80767967D01*
X141718478Y-80689606D01*
X141769086Y-80527196D01*
X141775500Y-80456616D01*
X141775500Y-79500003D01*
X165945162Y-79500003D01*
X165964504Y-79930692D01*
X165964505Y-79930701D01*
X166022378Y-80357938D01*
X166118313Y-80778258D01*
X166251542Y-81188296D01*
X166251545Y-81188304D01*
X166420985Y-81584730D01*
X166420989Y-81584738D01*
X166625294Y-81964399D01*
X166862799Y-82324207D01*
X166862800Y-82324208D01*
X167099122Y-82620546D01*
X167967409Y-81752259D01*
X168165686Y-81752259D01*
X168176035Y-81863940D01*
X168226029Y-81964341D01*
X168308915Y-82039903D01*
X168413501Y-82080419D01*
X168497383Y-82080419D01*
X168579831Y-82065007D01*
X168675191Y-82005962D01*
X168742782Y-81916457D01*
X168773476Y-81808579D01*
X168763127Y-81696898D01*
X168713133Y-81596497D01*
X168630247Y-81520935D01*
X168525661Y-81480419D01*
X168441779Y-81480419D01*
X168359331Y-81495831D01*
X168263971Y-81554876D01*
X168196380Y-81644381D01*
X168165686Y-81752259D01*
X167967409Y-81752259D01*
X168984682Y-80734986D01*
X168989410Y-80742760D01*
X169175031Y-80970918D01*
X169389990Y-81171676D01*
X169518172Y-81262156D01*
X167631224Y-83149104D01*
X167631224Y-83149105D01*
X167754235Y-83256576D01*
X168103024Y-83509986D01*
X168473140Y-83731120D01*
X168473146Y-83731123D01*
X168861569Y-83918178D01*
X168861583Y-83918184D01*
X169265209Y-84069667D01*
X169265234Y-84069675D01*
X169680816Y-84184369D01*
X170105023Y-84261351D01*
X170534435Y-84299999D01*
X170534438Y-84300000D01*
X170965562Y-84300000D01*
X170965564Y-84299999D01*
X171394976Y-84261351D01*
X171819183Y-84184369D01*
X172234765Y-84069675D01*
X172234790Y-84069667D01*
X172638416Y-83918184D01*
X172638430Y-83918178D01*
X173026853Y-83731123D01*
X173026859Y-83731120D01*
X173396975Y-83509986D01*
X173745755Y-83256582D01*
X173745785Y-83256558D01*
X173868774Y-83149105D01*
X173868774Y-83149104D01*
X172471929Y-81752259D01*
X172726524Y-81752259D01*
X172736873Y-81863940D01*
X172786867Y-81964341D01*
X172869753Y-82039903D01*
X172974339Y-82080419D01*
X173058221Y-82080419D01*
X173140669Y-82065007D01*
X173236029Y-82005962D01*
X173303620Y-81916457D01*
X173334314Y-81808579D01*
X173323965Y-81696898D01*
X173273971Y-81596497D01*
X173191085Y-81520935D01*
X173086499Y-81480419D01*
X173002617Y-81480419D01*
X172920169Y-81495831D01*
X172824809Y-81554876D01*
X172757218Y-81644381D01*
X172726524Y-81752259D01*
X172471929Y-81752259D01*
X171981827Y-81262157D01*
X172110010Y-81171676D01*
X172324969Y-80970918D01*
X172510590Y-80742760D01*
X172515316Y-80734987D01*
X174400875Y-82620546D01*
X174637199Y-82324208D01*
X174637200Y-82324207D01*
X174874705Y-81964399D01*
X175079010Y-81584738D01*
X175079014Y-81584730D01*
X175248454Y-81188304D01*
X175248457Y-81188296D01*
X175381686Y-80778258D01*
X175477621Y-80357938D01*
X175535494Y-79930701D01*
X175535495Y-79930692D01*
X175554838Y-79500003D01*
X175554838Y-79499996D01*
X175535495Y-79069307D01*
X175535494Y-79069298D01*
X175477621Y-78642061D01*
X175381686Y-78221741D01*
X175248457Y-77811703D01*
X175248454Y-77811695D01*
X175079014Y-77415269D01*
X175079010Y-77415261D01*
X174874705Y-77035600D01*
X174637200Y-76675792D01*
X174637199Y-76675791D01*
X174400875Y-76379452D01*
X172515316Y-78265011D01*
X172510590Y-78257240D01*
X172324969Y-78029082D01*
X172110010Y-77828324D01*
X171981826Y-77737841D01*
X172528246Y-77191421D01*
X172726524Y-77191421D01*
X172736873Y-77303102D01*
X172786867Y-77403503D01*
X172869753Y-77479065D01*
X172974339Y-77519581D01*
X173058221Y-77519581D01*
X173140669Y-77504169D01*
X173236029Y-77445124D01*
X173303620Y-77355619D01*
X173334314Y-77247741D01*
X173323965Y-77136060D01*
X173273971Y-77035659D01*
X173191085Y-76960097D01*
X173086499Y-76919581D01*
X173002617Y-76919581D01*
X172920169Y-76934993D01*
X172824809Y-76994038D01*
X172757218Y-77083543D01*
X172726524Y-77191421D01*
X172528246Y-77191421D01*
X173868774Y-75850894D01*
X173868774Y-75850893D01*
X173745764Y-75743423D01*
X173396975Y-75490013D01*
X173026859Y-75268879D01*
X173026853Y-75268876D01*
X172638430Y-75081821D01*
X172638416Y-75081815D01*
X172234790Y-74930332D01*
X172234765Y-74930324D01*
X171819183Y-74815630D01*
X171394976Y-74738648D01*
X170965564Y-74700000D01*
X170534435Y-74700000D01*
X170105023Y-74738648D01*
X169680816Y-74815630D01*
X169265234Y-74930324D01*
X169265209Y-74930332D01*
X168861583Y-75081815D01*
X168861569Y-75081821D01*
X168473146Y-75268876D01*
X168473140Y-75268879D01*
X168103024Y-75490013D01*
X167754242Y-75743419D01*
X167631224Y-75850894D01*
X169518172Y-77737842D01*
X169389990Y-77828324D01*
X169175031Y-78029082D01*
X168989410Y-78257240D01*
X168984683Y-78265013D01*
X167911091Y-77191421D01*
X168165686Y-77191421D01*
X168176035Y-77303102D01*
X168226029Y-77403503D01*
X168308915Y-77479065D01*
X168413501Y-77519581D01*
X168497383Y-77519581D01*
X168579831Y-77504169D01*
X168675191Y-77445124D01*
X168742782Y-77355619D01*
X168773476Y-77247741D01*
X168763127Y-77136060D01*
X168713133Y-77035659D01*
X168630247Y-76960097D01*
X168525661Y-76919581D01*
X168441779Y-76919581D01*
X168359331Y-76934993D01*
X168263971Y-76994038D01*
X168196380Y-77083543D01*
X168165686Y-77191421D01*
X167911091Y-77191421D01*
X167099122Y-76379452D01*
X166862800Y-76675791D01*
X166862799Y-76675792D01*
X166625294Y-77035600D01*
X166420989Y-77415261D01*
X166420985Y-77415269D01*
X166251545Y-77811695D01*
X166251542Y-77811703D01*
X166118313Y-78221741D01*
X166022378Y-78642061D01*
X165964505Y-79069298D01*
X165964504Y-79069307D01*
X165945162Y-79499996D01*
X165945162Y-79500003D01*
X141775500Y-79500003D01*
X141775500Y-79443384D01*
X141769086Y-79372804D01*
X141718478Y-79210394D01*
X141630472Y-79064815D01*
X141630470Y-79064813D01*
X141630469Y-79064811D01*
X141510188Y-78944530D01*
X141506666Y-78942401D01*
X141364606Y-78856522D01*
X141202196Y-78805914D01*
X141202194Y-78805913D01*
X141202192Y-78805913D01*
X141152778Y-78801423D01*
X141131616Y-78799500D01*
X140618384Y-78799500D01*
X140599144Y-78801248D01*
X140547807Y-78805913D01*
X140385391Y-78856523D01*
X140243330Y-78942401D01*
X140175775Y-78960237D01*
X140109302Y-78938719D01*
X140106297Y-78936603D01*
X140077733Y-78915851D01*
X140077729Y-78915848D01*
X139904807Y-78838857D01*
X139904802Y-78838855D01*
X139749817Y-78805913D01*
X139719646Y-78799500D01*
X139530354Y-78799500D01*
X139500183Y-78805913D01*
X139345197Y-78838855D01*
X139345192Y-78838857D01*
X139172271Y-78915848D01*
X139072885Y-78988056D01*
X139007078Y-79011535D01*
X138939025Y-78995709D01*
X138927115Y-78988056D01*
X138859208Y-78938719D01*
X138827730Y-78915849D01*
X138827728Y-78915848D01*
X138827729Y-78915848D01*
X138654807Y-78838857D01*
X138654802Y-78838855D01*
X138499817Y-78805913D01*
X138469646Y-78799500D01*
X138280354Y-78799500D01*
X138250183Y-78805913D01*
X138095197Y-78838855D01*
X138095192Y-78838857D01*
X137922271Y-78915848D01*
X137822459Y-78988365D01*
X137756652Y-79011844D01*
X137688598Y-78996018D01*
X137676688Y-78988364D01*
X137577478Y-78916283D01*
X137500000Y-78881787D01*
X137500000Y-79459253D01*
X137493931Y-79497571D01*
X137493142Y-79500001D01*
X137489326Y-79511744D01*
X137474500Y-79652808D01*
X137474500Y-80247192D01*
X130492623Y-80247192D01*
X130532880Y-79950000D01*
X136870102Y-79950000D01*
X136889505Y-80047545D01*
X136944760Y-80130240D01*
X137027455Y-80185495D01*
X137100376Y-80200000D01*
X137149624Y-80200000D01*
X137222545Y-80185495D01*
X137305240Y-80130240D01*
X137360495Y-80047545D01*
X137379898Y-79950000D01*
X137360495Y-79852455D01*
X137305240Y-79769760D01*
X137222545Y-79714505D01*
X137149624Y-79700000D01*
X137100376Y-79700000D01*
X137027455Y-79714505D01*
X136944760Y-79769760D01*
X136889505Y-79852455D01*
X136870102Y-79950000D01*
X130532880Y-79950000D01*
X130535494Y-79930701D01*
X130535495Y-79930692D01*
X130551470Y-79575000D01*
X136233181Y-79575000D01*
X136750000Y-79575000D01*
X136750000Y-78881787D01*
X136672523Y-78916282D01*
X136519464Y-79027487D01*
X136392872Y-79168081D01*
X136392870Y-79168084D01*
X136298283Y-79331915D01*
X136298278Y-79331927D01*
X136239817Y-79511850D01*
X136233181Y-79575000D01*
X130551470Y-79575000D01*
X130554838Y-79500003D01*
X130554838Y-79499996D01*
X130535495Y-79069307D01*
X130535494Y-79069298D01*
X130477621Y-78642061D01*
X130381686Y-78221741D01*
X130248457Y-77811703D01*
X130248454Y-77811695D01*
X130115230Y-77500000D01*
X155344540Y-77500000D01*
X155364326Y-77688256D01*
X155364327Y-77688259D01*
X155422818Y-77868277D01*
X155422821Y-77868284D01*
X155517467Y-78032216D01*
X155597691Y-78121313D01*
X155644129Y-78172888D01*
X155797265Y-78284148D01*
X155797270Y-78284151D01*
X155970192Y-78361142D01*
X155970197Y-78361144D01*
X156155354Y-78400500D01*
X156155355Y-78400500D01*
X156344644Y-78400500D01*
X156344646Y-78400500D01*
X156529803Y-78361144D01*
X156702730Y-78284151D01*
X156855871Y-78172888D01*
X156982533Y-78032216D01*
X157077179Y-77868284D01*
X157135674Y-77688256D01*
X157155460Y-77500000D01*
X157135674Y-77311744D01*
X157115612Y-77250000D01*
X158594540Y-77250000D01*
X158614326Y-77438256D01*
X158614327Y-77438259D01*
X158672818Y-77618277D01*
X158672821Y-77618284D01*
X158767467Y-77782216D01*
X158866356Y-77892043D01*
X158894129Y-77922888D01*
X159047265Y-78034148D01*
X159047270Y-78034151D01*
X159220192Y-78111142D01*
X159220197Y-78111144D01*
X159405354Y-78150500D01*
X159405355Y-78150500D01*
X159594644Y-78150500D01*
X159594646Y-78150500D01*
X159779803Y-78111144D01*
X159952730Y-78034151D01*
X160105871Y-77922888D01*
X160232533Y-77782216D01*
X160327179Y-77618284D01*
X160385674Y-77438256D01*
X160405460Y-77250000D01*
X160385674Y-77061744D01*
X160327179Y-76881716D01*
X160232533Y-76717784D01*
X160105871Y-76577112D01*
X160102964Y-76575000D01*
X159952734Y-76465851D01*
X159952729Y-76465848D01*
X159779807Y-76388857D01*
X159779802Y-76388855D01*
X159634001Y-76357865D01*
X159594646Y-76349500D01*
X159405354Y-76349500D01*
X159372897Y-76356398D01*
X159220197Y-76388855D01*
X159220192Y-76388857D01*
X159047270Y-76465848D01*
X159047265Y-76465851D01*
X158894129Y-76577111D01*
X158767466Y-76717785D01*
X158672821Y-76881715D01*
X158672818Y-76881722D01*
X158614327Y-77061740D01*
X158614326Y-77061744D01*
X158594540Y-77250000D01*
X157115612Y-77250000D01*
X157077179Y-77131716D01*
X156982533Y-76967784D01*
X156855871Y-76827112D01*
X156851406Y-76823868D01*
X156702734Y-76715851D01*
X156702729Y-76715848D01*
X156529807Y-76638857D01*
X156529802Y-76638855D01*
X156384000Y-76607865D01*
X156344646Y-76599500D01*
X156155354Y-76599500D01*
X156122897Y-76606398D01*
X155970197Y-76638855D01*
X155970192Y-76638857D01*
X155797270Y-76715848D01*
X155797265Y-76715851D01*
X155644129Y-76827111D01*
X155517466Y-76967785D01*
X155422821Y-77131715D01*
X155422818Y-77131722D01*
X155371106Y-77290876D01*
X155364326Y-77311744D01*
X155344540Y-77500000D01*
X130115230Y-77500000D01*
X130079014Y-77415269D01*
X130079010Y-77415261D01*
X129874705Y-77035600D01*
X129637200Y-76675792D01*
X129637199Y-76675791D01*
X129400875Y-76379452D01*
X127515316Y-78265011D01*
X127510590Y-78257240D01*
X127324969Y-78029082D01*
X127110010Y-77828324D01*
X126981826Y-77737841D01*
X127528246Y-77191421D01*
X127726524Y-77191421D01*
X127736873Y-77303102D01*
X127786867Y-77403503D01*
X127869753Y-77479065D01*
X127974339Y-77519581D01*
X128058221Y-77519581D01*
X128140669Y-77504169D01*
X128236029Y-77445124D01*
X128303620Y-77355619D01*
X128334314Y-77247741D01*
X128323965Y-77136060D01*
X128273971Y-77035659D01*
X128191085Y-76960097D01*
X128086499Y-76919581D01*
X128002617Y-76919581D01*
X127920169Y-76934993D01*
X127824809Y-76994038D01*
X127757218Y-77083543D01*
X127726524Y-77191421D01*
X127528246Y-77191421D01*
X128868774Y-75850894D01*
X128868774Y-75850893D01*
X128745764Y-75743423D01*
X128396975Y-75490013D01*
X128026859Y-75268879D01*
X128026853Y-75268876D01*
X127638430Y-75081821D01*
X127638416Y-75081815D01*
X127234790Y-74930332D01*
X127234765Y-74930324D01*
X126819183Y-74815630D01*
X126394976Y-74738648D01*
X125965564Y-74700000D01*
X125534435Y-74700000D01*
X125105023Y-74738648D01*
X124680816Y-74815630D01*
X124265234Y-74930324D01*
X124265209Y-74930332D01*
X123861583Y-75081815D01*
X123861569Y-75081821D01*
X123473146Y-75268876D01*
X123473140Y-75268879D01*
X123103024Y-75490013D01*
X122754242Y-75743419D01*
X122631224Y-75850894D01*
X124518172Y-77737842D01*
X124389990Y-77828324D01*
X124175031Y-78029082D01*
X123989410Y-78257240D01*
X123984683Y-78265012D01*
X122911091Y-77191421D01*
X123165686Y-77191421D01*
X123176035Y-77303102D01*
X123226029Y-77403503D01*
X123308915Y-77479065D01*
X123413501Y-77519581D01*
X123497383Y-77519581D01*
X123579831Y-77504169D01*
X123675191Y-77445124D01*
X123742782Y-77355619D01*
X123773476Y-77247741D01*
X123763127Y-77136060D01*
X123713133Y-77035659D01*
X123630247Y-76960097D01*
X123525661Y-76919581D01*
X123441779Y-76919581D01*
X123359331Y-76934993D01*
X123263971Y-76994038D01*
X123196380Y-77083543D01*
X123165686Y-77191421D01*
X122911091Y-77191421D01*
X122099122Y-76379452D01*
X121862800Y-76675791D01*
X121862799Y-76675792D01*
X121625294Y-77035600D01*
X121420989Y-77415261D01*
X121420985Y-77415269D01*
X121251545Y-77811695D01*
X121251542Y-77811703D01*
X121118313Y-78221741D01*
X121022378Y-78642061D01*
X120964505Y-79069298D01*
X120964504Y-79069307D01*
X120945162Y-79499996D01*
X120945162Y-79500003D01*
X120250525Y-79500003D01*
X120250550Y-79498768D01*
X120259497Y-79282456D01*
X120270013Y-79041610D01*
X120270427Y-79036684D01*
X120299092Y-78806712D01*
X120329195Y-78578065D01*
X120329970Y-78573517D01*
X120377978Y-78344556D01*
X120427471Y-78121313D01*
X120428571Y-78117073D01*
X120495579Y-77891998D01*
X120564150Y-77674521D01*
X120565495Y-77670703D01*
X120650913Y-77451795D01*
X120651265Y-77450920D01*
X120738229Y-77240970D01*
X120739756Y-77237586D01*
X120843121Y-77026150D01*
X120843620Y-77025160D01*
X120948418Y-76823845D01*
X120950126Y-76820780D01*
X121070616Y-76618573D01*
X121071452Y-76617216D01*
X121193260Y-76426016D01*
X121195052Y-76423360D01*
X121331848Y-76231765D01*
X121333046Y-76230147D01*
X121471002Y-76050359D01*
X121472787Y-76048148D01*
X121624963Y-75868473D01*
X121626503Y-75866726D01*
X121779545Y-75699709D01*
X121781313Y-75697862D01*
X121947862Y-75531313D01*
X121949709Y-75529545D01*
X122116726Y-75376503D01*
X122118473Y-75374963D01*
X122298148Y-75222787D01*
X122300359Y-75221002D01*
X122480147Y-75083046D01*
X122481765Y-75081848D01*
X122673360Y-74945052D01*
X122676016Y-74943260D01*
X122867216Y-74821452D01*
X122868573Y-74820616D01*
X123070780Y-74700126D01*
X123073845Y-74698418D01*
X123275160Y-74593620D01*
X123276150Y-74593121D01*
X123487586Y-74489756D01*
X123490970Y-74488229D01*
X123700920Y-74401265D01*
X123701795Y-74400913D01*
X123920703Y-74315495D01*
X123924521Y-74314150D01*
X124141998Y-74245579D01*
X124367073Y-74178571D01*
X124371313Y-74177471D01*
X124594556Y-74127978D01*
X124823517Y-74079970D01*
X124828065Y-74079195D01*
X125056712Y-74049092D01*
X125286684Y-74020427D01*
X125291610Y-74020013D01*
X125532307Y-74009504D01*
X125748720Y-74000552D01*
X125751280Y-74000500D01*
X170748720Y-74000500D01*
X170751279Y-74000552D01*
G37*
%TD.AperFunction*%
%TD*%
M02*
