M48
; DRILL file {KiCad 7.0.5} date Mon Jun 12 20:17:56 2023
; FORMAT={-:-/ absolute / inch / decimal}
; #@! TF.CreationDate,2023-06-12T20:17:56-07:00
; #@! TF.GenerationSoftware,Kicad,Pcbnew,7.0.5
; #@! TF.FileFunction,Plated,1,4,PTH
FMAT,2
INCH
; #@! TA.AperFunction,Plated,PTH,ViaDrill
T1C0.0157
; #@! TA.AperFunction,Plated,PTH,ComponentDrill
T2C0.0177
; #@! TA.AperFunction,Plated,PTH,ComponentDrill
T3C0.0197
; #@! TA.AperFunction,Plated,PTH,ComponentDrill
T4C0.0236
; #@! TA.AperFunction,Plated,PTH,ComponentDrill
T5C0.0472
; #@! TA.AperFunction,Plated,PTH,ComponentDrill
T6C0.1693
%
G90
G05
T1
X4.9315Y-3.4547
X4.9315Y-3.6319
X4.9902Y-3.9075
X5.0295Y-3.9764
X5.0689Y-4.0354
X5.0689Y-4.1043
X5.0984Y-3.7106
X5.1181Y-4.1437
X5.1575Y-3.9567
X5.165Y-3.8189
X5.1673Y-3.6319
X5.2067Y-3.8091
X5.2067Y-3.9567
X5.2264Y-3.7402
X5.2657Y-3.5925
X5.3346Y-4.2323
X5.3445Y-3.5925
X5.4035Y-3.5335
X5.4134Y-3.622
X5.4331Y-4.2323
X5.5413Y-3.5335
X5.5512Y-3.2087
X5.6004Y-3.5433
X5.6004Y-3.7795
X5.6988Y-4.124
X5.7185Y-4.2717
X5.7677Y-4.1732
X5.7776Y-3.6811
X5.7776Y-3.75
X5.8169Y-3.6909
X5.9154Y-2.9823
X5.9547Y-4.4193
X5.9547Y-4.4882
X5.9843Y-4.5472
X5.9843Y-4.6752
X6.0138Y-2.9823
X6.063Y-2.9823
X6.063Y-4.5472
X6.063Y-4.6752
X6.0925Y-4.4193
X6.0925Y-4.4882
X6.1024Y-4.6063
X6.1024Y-4.7343
X6.1516Y-3.0512
X6.1811Y-4.6063
X6.1811Y-4.7343
X6.1909Y-4.1535
X6.1909Y-4.2126
X6.2795Y-3.0413
X6.2795Y-3.1299
X6.2992Y-4.3709
X6.2992Y-4.4685
X6.3681Y-4.4882
X6.378Y-4.2028
X6.4075Y-4.5276
X6.437Y-4.0157
X6.4567Y-4.2028
X6.4764Y-4.252
X6.4961Y-4.0157
X6.5157Y-4.2913
X6.5453Y-4.3898
X6.5846Y-4.4291
X6.5945Y-3.4843
X6.6634Y-3.435
X6.6634Y-3.4744
X6.6929Y-3.4547
X6.6929Y-3.4941
T3
X5.3986Y-3.1476
X5.3986Y-4.687
X5.4478Y-3.1476
X5.4478Y-4.687
X5.497Y-3.1476
X5.497Y-4.687
X5.5463Y-3.1476
X5.5463Y-4.687
T4
X4.8238Y-3.1299
X4.8238Y-4.7047
X4.861Y-3.0401
X4.861Y-3.2197
X4.861Y-4.6149
X4.861Y-4.7945
X4.9508Y-3.003
X4.9508Y-3.2569
X4.9508Y-4.5778
X4.9508Y-4.8317
X5.0406Y-3.0401
X5.0406Y-3.2197
X5.0406Y-4.6149
X5.0406Y-4.7945
X5.0778Y-3.1299
X5.0778Y-4.7047
X6.5955Y-3.1299
X6.5955Y-4.7047
X6.6327Y-3.0401
X6.6327Y-3.2197
X6.6327Y-4.6149
X6.6327Y-4.7945
X6.7224Y-3.003
X6.7224Y-3.2569
X6.7224Y-4.5778
X6.7224Y-4.8317
X6.8122Y-3.0401
X6.8122Y-3.2197
X6.8122Y-4.6149
X6.8122Y-4.7945
X6.8494Y-3.1299
X6.8494Y-4.7047
T5
X6.6555Y-4.065
X6.6555Y-4.2028
T6
X4.9508Y-3.1299
X4.9508Y-4.7047
X6.7224Y-3.1299
X6.7224Y-4.7047
T2
G00X6.8327Y-3.4026
M15
G01X6.8642Y-3.4026
M16
G05
G00X6.8642Y-3.6841
M15
G01X6.8327Y-3.6841
M16
G05
T0
M30
