%TF.GenerationSoftware,KiCad,Pcbnew,7.0.5*%
%TF.CreationDate,2023-06-12T20:17:58-07:00*%
%TF.ProjectId,kicad_tutorial,6b696361-645f-4747-9574-6f7269616c2e,rev?*%
%TF.SameCoordinates,Original*%
%TF.FileFunction,Soldermask,Bot*%
%TF.FilePolarity,Negative*%
%FSLAX46Y46*%
G04 Gerber Fmt 4.6, Leading zero omitted, Abs format (unit mm)*
G04 Created by KiCad (PCBNEW 7.0.5) date 2023-06-12 20:17:58*
%MOMM*%
%LPD*%
G01*
G04 APERTURE LIST*
G04 Aperture macros list*
%AMRoundRect*
0 Rectangle with rounded corners*
0 $1 Rounding radius*
0 $2 $3 $4 $5 $6 $7 $8 $9 X,Y pos of 4 corners*
0 Add a 4 corners polygon primitive as box body*
4,1,4,$2,$3,$4,$5,$6,$7,$8,$9,$2,$3,0*
0 Add four circle primitives for the rounded corners*
1,1,$1+$1,$2,$3*
1,1,$1+$1,$4,$5*
1,1,$1+$1,$6,$7*
1,1,$1+$1,$8,$9*
0 Add four rect primitives between the rounded corners*
20,1,$1+$1,$2,$3,$4,$5,0*
20,1,$1+$1,$4,$5,$6,$7,0*
20,1,$1+$1,$6,$7,$8,$9,0*
20,1,$1+$1,$8,$9,$2,$3,0*%
G04 Aperture macros list end*
%ADD10RoundRect,0.200000X-0.200000X-0.450000X0.200000X-0.450000X0.200000X0.450000X-0.200000X0.450000X0*%
%ADD11O,0.800000X1.300000*%
%ADD12C,0.900000*%
%ADD13C,8.600000*%
%ADD14RoundRect,0.200000X0.200000X0.450000X-0.200000X0.450000X-0.200000X-0.450000X0.200000X-0.450000X0*%
%ADD15R,2.400000X2.400000*%
%ADD16C,2.400000*%
%ADD17O,1.900000X1.050000*%
G04 APERTURE END LIST*
D10*
%TO.C,J4*%
X137125000Y-119050000D03*
D11*
X138375000Y-119050000D03*
X139625000Y-119050000D03*
X140875000Y-119050000D03*
%TD*%
D12*
%TO.C,H3*%
X122525000Y-119500000D03*
X123469581Y-117219581D03*
X123469581Y-121780419D03*
X125750000Y-116275000D03*
D13*
X125750000Y-119500000D03*
D12*
X125750000Y-122725000D03*
X128030419Y-117219581D03*
X128030419Y-121780419D03*
X128975000Y-119500000D03*
%TD*%
%TO.C,SW1*%
X122180000Y-91500000D03*
X122180000Y-88500000D03*
%TD*%
D14*
%TO.C,J3*%
X140875000Y-79950000D03*
D11*
X139625000Y-79950000D03*
X138375000Y-79950000D03*
X137125000Y-79950000D03*
%TD*%
D12*
%TO.C,H4*%
X122525000Y-79500000D03*
X123469581Y-77219581D03*
X123469581Y-81780419D03*
X125750000Y-76275000D03*
D13*
X125750000Y-79500000D03*
D12*
X125750000Y-82725000D03*
X128030419Y-77219581D03*
X128030419Y-81780419D03*
X128975000Y-79500000D03*
%TD*%
%TO.C,H1*%
X167525000Y-79500000D03*
X168469581Y-77219581D03*
X168469581Y-81780419D03*
X170750000Y-76275000D03*
D13*
X170750000Y-79500000D03*
D12*
X170750000Y-82725000D03*
X173030419Y-77219581D03*
X173030419Y-81780419D03*
X173975000Y-79500000D03*
%TD*%
%TO.C,H2*%
X167525000Y-119500000D03*
X168469581Y-117219581D03*
X168469581Y-121780419D03*
X170750000Y-116275000D03*
D13*
X170750000Y-119500000D03*
D12*
X170750000Y-122725000D03*
X173030419Y-117219581D03*
X173030419Y-121780419D03*
X173975000Y-119500000D03*
%TD*%
D15*
%TO.C,J1*%
X169050000Y-106750000D03*
D16*
X169050000Y-103250000D03*
%TD*%
D17*
%TO.C,J5*%
X173950000Y-93575000D03*
X173950000Y-86425000D03*
%TD*%
M02*
